/* XPM */
static char *_9bfe9b8e8be4038c45e796b4b918be3Za0HAo4hxZX8Vy4J[] = {
/* columns rows colors chars-per-pixel */
"64 64 244 2 ",
"   c #3B3D37",
".  c #322826",
"X  c #103F06",
"o  c #532C12",
"O  c #692E07",
"+  c #6A330B",
"@  c #68381C",
"#  c #773A18",
"$  c #70320B",
"%  c #493B2D",
"&  c #543D2A",
"*  c #483D35",
"=  c #503E30",
"-  c #6C3C25",
";  c #693825",
":  c #743B25",
">  c #743D2A",
",  c #7B3C26",
"<  c #4B1E0A",
"1  c #144507",
"2  c #1B4D05",
"3  c #164A07",
"4  c #1D5104",
"5  c #235505",
"6  c #265A04",
"7  c #2A5D05",
"8  c #245408",
"9  c #2C5C08",
"0  c #285708",
"q  c #315E08",
"w  c #2D6105",
"e  c #2F6108",
"r  c #326406",
"t  c #356906",
"y  c #3A6D06",
"u  c #346408",
"i  c #3B6B08",
"p  c #376809",
"a  c #3E7206",
"s  c #3F7008",
"d  c #3B4239",
"f  c #75451A",
"g  c #437506",
"h  c #467905",
"j  c #4A7C06",
"k  c #447409",
"l  c #4C7B09",
"z  c #487709",
"x  c #467409",
"c  c #55432C",
"v  c #5B432C",
"b  c #41423D",
"n  c #484537",
"m  c #584735",
"M  c #5A5139",
"N  c #684229",
"B  c #74422B",
"V  c #7C422C",
"C  c #784628",
"Z  c #674A36",
"A  c #67523D",
"S  c #795337",
"D  c #774934",
"F  c #467222",
"G  c #3E3F42",
"H  c #273F43",
"J  c #4D3C40",
"K  c #3A4448",
"L  c #484946",
"P  c #49534A",
"I  c #56564A",
"U  c #4B5754",
"Y  c #555653",
"T  c #5A5C56",
"R  c #5C5D5A",
"E  c #555B56",
"W  c #514140",
"Q  c #695647",
"!  c #745A46",
"~  c #645D57",
"^  c #5C635C",
"/  c #5A6358",
"(  c #4F625D",
")  c #62655D",
"_  c #686758",
"`  c #766A5A",
"'  c #706954",
"]  c #575C65",
"[  c #596664",
"{  c #56626B",
"}  c #636562",
"|  c #666A63",
" . c #696B64",
".. c #6C6D6A",
"X. c #666765",
"o. c #756C66",
"O. c #6D736B",
"+. c #697469",
"@. c #72746B",
"#. c #73796D",
"$. c #787669",
"%. c #6B7473",
"&. c #6D7B73",
"*. c #697577",
"=. c #737672",
"-. c #757A73",
";. c #7A7C74",
":. c #737C7C",
">. c #7C7D7A",
",. c #797674",
"<. c #656F70",
"1. c #635E63",
"2. c #813C19",
"3. c #843D29",
"4. c #894617",
"5. c #954D18",
"6. c #9B551C",
"7. c #8C440F",
"8. c #A3581E",
"9. c #A3561E",
"0. c #874729",
"q. c #9A5627",
"w. c #874933",
"e. c #944D33",
"r. c #8A5537",
"t. c #9C5C34",
"y. c #985636",
"u. c #914B2B",
"i. c #A55A22",
"p. c #A55928",
"a. c #A65A37",
"s. c #B25634",
"d. c #9A663C",
"f. c #AC6529",
"g. c #B2692C",
"h. c #AA663A",
"j. c #BB6C3C",
"k. c #B5673A",
"l. c #BB713E",
"z. c #A9763F",
"x. c #C6743D",
"c. c #CE763C",
"v. c #915B42",
"b. c #996746",
"n. c #8A6851",
"m. c #A96946",
"M. c #B36E43",
"N. c #B76745",
"B. c #AC7246",
"V. c #BB7344",
"C. c #B97649",
"Z. c #BA7855",
"A. c #A87255",
"S. c #847769",
"D. c #817C78",
"F. c #A85E46",
"G. c #C37443",
"H. c #C57A44",
"J. c #CC7D44",
"K. c #C47B4B",
"L. c #CB7E4B",
"P. c #C77549",
"I. c #D27C45",
"U. c #D37D4A",
"Y. c #D47844",
"T. c #C77D53",
"R. c #C16D47",
"E. c #4E8105",
"W. c #4F8008",
"Q. c #538506",
"!. c #568905",
"~. c #5B8D06",
"^. c #548408",
"/. c #5B8B08",
"(. c #5E9105",
"). c #568615",
"_. c #629406",
"`. c #669806",
"'. c #658D35",
"]. c #7C8176",
"[. c #7D827B",
"{. c #758279",
"}. c #7A876D",
"|. c #658A46",
" X c #D6833A",
".X c #CB803F",
"XX c #BF8251",
"oX c #82847C",
"OX c #838679",
"+X c #8A8A78",
"@X c #A88273",
"#X c #CE8245",
"$X c #CD824C",
"%X c #CB854D",
"&X c #D28346",
"*X c #D3854B",
"=X c #D48A4C",
"-X c #DA8C4C",
";X c #D9834C",
":X c #CC8351",
">X c #C88656",
",X c #D18452",
"<X c #D48B52",
"1X c #DB8C51",
"2X c #D68A5A",
"3X c #DB9154",
"4X c #DA9359",
"5X c #D9904C",
"6X c #E18E53",
"7X c #E49859",
"8X c #EF9A4B",
"9X c #E8A25C",
"0X c #F7AA5B",
"qX c #E79D62",
"wX c #EAA565",
"eX c #F3A565",
"rX c #DF9860",
"tX c #747E81",
"yX c #798482",
"uX c #7B8991",
"iX c #838482",
"pX c #858A82",
"aX c #8A8C84",
"sX c #898D8A",
"dX c #8D9189",
"fX c #93928C",
"gX c #939694",
"hX c #9BA39D",
"jX c #99AE81",
"kX c #A5A39B",
"lX c #A2B984",
"zX c #91A6A6",
"xX c #A8A9A6",
"cX c #BBBCB9",
"vX c #AEB2AC",
"bX c #9F9995",
"nX c #D6B8A1",
"mX c #BEC0BC",
"MX c #C2C2BD",
"NX c #D0C5BF",
"BX c #C9C9C4",
"VX c #D7D6D5",
"CX c #D1D0CE",
"ZX c #EEE4D9",
/* pixels */
"a e l _.^.y p y 7 s 6 w ^.g g a y t e y a r 9 y E.y jXBXBXBXMXBXNXMXBXBXBXBX|.9 2 t l g g y i t e p t r 9 g E.i y g h e e a E.y ",
"s r j j j u e w 5 7 t (.^.g a e y 7 8 a r 5 i ~.r t kX....@.@.@. .@.o.#...@.vX|.r _.^.g a 9 i 6 6 g r 8 a ~.r t r y r 8 a !.r r ",
"7 r y y k p w 7 2 4 E.(.l w y 7 y 1 r h r 9 Q.i 9 gX[.fXaXaXOXfX+XaXOXaXiX;.tXxX~.~.k r y 7 y 1 t j 9 r ^.e 6 r 9 r 2 9 ^.r 7 r ",
"6 7 7 e h 8 4 6 6 h j j r w 8 e 7 w j r i y g g 7 oXfX@.#.OXOX;.].].#. .o...Y D.j j q r 8 r 5 r h r u g z y 6 2 6 5 1 g k a 9 2 ",
"j 4 7 t h 0 a W.i g g x i t 6 9 r g 1 a j /.u ^.5 oX;.;.].;.].#.].].@.)  .@.1.bXj x i r 6 e r t 3 s E.^.y l 2 2 3 2 g /.i j 5 2 ",
"r 7 i t e t `.t i r j j j j y r g y g j _.g w ~.2 cX} oX;.-.OX#.}.{.O.|  ...iX|.l l l l t t s a h E._.i y /.6 1 3 Q.`.p 7 ~.7 7 ",
"E.^.i s 7 E.!.W.g i j ~.^.~.j y i Q.r _.Q.9 h _.7 h L ;.;.$.;.@.#.{.@...o...X.CXl (.Q._.l p t E.t _.l q E.~.6 7 h `.j k h (.6 j ",
"_.!.j k a k ^./.j t ~.^.p Q./.0 r g h `.g y ~.VXMXcXL $.@.D.D.@.].].@.=.@.,.L ,.BXVXr ^.~.8 g r h _.k y ~.y 6 `.j g p g (.h w `.",
"z E.!.^.^.i ^./.y y ^.u i vXsXVX!.!.(.^.!.CXaXfX-.| b +.,.D.D.1.;.;.$.>.}.[ E OXoXfXaXkXZXi !.!.~.fXxXl l j ^._.i a ^.j j j E._.",
"s h ^._.i h j z 0 y y l kX..:...kX).'.S.~ oXOX-.+.+.d U @.,.X.,.-.;.-.{.{.P +.yX&.#.fX,._ gXVXCX=.sX;.hXlXh h j i Q.g r j h h ^.",
"h i ^.~.z p t t r a W.xX..iXiX..E vXhX-.dX| &.+.+.+.P P ..iX,.iX;.{.-.{.{.P &.yX&.| -.>.pXT oX@.iXaXdX..hXq ^.k 9 r r r i q ^.j ",
"i a s ~.W.t w E.~.p dXyX>.,.,.,.| ) R sX[.-.{.{.&.}./ Y oXtXtXD.[.[.-.-.{.K yX:.&.&.&.<.&.E | fXaXaX[.iX@.iXj 7 w h k t 9 k j k ",
"E.t t W.s a y `.VX=.iX%.=.-.-.-.=.-.[ ( -.yX#.#.+.` Q M ' ` $.$.` S.` ` ' M iXo.#.&...*.[ R ].aXoXoXoXiXoX=.sX1 !.!.2 2 t j r 5 ",
"j r a i z t E.z hX..[.-.=.-.-.>.-.}.#.U +.>.$.S.' A Z m A Q ! Q ! ! ! ! A m ! ` ;.#.:...E {.OXOXdXoXOXaXpX;.fXj ^.~.r g i 9 r j ",
"8 j p u j a k p 3 VXE @.-.#.-.-.@.#.OX/ P $.Q Q N > S r.r.b.v.- m.m.b.r.v.v.> Z v Q o.Y } aXOX;.].;.>.pX;.Y CXh !.^.t !.r r t j ",
"w h 7 e r h ^.t k e mXU ^ -.-.@.-.;.#.o.M % B v.y.a.a.a.a.m.h.f P.V.j.k.k.R.F.F.b.D % Q ;.OXOXOXOXoXOX| Y mXw E.^.k k y r 7 w r ",
"t z a w w ~./.~.g F L / Y +.&.+.}.;.o.M % & A.b.a.a.s.k.h.N.B.4.,XH.R.j.k.C.N.M.m.r.n.& ! S.@.-.aX-.+.E | P |.k p y 8 u u 6 r 0 ",
"e s a ^.h !.h u 7 kX$.+X&.( <.-. .) M @ C # m.m.h.a.N.V.V.P.C.4.1X&Xc.J.J.H.V.C.M.u.A.e.# & ~ =.+.[ U yXOX_ +XZXt 5 7 p r 2 4 6 ",
"9 p a ^.y k 9 5 OXo.oX#.{.( P _ T & N r.b.C N.C.V.G.L.L.T.T.:Xu.7X6X-X*X&X$X$XK.T.u.Z.Z.F.N & n n O.sXyX[.aX_ oX2 3 p 0 6 4 a w ",
"6 t t h g 9 1 VXD.;.;.%.&.O.E % % v S d.d.# T.T.P.P.U.$XL.:X:X5.eX6X1X=X*X,X%X:X>Xp.>XZ.m.b.N = M oX[.yXpXD.,...VXp r 8 w E._.a ",
"4 u u l e 9 y vX .;.{.yX{.;...o Z r.b.m.M.4.>XT.L.J.*X,X%X<X>Xq.eX6X1X1X*X=X<X1X:Xf.2XT.C.B.b.D & o.S.oXaXyX-...kX+Xt g a _.^.i ",
"6 0 ^.y 2 ^.MXb [ %.%.=.oXS.= C b.h.h.V.K.7.<X*X&X X-X-X<X5X<X8.eX6X1X1X=X;X*X=X=Xp.4X<XH.j.V.A.# ; S.OX=.%.[.[ P MXr 7 E.(.g w ",
"w r /.2 0 g MX@.[ R [ ,.,.! c t.d.k.M.C.L.4.1X1X=X&X5X5X5X<X<X6.eX6X1X1X*X-X*X&X;Xk.7X,XJ.L.G.m.B.A ! ;.=.| E ^ / mX8 r (.~.y 2 ",
"~.~.k 1 i t ;.[.*.*.iX1.` Z D h.h.j.H.H.$X5.3X;X&X=X5X<X5X5X=X8.eX1X=X=X&X*X*X&X1Xg.1X1X&Xc.J.j.M.v.; I T >.:.*.+._ 6 !.~.j 7 7 ",
"(.!.4 8 7 7 $.+.yX:.;.;.A S t.f.j.x.*X$X%X6.3X&X&X5X6X-X1X<X,X6.eX5X&X-X&X&X#X=X<Xf.5X5X#X#XY.l.l.m.C Z $.=.:.:.+./ h h h p w E.",
"!.a 9 a r vX$.].%.%.,.` S S d.g.H.J.$X%X%X6.9X=X5X5X5X&X*X,X=Xq.eX-X&X&X&X=X#X=X<Xg.3X5X#X#XI.H.j.B.b.! o.,.<.%.#.$.kXa k 7 a j ",
"g t a h k dX@.-.O.:.` ` S t.B.l.l.:XL.:X%X6.wX=X-X3X7X&X,X,X*Xq.eX-X-X&X*X*X#X%X<Xg.4X<X.X#XH.J.x.B.m.S ` S.:.*.-.#.fXa r r j j ",
"e u g h 6 d }.-.:.-.S.Z N h.l.H.H.%X>X<X>X6.rX=X=X-X3X#X,X,XU.p.0X-X&X=X#X%X=X<X<Xg.4X<X%X%XK.$X$Xl.M.V Z ` =.yX%.-.  7 i g p t ",
"8 e BXCXVX) | ^ } ^ T v 0.z.K.H.=X%X4X4X<X6.qX-X=X-X-X$X*X:X:Xq.9X5X-X-X=X<X1X<X4Xf.4X5X=X<X,X*X$XV.C.0.& ~ ^ ^ E ) ) VXVXCXBX8 ",
"4 mXP ..,.aXoXOXaXdXyX& 5.J.:X$X$X-X5X<X<X6.wX-X=X-X*X*X=X=X<Xi.9X-X-X6X-X;X1X3X4Xg.9X<X=X&X=X*X#X:Xx.5.= :.OX[.oXaXaXoX;. .P 5 ",
"4 mXT ;.,.,.) ^ +.+.#.m 8.L.:XJ.$X-X-X<X<X8.wX3X&X=X;X=X,X*X<Xh.9X5X-X6X1X1X1X<X4Xg.wX3X&X=X=X=X*X,X%Xf.M tX#.-.oXpX>.@.#. .L q ",
"4 mX) [.;.;.>.;.+.+.-.m i.&X:X#X*X-X=X=X%X6.wX-X&X=X&X=X*X%X>Xf.8X5X-X6X6X;X<X<X<Xg.wX-X-X&X&X,X*X:X%Xf.m sX#.-.].iXD.;.;._ L r ",
"7 cX^ D.=.oXoXpX[.#.%.c 8.L.:X$X=X5X=X<X*X8.qX1X&X&X&X*X=X:X*Xi.9X-X-X6X6X;X*X=X<Xg.wX3X=X=X&X=X*X:X2Xg.m gX@.#.:.[.>.;.>.| L 5 ",
"r MXT ;.D.[.-.].OX#.<.m 9.$X:XJ.#X5X&X%X*X8.qX1X&X=X$X&X=X*X>Xq.9X5X;X6X6X-X*X*X%Xg.wX4X&X=X&X,X*X:X2Xg.M hX#.}.;.>.,.>.>.| L 7 ",
"7 cXY ..@.-.;.#.#.;.&.c i.$X:XH.#X-X=X*X%X6.qX1X&X*X$X$X*X%X:Xq.9X5X&X-X6X1X*X:X%Xf.eX<X#X&X.X=X*X:X4Xj.m hX}.#.-.-.>.@...) L 6 ",
"r cXY  .X.X. .) +.#.<.c 8.P.L.J.#X=X%X<X=X6.qX1XI.&X*X$X$X%X<X5.wX=X&X-X1X<X*X*X>Xf.eX<X.X=X#X*X$X*X4Xg.c sX#.#. ...=.X.) Y L 7 ",
"a MXI ^ R T E / / / E m 8.L.L.J.%X&X#X%X*X6.qX1X$XI.&X$X$XL.$X4.eX=X&X;X;X1XU.:X%Xf.wX=X&X&XL.*X$X:X3Xf.v ^ / / R E 1.Y T Y L 2 ",
"g BX>.;.>.d Y Y / I U c 8.L.:XL.*X=X&X%X$X5.qX<XJ.J.$XL.$XL.:X7.wX=X&X&X;X1X$X$X%Xf.wX<XL.I.H.*X*X$X5Xf.c U I / R E G >.D.D.>.4 ",
"g e r y 4 L [.dXdXOX:.m 8.L.:X$X&X&X&X%XH.5.qX1XJ.J.J.L.$X$X:X7.9X-X&XI.U.,X,X%X%Xq.qX=XJ.J.J.$XL.K.<Xg.v yXOXpX>.%.  2 h j /.e ",
"t 4 ^.7 4 L OXaXaX].:.m 8.L.:XJ.#X=X#X:XL.5.7X,XJ.&XJ.J.%X:X>X7.9X=XI.&XU.U.*X%X%Xp.qX#Xx.J.J.U.L.L.,Xf.c jX}.#.....L w y g ~.e ",
"8 t !.3 6   -.iXpX].{.m i.L.:X&X*X=X&XT.,X6.4X*X#X#X#XJ.*X:X:X5.9X-XI.L.:X$X$X$X:Xf.wXJ.x.P.P.L.H.%X5Xf.c kX#.;.>.=.K h g g k 3 ",
"a (.p 4 w d ..-.{.-.yXc i.L.T.$X#X&X*XU.,Xi.4X%X#X#X*X#X$XL.>Xq.8Xc.Y.:XXX#XL.T.T.h.8Xc.G.x.F.N.m.h.%Xg.N fX$.-.*.*.K (.~.~.7 5 ",
"/.E.u 4 X L ..=.[.].:.c i.L.T.&X%X&X&XL.,X8.wX%X.X#X=X&XI.L.:Xq.8Xc.Y.L.Z..XJ.U.<Xh.8X5Xm.kXBXZXZXNX@Xz.M sX` ' _ _ b !.h g w h ",
"h s 4 u ~.G O.@.-.O.<.m i.L.T.L.&X#XL.L.%X5.4X%X#Xc.I.I.&X:X:X5.9X&XY.T.>X&XI.U.2Xq.0X.Xy.!  .bX' n.n.B.M {.' ' ~ ) d g i 7 w E.",
"i r i _.(.L ...._ ) [ m i.K.:XL.J.&XJ.,X$X7.4X*X#XJ.&XI.*X%X%X4.7X-XY.:X>X X XU.>Xd.9Xz.d.d H vXb I S.d.J tXo.o._ /   u r r j g ",
"7 i !.h g d ) ) / T U m i.L.L.L.$X&XL.T.:X7.rX*X$X&X;XU.=X%XXX4.9X=XU.$X>X X X;X:Xt.9XXX! ].:.gXkX@XS r.J { 1.1.^ [ K 8 t /.i r ",
"8 cXL Y T ^ ) R / I U m i.T.$X$XL.J.$X$X>X4.wX<X&XU.U.U.I.:X<Xq.9X=XU.$X>X X X;X<Xt.wXz.n.fX* ... bXnX0.J ] R 1.R { U E ~ Y P p ",
"5 cXY iXiXaXdXaXaXpXtX& i.,XT.,XH.c.L.$X>X5.qX<X=XU.;XU.*X:X>X7.wX<XU.$X>X X XI.>Xt.wXd.Z ) G * * Q @X# J zXD.iXyXyX:.iXoXo.L 4 ",
"g cXT ;.=.,.;.].;.}.:.= i.:XK.,XH.J.H.T.:X7.7X<X*XI.U.U.,X:X:X$ qX1XU.L.$X X&XU.:Xd.9Xd.N R { [ P Q S.@ n uX|  .+.+.}.oX>. .L 3 ",
"q cXY >.;.oX;.].#.@.*.c 6.P.K.:XH.J.H.K.$X$ 4X<XI.U.U.U.U.,X>XO 3X*XU.K.>X XI.I.:Xy.4Xz.; [.:.%.[ D.A o d zX_ _ ' }.+XoX>. .L 5 ",
"k mXR D.=.iXOX].+.+.@.c 6.K.K.L.x.H.G.R.P.$ 6X<XJ.Y.U.U.H.:X=X$ 1X&XY.Z.Z..XY.P.>X0.wXh.N % Y o.I c v f d zX}.` }.}.+XOX;.) P j ",
"_.mX} iX,.OX[.].@. .+.m i.P.K.P.l.x.j.V.V.$ 4X=XJ.Y.U.Y.H.%X%X# 6X&XY.C.XXc.H.T.Z.0.wXf.B o < < < f S f d gXOXOX}.S.$.$.;._ I _.",
"l mXY tXD.>.>.>.+.+.+.c q.R.T.V.V.x.j.h.N.O 2XU.x.x.#XL.G.H.C.$ 7XY.Y.V.C.H.G.P.C.4.4Xl.m.Z.Z.Z.XXXXXXq.n uX;.oXD.tXiX,.@.| P _.",
"k mXY ,.>.>.>.o.| +.Q v y.Z.R.N.M.N.N.N.h.$ 2XT.x.k.C.K.G.P.V.$ qXP.j.k.N.C.M.C.M.4.2Xh.h.V.V.M.d.d.XXu.n yX;.D.,.=.uX,...~ L ^.",
"k cXP ......} 1._ / Q v e.Z.T.m.h.k.N.m.t.+ T.U.x.k.H.C.N.P.C.O 6XH.k.s.k.V.N.M.h.4.>Xm.p.h.h.h.u.d.z.4.% ( ) .. .} ..X.E Y   ^.",
"u VXiXiXiXG Y ~ / / I & w.F.N.t.a.a.s.F.y.+ T.R.s.s.V.k.s.R.N.O 2Xj.g.s.a.h.h.h.h.2.T.d.u.q.a.q.4.r.h.4.% U T T ^ T G iX,.,.>.x ",
"a e g k g L ..D.[.{.$.& , y.a.q.t.a.a.a.e.O T.R.s.a.N.k.s.N.m.O 2Xj.s.p.a.a.a.a.a.# T.y.u.e.e.0.4.r.d.4.* yXOXOX;.@.d i 7 E./.5 ",
"a 0 w p 9 G ..o.-.{.}.& V y.y.e.y.a.e.a.r.O T.N.s.a.h.a.s.N.F.$ U.N.s.s.y.a.t.t.y.# T.e.4.u.0.0.C 0.r.4.* gX$.o.#.@.d r a _.i 2 ",
"t t 7 4 r   =.,.-.%.}.% : r.u.u.w.e.e.e.w.O N.a.a.y.a.y.a.F.v.$ T.s.e.e.e.y.y.e.e.# A.e.3.3.# : C C r.0.* zX#.,.;.@.d 6 ^.j 6 5 ",
"u W.1 1 8   >.>.-.+.$.c - w.w.0.0.u.3.w.C o F.y.u.u.e.e.e.a.y.+ N.a.3.e.u.0.w.w.w.O F.w.# , 3.V V C w.#   gX@.;.$.@.b r h g 7 7 ",
"w ^.t 4 6 d {.D.&.&.#.c ; w.0.V C w.3.0.3.< F.e.u.u.e.e.e.e.e.+ N.e.u.3.3., w.w.3.; v.w.: : V > V N C $   uX..;.;.;.b j E.l r 5 ",
"s ^.a 4 4 d -.,.| | _ % ; , , B - 3., , > < v.v.3.3.0.w.e.0.w.o F.u.2., 3., w.B > o 3.> : : : > B - C $   tX=.,.;.oXb (./.~.6 5 ",
"!.h 7 3 1 b ..@.<.[ / % ; > : N ; , : ; ; < v.w.3., B w.w.3.D @ F.w., : > > > > > @ > B - ; : > N @ B f * *.>.>.oXoX  ^.k a r j ",
"s s 4 s `.L R ) ^ ( I * ; > : - ; , : ; ; o w.v.3.> > V V , C o F.w., : > ; > > ; @ - > ; @ @ - @ @ N $ * { X. .....b g p 7 r E."
};
