/* XPM */
static char *d6fb025e6eb44c48db1233d9daa61918Hhw34npY3jFrOwqf[] = {
/* columns rows colors chars-per-pixel */
"64 64 238 2 ",
"   c #000001",
".  c #0B0402",
"X  c #0C0C0B",
"o  c #080707",
"O  c #160B05",
"+  c #1C120C",
"@  c #18110A",
"#  c #151514",
"$  c #1A1513",
"%  c #1C1916",
"&  c #1C1C1D",
"*  c #171817",
"=  c #0F0F11",
"-  c #24140A",
";  c #2C1A0D",
":  c #26150A",
">  c #321C0C",
",  c #391F0D",
"<  c #281C14",
"1  c #321D13",
"2  c #230D06",
"3  c #2A221D",
"4  c #342213",
"5  c #3D2414",
"6  c #38261B",
"7  c #3C220F",
"8  c #232323",
"9  c #2B2C2A",
"0  c #362924",
"q  c #3B3C3A",
"w  c #333333",
"e  c #36372E",
"r  c #103F06",
"t  c #43220F",
"y  c #432512",
"u  c #4B2B15",
"i  c #44291A",
"p  c #4C2C1B",
"a  c #472813",
"s  c #552E15",
"d  c #4D3B1D",
"f  c #4D331C",
"g  c #5C341C",
"h  c #5A3D19",
"j  c #56371A",
"k  c #55290C",
"l  c #67371B",
"z  c #743B1D",
"x  c #4D3725",
"c  c #523D22",
"v  c #583925",
"b  c #493E35",
"n  c #663C26",
"m  c #743E27",
"M  c #603E35",
"N  c #144507",
"B  c #1B4D05",
"V  c #174A07",
"C  c #1D5104",
"Z  c #235506",
"A  c #265A04",
"S  c #2B5D06",
"D  c #245408",
"F  c #2C5C08",
"G  c #285708",
"H  c #315F08",
"J  c #2E6105",
"K  c #2F6108",
"L  c #326406",
"P  c #356906",
"I  c #3A6D06",
"U  c #346408",
"Y  c #3B6B08",
"T  c #376809",
"R  c #3E7106",
"E  c #3F7008",
"W  c #3F403E",
"Q  c #3F6A22",
"!  c #5D411C",
"~  c #427506",
"^  c #467905",
"/  c #4A7C06",
"(  c #447308",
")  c #4C7C09",
"_  c #487709",
"`  c #467409",
"'  c #564125",
"]  c #41433D",
"[  c #4B493B",
"{  c #554D3C",
"}  c #7B4626",
"|  c #794B32",
" . c #704B30",
".. c #7E421D",
"X. c #3F3C44",
"o. c #433F40",
"O. c #3E4441",
"+. c #434442",
"@. c #4B4C44",
"#. c #4C4D4B",
"$. c #464A45",
"%. c #4E5147",
"&. c #52544C",
"*. c #555547",
"=. c #555553",
"-. c #565A53",
";. c #595C55",
":. c #5C5D5A",
">. c #545B5A",
",. c #50524E",
"<. c #625E55",
"1. c #665644",
"2. c #5B6156",
"3. c #5D615B",
"4. c #56605C",
"5. c #596544",
"6. c #62645E",
"7. c #66685D",
"8. c #796958",
"9. c #61644E",
"0. c #5F5E61",
"q. c #625F61",
"w. c #596563",
"e. c #4F6161",
"r. c #636562",
"t. c #656B64",
"y. c #696B64",
"u. c #6C6D6A",
"i. c #676969",
"p. c #746E69",
"a. c #6E726B",
"s. c #6A7066",
"d. c #72746D",
"f. c #73796E",
"g. c #777568",
"h. c #716E72",
"j. c #6D7573",
"k. c #6B7776",
"l. c #747572",
"z. c #757A73",
"x. c #7A7C75",
"c. c #7C7D7A",
"v. c #767A7A",
"b. c #6F6E73",
"n. c #843C1F",
"m. c #834B26",
"M. c #864B2A",
"N. c #944A2B",
"B. c #89522C",
"V. c #985828",
"C. c #885534",
"Z. c #965A36",
"A. c #844E33",
"S. c #A55A31",
"D. c #9B632B",
"F. c #9D6237",
"G. c #A86738",
"H. c #B46C3C",
"J. c #BB6E3C",
"K. c #B56A34",
"L. c #BB713E",
"P. c #AC6630",
"I. c #81481F",
"U. c #C3733E",
"Y. c #9B6A47",
"T. c #8C684C",
"R. c #A56C45",
"E. c #B56E41",
"W. c #AB7448",
"Q. c #BD7443",
"!. c #BA7848",
"~. c #AD7A54",
"^. c #827B74",
"/. c #C37542",
"(. c #C47A4C",
"). c #C3794C",
"_. c #4E8105",
"`. c #4E8008",
"'. c #538506",
"]. c #568905",
"[. c #5B8D06",
"{. c #548308",
"}. c #5B8B08",
"|. c #5E9105",
" X c #629506",
".X c #669806",
"XX c #629213",
"oX c #5E8638",
"OX c #75984E",
"+X c #7C8176",
"@X c #7D827B",
"#X c #798478",
"$X c #7C816F",
"%X c #BB8555",
"&X c #82847D",
"*X c #83867A",
"=X c #87907F",
"-X c #90AA76",
";X c #C5844D",
":X c #CC8B54",
">X c #C68653",
",X c #D38B53",
"<X c #A6C177",
"1X c #7A7D81",
"2X c #827E81",
"3X c #7B8684",
"4X c #848482",
"5X c #868982",
"6X c #8A8C85",
"7X c #8C8B8B",
"8X c #89878A",
"9X c #8C918B",
"0X c #92938D",
"qX c #939392",
"wX c #9B9B9A",
"eX c #989A96",
"rX c #908E8C",
"tX c #AAA79B",
"yX c #A3A3A3",
"uX c #ACACAC",
"iX c #A9A8A8",
"pX c #BCBCBC",
"aX c #B6B5B5",
"sX c #B0B3AC",
"dX c #9EA39C",
"fX c #C0BFBB",
"gX c #BFC1BE",
"hX c #C3C6BD",
"jX c #C5C5C3",
"kX c #CBCCCC",
"lX c #CACAC4",
"zX c #D1D2CF",
"xX c #D4D4D4",
"cX c #DCDCDB",
"vX c #D9D9D6",
"bX c #D0D0CA",
"nX c #E6E6E6",
"mX c #DFE1DE",
/* pixels */
"R K )  X'.I T P S I Z L '.~ ^ I T I S I R L S R '.Y vXhXjXlXhXlXhXhXjXlXjXlXhXJ B L / ~ ~ I I P L T I S J ~ / T R ^ ~ S L I '.I ",
"E L / / ) U K K Z S L |.{.~ R K I S D ~ L Z I [.L -X0Xp.u.g.g.a.u.g.p.x.d.p.eXoXT .X{.~ R S I A G ~ L G ~ {.L P T I L G R [.L L ",
"K J I I ( P J S B C / |./ J R Z I N L ^ L H '.T S t.4X0X6X6X*X0X*X6X*X*X5Xc.&XiX[.[.^ S I A T N T ^ S L ].H S L S P V H '.L S L ",
"A S S K ^ D C A S ^ / _.L L D L S S / L T I ~ ~ A ] 4Xg.g.*X*Xx.*Xx.g.t.u.y.r.c./ _ H L Z T D L ^ L T ~ ^ I D B A C r ~ ( ~ G B ",
"^ C S L / D ~ `.Y ~ ~ ` T P A K L ~ N ~ / {.T ) Z +.x.x.x.x.+Xf.^.@Xd.6.t.p.3.wX^ ( T L Z L L P V R / {.I ) B B N B ~ [.T ) Z C ",
"L K E L K P .XP I L / _ / / I L ~ I ~ / .X( L [.Z qXa.@Xx.f.&Xf.c.c.d.y.y.u.#.oX{./ ^ / T L ~ I ~ '. XY I [.A N B '..XT A [.S S ",
"_.{.I E S _.}.`.~ P / |.{.[./ T P '.P |.'.S ^  XS ~ ;.z.x.f.x.f.x.@Xl.a.u.u.q bX)  X'. X/ T T '.T |./ S _.[.A S ^ .X/ ( / [.A / ",
" X]./ ( R ( '.]./ T [.{.T '.[.G L ~ ^ .X~ Y XXbXhXpX;.g.d.^.^.d.x.c.d.l.d.f.W z.jXlXT ].{.G ~ P ^  X~ ( [.Y A .X/ ~ T ~ |.^ J .X",
"_ `.}.{.{.T {.}.I R `.T Y 8XyXcX[.].|.'.'.aXqX6Xx.6.,.a.l.z.z.t.+Xx.z.x.x.t.] &X@X4XrX7XzXI [.].[.pXl./ / / _. XT ~ './ / / _..X",
"E ^ '.|.Y / / ^ A T I xXr.l.v.@XlX_.pX>.u.3X@Xz.p.d.W -.l.z.u.l.z.x.z.+Xx.2.6.6Xd.f.5X&Xs.$.bXcX0X4X6X3.xX( ) ) T _.~ L / ~ ^ {.",
"^ I '.}.) L P T T I cX4X4X7Xz.i.9XaXw.3X5Xa.k.s.u.d.@.,.d.3Xk.@Xc.x.x.x.x.3.l.&Xz.p.a.d.0Xz.t.6X&X5X6XeX@XxX].( L T L P T H '.) ",
"I R E [.`.T J ^ [.vX4X&Xd.z.l.d.a.2.3X3Xv.z.@X@Xf.l.-.,.c.c.3X#X&X^.x.f.z.;.&Xz.f.s.a.d.x.g.;.&X7X6X4Xc.x.a.xXF H ~ I I S ( / ( ",
"_.T P {.E R R <XwXw.#Xl.c.z.z.z.z.f.$.s.+X+Xg.g.g.g.*.*.r.s.k.k.j.a.u.i.r.-.9Xf.z.x.a.f.y.$.g.6X5X&X&X&X&Xc.3.jX].[.V B T / L Z ",
"^ L E I ^ R _.kXj.u.v.a.@Xa.#Xc.f.+X2.%.x.^.g.g.9.@.b e b q O.O.+.q O.q q w 6.t.d.x.z.f.;.;.=X*X6X=X&X6X4X&Xr.lX'.[.L ~ T L L ^ ",
"D / T L ^ R R P dXeXy.j.3Xs.z.l.p.+X^.*.9.p.*.[ 6 ; : < - . .               # 8 W ,.t.6.@.eX*Xf.x.*Xx.@X&Xy.wX-X'.].I [.L L T / ",
"J ^ F J J _.'.I ^ sXj.&.x.z.f.f.x.g.^.g.b 6 i 6 5 , ; ; 2 O . .   o o o       o   X 8 q d.6X*X*X*X*X*Xf.;.f.-X'.{.I I I T S J L ",
"T ^ R J J |.].[.~ uX<.-.2.z.z.a.#X$X8.f v v x x 5 y > 1 2 . . .   o             o     X $.a.f.s.*X*Xd.2.3.t.sX( Y R D L U Z P S ",
"K E R {.^ '._ T bXg.*X@Xe.e.k.z.7.<.l z |  .v p y , > 1 2 . o                           X & =.i.u.y.$.d.4Xx.r.sXOXZ K T L V C Z ",
"F L R '.I ( K aX6.*X+Xk.3X$.&.2.{ x B.Z.C.A.n p a 7 > 1 2 . o                       o       * q +.;.9Xx.4X&Xc.;.aXV T Z A C R J ",
"S P P ^ ^ F N 7Xg.@Xf.j.3Xs.%.x '  .R.G.T.| v g a t > > : . o                                 # W l.&Xx.5X&X&Xy.8XK K D J _. X~ ",
"C U U ) K F vX:.z.#Xv.#Xf.*X*.! T.C.G.G.Z.C.n s u a , > : . o                                   9 ;.x.&X5X5Xx.d.6.kXT ( R  X'.P ",
"A D '.I V ].] =.k.s.k.l.*X8.! | >XG.G.K.G.C.l g p u > > : . o                         o           9 @Xf.@Xa.x.@X#.>.U F _.[.~ L ",
"J L [.B A OXz.6.e.e.j.g.6X . .W.>XP.L.L.F.B.l g s i > > : . o                               o o o # ] z.d.y.3.;.3.-.( H  X[.I B ",
"].|.~ N L tX*Xv.s.#Xs.7.g.| F.G.,XK./.K.G.B.l g s t > ; 2 O .                               o o     # &.;.7.x.z.u.u.wX'.[./ A S ",
"|.].C D H tXp.c.3Xk.&X8.f %XF.P.(.K.U.K.Z.m.l j p 5 > ; : O .                                 o     o e d.+Xg.x.d.z.6X^ ) T J / ",
"].R S R lX*Xc.j.j.j.a.8.a %XW.%X,XK.U.J.G.m.l s a 5 > : 2 .                                 o o     o @ t.d.d.s.f.d.6XjX( A ~ / ",
"~ T I / sXx.v.b.k.l.g.1.! %XW./.:XK.U.L.F.| g p y i > : + . .                                       o X ;.g.f.d.l.z.x.aXT J / / ",
"J U ~ / &Xy.j.c.v.z.8.h h %XK.P.%XD.L.H.G.A.v f i 6 > ; : O .                               o o o       8 6.a.+Xg.z.6.z.T ( Y P ",
"D jXbXxX7Xt.r.w.w.w.@.j j ;XP.S.:XD.L.K.G.C.l c f 6 6 6 3 + O .                             o           # #.3.3.2.-.7.9XcXxXbXhX",
"C #.y.z.*X*X4X8XqX8X*.c h (.P.K.:XP.J.L.G.B.z g f 0 6 3 0 $ @ .                                         # &.&X4X@X@X6X5X*Xz.y.+.",
"C ;.@Xl.z.7.w.i.b.l.&.c ! ;XK.K.:XP.%XL.G.m.z v p 0 - 3 9 3 #                                           # -.z.l.#X=X*Xf.p.l.y.+.",
"C 3.0Xz.#X#X&Xh.b.l.*.c ! (.K.K.:XP.L.L.F.B.l h p 0 - 3 3 3 %                                         o # ;.#Xz.x.+X&X+Xx.c.i.b ",
"S :.6Xz.#X@X7X8Xc.l.*.' l (.K.J.:XG./.H.Z.m.l g a 3 3 3 $ % $                                           # :.@Xl.z.+X+Xz.x.c.t.] ",
"L :.5X@X+Xd.2X2X1Xa.[ d h ).J.U.:XG.Q.H.Z.m.g p i 4 9 % # # @ o                                         # 6.@Xz.z.+X+Xx.@Xx.y.+.",
"J &.l.a.f.z.c.h.1Xc.*.' h (.U.U.:XG.!.R.Z.m.g p 6 < 3 $ $ @ X .                                         # ;.&X#Xf.l.#Xz.d.p.<.] ",
"L &.s.s.3.t.i.i.b.l.@.' h !././.:XH.E.G.Z.} s p i + 3 3 $ # X                                           # >.+Xl.s.s.s.s.i.6.;.+.",
"R %.r.;.-.-.-.r.0.:.] c h !././.:XD.G.G.Z.A.s a y + < < + + @ .                             o           # %.3.6.3.-.;.;.=.=.=.+.",
"( @Xc.^.-.%.-.w.0.=.[ c h Q.Q.U.;XD.G.Q.G.A.k a 5 2 @ @ @ 3 @ .                                         # +.&.>.3.2.@.&.c.^.1Xc.",
"^ J K E @X7.7XqX7X@X*.d h Q.U.U.;XD.E.E.Z.M.k t y - : < < % +                                           # -.4X5X=Xz.;.@X^ ) }.S ",
"L C `.F 3Xu.7X7X2Xc.&.d h /.U./.,XD.G.E.S.m.k a t < 6 < ; 2 O .                                         # 3.5Xz.a.s.2.&XI ~ [.J ",
"D R ].N #X2.2X7X2Xc.*.d h ).J.U.;XV.K.L.G.B.k a t 4 4 ; < @ O .                                         # 3.#Xz.#X#X3.@X~ ^ ~ V ",
"R |.T A #X2.b.2X1Xv.*.f h !.J.U.;XD.K.K.F.} k u 5 5 > ; : O X                                           # >.@Xz.a.a.2.@X[.[.A A ",
"'.`.K C &X2.h.2X2Xx.%.d h !.J./.,XG.L.L.G.B.h u a 4 ; ; @ O o                                           * ;.l.a.7.t.2.*X^ ~ J ^ ",
"^ E C L @X:.h.c.v.g.%.c ! ).J.U.:XD.%XL.F.B.j s a 5 > : 2 . .                                           # -.f.y.3.3.-.#XY A J _.",
"Y L ( .X+X3.z.u.i.q.%.c ! ).L.L.%XD.L.J.F.} j u y 5 > ; 2 . o                                           # &.d.a.7.s.-.c.U L / ^ ",
"S T {./ +X&.r.q.0.=.[ c h ).L.U.;XD.J.H.Z.} k u y 5 > < - . .                                           * #.6.r.3.3.&.@XP [.T L ",
"G +.=.;.;.6.<.0.:.-.[ d h Q.H.U.;XD.H.S.C.} s a 5 5 , ; + .                                             # $.>.2.2.2.2.&.>.:.=.#.",
"A =.5X&X=X6XqXrX8X4X%.d ! !.H.Q.>XG.P.D.C.} s a y 5 1 ; O .                                             # ;.4X#X+X#X+Xx.&Xc.u.b ",
"~ =.4Xl.f.f.&Xx.^.c.[ d ! /.Q./.>XD.G.N.A.m s a y 6 4 : O .                                 o           * 3.d.r.t.s.d.x.&Xx.y.b ",
"S =.4Xx.$X$X&Xz.l.h.*.d h !.E.J.(.Z.S.N.M.m u y 5 , 4 : + . .                                           # ;.l.7.t.f.=X6X*Xx.i.+.",
"( :.8Xl.*X*X4Xl.h.u.%.d s ).H.K.(.R.N.N.A.m a t 7 > ; : O     o                                         # 6.5Xl.a.z.@X#X*X+X7.+.",
" X<.qXl.+X*X^.l.h.p.%.d h ).P.S.).Z.N.N.M.m a t , , ; @ .   o o                                         # :.6X3X#X+X#X+Xx.x.7.@.",
") :.8Xv.x.$X4Xz.a.s.{ c l !.V.V.!.n.N.n.m m a , > 4 @ .                                                 * 2.c.@X+Xv.@X@Xl.l.7.@.",
"( =.2Xc.*X^.a.u.s.r.{ j h !.V.N.R.n.N.m z l a i < X       .                                             & >.z.#X#Xz.c.4Xz.u.<.q ",
"( #.p.i.u.t.2.w.w.w.[ c l W.m.B.R.m n.z g g a 1 + o                       o       o             .   o   & #.2.y.u.r.r.i.i.>.#.q ",
"T 4X4X8X-.@.e.w.e.>.[ c h W.m.I.Z.n n.l n n > O o o   o o o . X o X X X X X = X # * * * & & 8 8 8 8 8 8 9 W -.4.2.3.,.=.2Xl.l.2X",
"R S ~ ( R 4.1X3X3Xv.*.f n ~.} ..A.n m M M t O . o o o o = = = = X # # & & & 8 8 9 w w w q q q q q q w q q =.@X3X@X@X:.@XF _.}.D ",
"R D K T J e.k.v.1X#X*.x n ~.} } A.l M M 0 2 O = o o = = = = = $ 8 8 9 w w w q q X.+.#.#.#.#.=.=.=.=.=.=.#.3.4Xz.a.z.3.3XR  XY B ",
"L T F C L 5.j.z.k.l.*.f h W.z z m g M 0 2 O = = = = $ & & 8 w X.q $.,.=.:.0.q.b.b.v.1X1X1Xv.h.h.h.l.l.l.>.3.@Xz.z.z.4.@X'./ Z D ",
"U '.V N C 5.v.l.j.d.1.u ! R.z z A.n < $ O $ $ $ & 9 X.X.#.#.=.0.r.b.v.2X2X4X4X8X7X7XqXqXqXqXqXqXrXrX7X7Xi.:.+Xl.j.c.3.@X^ ~ J S ",
"J '.T C A 5.+Xz.l.g.1.f  .Y.l | M s $ $ * & 8 w X.#.0.i.1X1X1X2X8XqXqXyXyXyXyXyXyXyXyXyXiXuXuXuXuXuXiXyXl.=.l.z.z.#Xr.3X_.) L C ",
"R ].E C V 9.x.u.t.r.{ d g Y. .n i ; 8 9 X.#.0.i.b.v.2X8X2XyXwXiXuXaXaXaXpXgXpXpXpXaXpXpXjXkXjXkXjXjXjXgX4X-.d.v.z.&Xi.@X}.[.Z A ",
"].) F V V 2.a.s.t.w.@.x [ T.f 1 < 0 X.#.=.=.i.v.2X2XyXiXuXaXpXjXjXjXjXkXkXkXkXkXkXkXkXkXxXxXxXxXcXnXnXmXeX#.l.#Xv.4Xy.@X( R L / ",
"I R C I .X&.w.w.w.4.@.6 4 v 5 < 9 X.X.#.i.v.1X7XwXyXuXaXjXkXkXkXxXxXzXxXxXxXxXxXxXxXcXcXcXcXcXnXmXnXnXnXwX$.w.y.i.s.:.@XY S P _."
};
