/* XPM */
static char *_78abe8319ab40b8e40cd9e4be032fc7Y3RtuABExJbzCEoA[] = {
/* columns rows colors chars-per-pixel */
"64 64 146 2 ",
"   c #0D3F07",
".  c #103F06",
"X  c #39220F",
"o  c #4A0000",
"O  c #520601",
"+  c #550901",
"@  c #5C140C",
"#  c #4E0D13",
"$  c #5E1D17",
"%  c #622A30",
"&  c #733C39",
"*  c #0E4105",
"=  c #134406",
"-  c #164906",
";  c #1B4D05",
":  c #1B4D08",
">  c #144709",
",  c #1E5104",
"<  c #1F5008",
"1  c #204F05",
"2  c #235505",
"3  c #265A04",
"4  c #2B5D05",
"5  c #245408",
"6  c #285708",
"7  c #265908",
"8  c #2B5B08",
"9  c #305E08",
"0  c #315F07",
"q  c #2D6105",
"w  c #2E6108",
"e  c #326506",
"r  c #366905",
"t  c #3A6C06",
"y  c #346408",
"u  c #39660A",
"i  c #366808",
"p  c #3B6B08",
"a  c #3E7105",
"s  c #3F7008",
"d  c #02572C",
"f  c #046631",
"g  c #066B33",
"h  c #077537",
"j  c #087A38",
"k  c #49531E",
"l  c #6D5219",
"z  c #406F09",
"x  c #437506",
"c  c #487707",
"v  c #467906",
"b  c #4A7D05",
"n  c #4D7E07",
"m  c #4A7C06",
"M  c #467509",
"N  c #447409",
"B  c #497709",
"V  c #477808",
"C  c #4A7A09",
"Z  c #4E7E09",
"A  c #4B7B09",
"S  c #517E0A",
"D  c #564625",
"F  c #78423C",
"G  c #615F4D",
"H  c #77484D",
"J  c #803E22",
"K  c #A24F0E",
"L  c #894C39",
"P  c #824837",
"I  c #995F3F",
"U  c #834E43",
"Y  c #8B5243",
"T  c #86554D",
"R  c #895C5E",
"E  c #91615F",
"W  c #A5704D",
"Q  c #A77558",
"!  c #8B646A",
"~  c #8B646A",
"^  c #996D61",
"/  c #09843C",
"(  c #4E8105",
")  c #4F8008",
"_  c #538406",
"`  c #568905",
"'  c #5A8C06",
"]  c #558509",
"[  c #538309",
"{  c #578808",
"}  c #5A8A08",
"|  c #5A8B08",
" . c #5E9105",
".. c #5E9105",
"X. c #629506",
"o. c #669905",
"O. c #6B9D06",
"+. c #639408",
"@. c #689908",
"#. c #6EA105",
"$. c #71A307",
"%. c #248A51",
"&. c #3A8760",
"*. c #538F75",
"=. c #59967B",
"-. c #8A916D",
";. c #BE8A61",
":. c #A1A97D",
">. c #C1997B",
",. c #CBA07A",
"<. c #5DB585",
"1. c #78BA9A",
"2. c #A08288",
"3. c #BE9C88",
"4. c #BE9C88",
"5. c #B19897",
"6. c #9CB590",
"7. c #A3B782",
"8. c #A5B590",
"9. c #B59FA4",
"0. c #CFAC8C",
"q. c #D1B59C",
"w. c #A9C79C",
"e. c #A2C3A1",
"r. c #A5C7BF",
"t. c #D7C4B8",
"y. c #E6CCAB",
"u. c #F0D3A5",
"i. c #F3D8AE",
"p. c #E9D1B1",
"a. c #F4DEB9",
"s. c #C9BDC1",
"d. c #C9BDC1",
"f. c #B0D5CA",
"g. c #B1DFCE",
"h. c #B3E4CF",
"j. c #C0DAD6",
"k. c #DDDADE",
"l. c #F6E4C2",
"z. c #F8E8CC",
"x. c #F9ECD3",
"c. c #FCF4DF",
"v. c #CCEBE4",
"b. c #CFF5E8",
"n. c #FDF8E5",
"m. c #FFFFF2",
/* pixels */
"a w C X._ p i r 4 t 3 e [ x x t t r w t a w d.d.d.d.d.d.d.d.d.d.d.d.d.d.d.d.d.6., e m x N a p e w i r y w x n r t c v 4 y a ) p ",
"s e b ( C y e w 2 4 e ..[ x a e p 4 5 a e 2 # # # # # # # # # # # # # # # # # d.e X.] a a 4 s 3 3 x q 2 a { e r i t e 7 a ` e e ",
"4 e t t x i w 3 ; , b ..C q t 4 a = e v y 4 # # # # # # # # # # # # # # # # # d.` ..c q p 4 t = r v w y _ e 3 r 4 e ; 4 _ i 4 i ",
"3 4 4 w C 2 , 3 4 v b ( e w 5 e 4 w k.! ! ! # # # # # # # # # # # # # # # # # H ! ! 9.w 5 e 5 e v e i x c t 2 ; 3 5   M c t 7 ; ",
"v , 4 i v 7 a Z p x x c r r 7 4 e a d.# # # # # # # # # # # # # # # # # # # # # # # ! e 3 w w t > N ( ] r S ; ; - ; x } i S 2 ; ",
"e 4 p i w r O.r t e n c n b r i x p d.# # # # # # # # # # # # # # # # # # # # # # # ! b r r N p v ( o.p t } 3 = - _ o.r 3 | 4 4 ",
"( ] p a 3 ( { ( x r n ' ] ' n p r ` d.# # # 4.4.4.# # # # # # # # # # # # # # # # # % ! ! k.r ( e ..Z 4 ( ' 3 4 C o.n z b  .3 b ",
"+.{ m N x N _ | C r | ] r _ | 5 e x d.# # # l.l.l.# # # # # # # # # # # # # # # # # # # # d.x i v o.N t ` t 4 o.n x i x  .x q o.",
"C ) _ [ [ p [ ` t a ( i p X.p e ' ` d.# # # l.l.l.# # # # # # # # # # # # # # # # # # # # d.' ` ' [ _ C C b ( +.r x [ n v n ( o.",
"s x ` X.p C m c 6 r p m C M t ..d.d.5.U U U l.l.l.$ $ $ $ $ F T T & # # # # # # # # # # # d.O.( | | ` c v c C n p ( x i C v c [ ",
"v t _ | C r r p i t ) N i x b ' # # U u.u.u.l.l.l.J J J J J 0.l.l.4.# # # # # # # # # # # d.{ a o...B e t 9 _ c y i e r t 9 ( n ",
"t a s | m p w b | p y 4 ( N b ..# # U u.u.u.l.l.l.J J J J J 0.l.l.4.# # # # # # # # # # # d.N x ' C x w 4 x b 7 4 x p r w t n N ",
"( i i [ s a t o.c 2 2 [ ` 7 ( C d.d.t.u.u.u.l.l.l.0.0.0.0.0.p.l.l.y.4.4.^ # # # # # # # # d.i v b p n r i C 7 - ` ' - ; r b y 2 ",
"v r a p N t ( v r ; a ' i 2 x p t p m.u.u.u.l.l.l.l.l.l.l.l.l.l.l.l.l.l.4.# # # # # # # # d.p p r y o.+.y e w b [ ' r a p 4 w C ",
"7 b r y C x x i ; , c r 3 3 c ( e 4 m.u.u.u.l.l.l.l.l.l.l.l.l.l.l.l.l.l.4.# # # # # # # # d.8 q 2 ( @.[ 4 r t C _ _ t ' w r t b ",
"4 v 8 4 e v S r c e i e r v r w 3 2 m.u.u.u.l.l.l.J J Q l.l.l.l.l.l.l.l.4.# # # # # ~ m i ~ # # d.X.Z r r 4 q ( { z z t r 7 q e ",
"p N a w q ' | ' x 0 t 4 2 n 8 r 2 , m.u.u.u.l.l.l.J J Q l.l.l.l.l.l.l.l.4.# # # # # ! c 3 ! # # d.| Z e 4 ; t x p a 2 i y 2 r 7 ",
"e s a [ v _ M r 3 p x - 2 z b p   w m.u.u.u.l.l.l.J J Q l.l.l.l.l.l.l.l.4.# # # # # ! x _ ! # # d.] C 7 3 , 4 7 r 2 4 i i - , 2 ",
"7 i a ` r c y , 2 p e , e ' X.; = r m.u.u.u.l.l.l.Q Q >.l.l.l.l.l.l.l.l.4.# # # # # ! ..X.9.! ! k.n w 2 , ; p 2 : - i 7 3 ; x 4 ",
"4 r e v x 8 = 2 7 3 r n n X.B - a t m.u.u.u.l.l.l.l.l.l.l.l.l.l.l.l.l.l.4.# # # # # ! ..z 2 v i x r - 2 2 [ ' : = w w 2 q ( o.x ",
", y y Z w 4 t [ 2 w ' Z ( b 8 x [ 8 m.u.u.u.l.l.l.l.l.l.l.l.l.l.l.l.l.l.4.# # # # # ! v 0 _ b 4 e y q t t o.p 5 2 4 r x a X.[ t ",
"3 2 [ p ; _ ' e : ( _ r C r c ` C 4 4 m.m.m.i.i.i.l.l.l.l.l.l.l.l.q.T T & # # 2.d.d.9.~ ~ k.x e 9 c w 7 n ' r , 3 2 0 4 ( ' x e ",
"q e ..: 7 N t 7 r o.v q Z ( x b v C c o.x r u.u.u.l.l.l.l.l.l.l.l.4.# # # # # d.e q d.# # d.v C [ o.p r +.} r , 3 3 3 r  .| t ; ",
"'  .z = p e x 5 b _ _ r p 4 4 c ' ' ' [ e ( u.u.u.l.l.l.l.l.l.l.l.4.# # # # # d.t a d.# # d.' ' ` S 4 _ ' B 2 4 ` y 3 _ ' n 3 4 ",
" .` , 7 4 7 t w t ( Z r 2 t e _ +.m b p x x v y 3 u.u.u.u.u.u.u.u.z.t v < q ` m b p 3 x e ` X.x c t a v v i 3 [ X.x s v v u q ( ",
"` a 4 t e 7 4 e e b p 3 r x r ` b r t Z m e p 7 N u.u.u.u.u.u.u.u.z...s w v i w v 3 a a a ` x w r [ c e i q v Z [ i i a N 4 a n ",
"x i t v x 3 q 4 r p : 3 x v v c t e t ' ] e 7 s Z u.u.u.u.u.u.u.u.z.a , v 4 2 w c 2 x x v x r r a ' S w 5 c m Z x i r a i e b Z ",
"q y N m 4 a x ; 4 2 2 v t a x t N e x ( | 3 e C p :.:.:.:.:.7.7.:.w.h.h.h.h.h.h.h.h.b.t x a x w v [ ] 2 r N p e e e x q t p p e ",
"5 w n e 7 +._ r 5 2 r q r x n n q q i C [ w i p 4 d d d d d h / / / / / / / / / / / <.x ) v p a r n Z 4 s r w 7 8 7 q w r i 2 7 ",
", e 7 4 _ { v e - 4 x 3 3 v _ | , 7 t +.i 7 q 2 3 d d d d d h / / / / / / / / / / / <.( { ) v v 4 n y 7 w 3 ; 2 5 , , 7 e 7 ; 5 ",
", 4 w v ( c e 3 2 t e e q ( X.p * ( ..v : y E E ~ l l k d d d g g h / / / / / / / / %.=.=.v.x C y p - w 4 r r 5 , : , 7 q t t w ",
", w a t x 4 3 2 e e e x e ` _ 2 a #.s 5 4 m + + + K K l d d d d d f / / / / / / / / h d d f.` ( 7 ; , N 4 ( { ; = a r x q _ ' e ",
"3 q w 3 4 0 t n r 3 x m v C y t ..N 2 ( N , + + + K K l d d d d d f / / / / / / / / h d d f.+.r 2 n t 2 e ` - * 2 v 8 , q ` r 3 ",
"e q v a 1 ' X.x 2 t c 4 r x C [ [ r ( [ i , + + + K K ;.q v b x r r.d d f / / / / / / / / h.n a ` ] r 4 b e c - e q w e v r n 3 ",
"q r c 3 c ' n 3 2 e t , a x [ ' ) { a w 8 q + + + K K ;.v o.c ` _ r.d d f / / / / / / / / h._ _ i q r e e t _ 3 r e ( | e r [ 3 ",
"e e e a _ c 3 - - r 4 r t r o.B v [ 2 q 3 t + + + K K ;._ [ ( [ i j.*.*.&.h h / / / / / / 1.f.f.e.e 3 t q ( ` e e a ` s 2 c _ 3 ",
"a 2 a v x e 2 ; 4 r 4 ` x ` ` 2 v ' 3 3 e ( + + + K K ;.n N ( y r { e 1 r.d d h / / / / / f d d f.2 e c t  .' 4 a c n r r ` ' 2 ",
"a 3 i p r 1 3 c r 4 x [ v ( 4 7 X.x , r x 4 + + + K K ;.y N p e e | r { r.d d h / / / / / f d d f.t t 2 e X.v 3 c n r 2 q X.v , ",
"a w w t 2 r b c e r ` e w x x b A r ( v 4 ; + + + K K ;.0 b p r x c c ] r.d d h / / / / / f d d f.r 6 2 ( ( ' q x q 2 , v S ` q ",
"i 3 ( 8 ; x r 3 3 c _ 3 v b C r C v S b , q + + + K K ;.r M ` e } r y r r.d d h / / / / / j h h g.a 3 a e v ' q r , ; q t x ' q ",
"7 r ` - 3 q r 5 t X.c r x 0 2 r c b n o.t v + + + K K ;.C  .[ 2 | 0 5 3 r.d d h / / / / / / / / h.+.r x x n a q 7 - 2 v a c x - ",
"a ..i 2 q , a 3 m ] n e 2 2 3 c ` ..` Z 4 ` + + + K K ;.{  .p e @.0 2 2 r.d d h / / / / / / / / h.n r ' { ` ; a i q v  .` ' 3 3 ",
"` ) w , * M i 4 r n v q 2 t e ` ..v v N b ' o o o o o L l.l.l.l.l.l.l.l.8.d d h / / / / / / / / f d d =.n r 3  .[ ( ` ` c x q v ",
"C s , e  .{ , q r [ r 2 x t r ` M r t M v x o o o o o U l.l.l.l.l.l.l.l.8.d d h / / / / / / / / f d d =.p 5 q ` C ( x x p 4 q ( ",
"t e t o...[ e 4 A p ; 4 ( t x x i r i r a i o o o @ @ P 0.0.y.a.a.y.0.0.-.d d h / / / / / / / / f d d =.e i n z t c v y i e n c ",
"w p ` b M ..7 7 r - 2 ' ] p a e r t p t e 2 o o o J J J J J ,.u.u.,.J J D d d h / / / / / / / / f d d =.t ' r e i a r 2 r ` r q ",
"2 y x w v ] 5 q 2 - x o.S y t 4 x x 4 i 4 4 o o o J J J J J ,.u.u.,.J J D d d h / / / / / / / / f d d =._ a 4 r 4 t ; 8 _ p 3 r ",
", q w 8 Z 4 3 , 3 x ( ( i q 7 4 ' w 2 w p r o o o J J J J J ,.u.u.,.J J D d d h / / / / / / / / f d d =.p 4 7 : 7 3 . z C r 6 5 ",
"a < 3 r v - r ( x c x v r t 2 t x 2 * t x ` O O O J J J J J I W W I J J D d d h / / / / / / / / f d d =., - r t - ; e } t S 2 - ",
"w 3 p i e 2 o.r t 4 C c n c v e 3 e t n X.C + + + & J J J J J J J J J J D d d h / / / / / / / / f d d =., a  .7 * b o.N 4 } 3 2 ",
"a ) p e q ( | x x r C ` ' X.( e t _ t ` ` y + + + J J J J J J J J J J J D d d h / / / / / / / / f d d =.x O.e ; a O._ p a +.2 v ",
"@.| x a a M [ [ v v _ ' p ( ' 8 4 v x @.c i o o O + + + + + + + + + + + X d d h / / / / / / / / f d d =.X.t 4 X.[ v i N X.v 3  .",
"S m { ) [ p [ ..C t [ u y  .C * x _ ' ] [ C o o o + + + + + + + + + + + X d d h / / / / / / / / f d d =.m c b o.p t C b c c (  .",
"N m  .X.N C X...7 r c x C [ 4 v #._ ' c v c R R R L L L Y Y L L L Y E E G d d g h h h h h h h h f d d =.x m C S t ( ' [ v ( c _ ",
"v a { { v ( o.N 4 x _ n t r _ O.#._ ' i e 3 t i c u.u.i.l.l.i.u.u.z.p , f.d d d d d d d d d d d d d d =.x y m x i C ` C r i x _ ",
"i p m _ b ` N i a b p i n _ X.' | { ' r , e c t _ u.u.i.l.l.i.u.u.z.x v f.d d d d d d d d d d d d d d =.x z ' x w b _ u x p ` c ",
"x 4 x z v p 2 6 y y r S ( ` [ c ` ' ' 4 e b 4 b ' u.u.i.l.l.i.u.u.z.' n f.d d d d d d d d d d d d d d =.4 ` _ x v m v r w ( ' 2 ",
"s 2 e i 4 2 7 [ e e b n C v r b ' C C a a C t +.p u.u.i.l.l.i.u.u.z.c ` ' y ; x ` n v v p n ' C n t t n x X.0 r Z t e e a ..p ; ",
"y r 8 2 y w v i 3 r [ t x a _ C M x ' r 7 4 _ n 4 u.u.i.l.l.i.u.u.z.x S N 2 e r ` c r x _ x x x ` i 7 r _ n 2 7 C q : 3 _ Z 3 2 ",
"w [ = = 2 r i 2 7 [ C q b n t r v v C S 7 4 x c 4 u.u.i.l.l.i.u.u.z.y i 6 7 8 _ x q ( C t r c C n n 2 4 v x 3 4 w : 2 e v x 4 4 ",
"q { i , 3 4 r i v ..e q p 5 2 x c [ n o.a x u.u.u.l.l.l.l.l.i.u.u.z.2 2 2 ; c n ; q p 2 2 t c S ] +.t x Z C e , e 4 q v n C y 2 ",
"a ` p , ; 5 t q _ c 2 e 3 3 4 C  .' ` C r ' u.u.u.l.l.l.l.l.i.u.u.z.= - - 3 c 3 r t 2 2 4 b X.' ` c t  .| ' 4 q _ x b  .{ ' 3 3 ",
"_ C 4 > - n e e v t q q q v r ' ` x x x _ _ z.z.z.n.c.c.c.c.z.z.z.n.t c ; t x x x 3 4 a t ` ` v v x ` _ N t e ( _ ( ` _ M a e v ",
"a x ; a o.[ : t e N r 2 a x a _ x r t x x x p 4 q ( a c a C +. .n c ' i v r 0 e 3 ; x t x _ z t r x x t p 3 r n x b t x p 4 r ( "
};
