/* XPM */
static char *b25a29aff3314e2cc9f86fd55542082bfdRyuSG1wFxih087[] = {
/* columns rows colors chars-per-pixel */
"64 64 150 2 ",
"   c #0D3F07",
".  c #103F06",
"X  c #1E3D1F",
"o  c #490000",
"O  c #510501",
"+  c #540901",
"@  c #550E08",
"#  c #5A130B",
"$  c #4C0D13",
"%  c #6E1F05",
"&  c #631809",
"*  c #6D2817",
"=  c #6E2D1E",
"-  c #702C18",
";  c #7E3D22",
":  c #612830",
">  c #0F4206",
",  c #134405",
"<  c #164906",
"1  c #1B4D06",
"2  c #1B4D08",
"3  c #144709",
"4  c #1E5105",
"5  c #1F5109",
"6  c #204F05",
"7  c #235505",
"8  c #285706",
"9  c #265A04",
"0  c #2A5D05",
"q  c #245408",
"w  c #285708",
"e  c #265908",
"r  c #2B5B08",
"t  c #315F07",
"y  c #305F08",
"u  c #2D6105",
"i  c #2E6108",
"p  c #326506",
"a  c #386707",
"s  c #366905",
"d  c #3A6C06",
"f  c #346408",
"g  c #39660A",
"h  c #366808",
"j  c #3B6B08",
"k  c #3E7105",
"l  c #3F7108",
"z  c #02552D",
"x  c #2B4E2A",
"c  c #264726",
"v  c #365322",
"b  c #046432",
"n  c #067438",
"m  c #077E3B",
"M  c #39603B",
"N  c #406F09",
"B  c #437506",
"V  c #487707",
"C  c #467A06",
"Z  c #467906",
"A  c #4A7A07",
"S  c #4A7D05",
"D  c #4D7E07",
"F  c #4A7C06",
"G  c #467508",
"H  c #447409",
"J  c #487709",
"K  c #477808",
"L  c #4A7A09",
"P  c #4E7E09",
"I  c #4B7B09",
"U  c #507E0A",
"Y  c #45765E",
"T  c #517F55",
"R  c #6D7754",
"E  c #84340A",
"W  c #A04E0E",
"Q  c #814330",
"!  c #85534F",
"~  c #935943",
"^  c #A67359",
"/  c #8A626C",
"(  c #8A626C",
")  c #976A62",
"_  c #08813C",
"`  c #4E8006",
"'  c #4E8105",
"]  c #4F8008",
"[  c #538506",
"{  c #538406",
"}  c #568905",
"|  c #598A07",
" . c #5A8C06",
".. c #518108",
"X. c #558509",
"o. c #538309",
"O. c #578808",
"+. c #5A8A08",
"@. c #5A8A08",
"#. c #5E9105",
"$. c #5E9105",
"%. c #629506",
"&. c #659905",
"*. c #6C9E06",
"=. c #649408",
"-. c #6EA106",
";. c #71A307",
":. c #3A8461",
">. c #3E8E67",
",. c #528460",
"<. c #559A60",
"1. c #528D76",
"2. c #57947D",
"3. c #57A26D",
"4. c #BA8D72",
"5. c #BD947D",
"6. c #8FAC66",
"7. c #CA9E7C",
"8. c #5DB188",
"9. c #BD9683",
"0. c #BC998A",
"q. c #B39BA6",
"w. c #92BCB2",
"e. c #CDA88E",
"r. c #D7B494",
"t. c #C2A7A4",
"y. c #CFB3A3",
"u. c #DABAA2",
"i. c #C6B5BE",
"p. c #CAB8BE",
"a. c #95D0B9",
"s. c #D8C1B7",
"d. c #EFCFA7",
"f. c #E6CDB3",
"g. c #F1D4B1",
"h. c #F2D9BB",
"j. c #C7B9C4",
"k. c #A3C3C2",
"l. c #AFD3CE",
"z. c #B1E0D2",
"x. c #C9E0DB",
"c. c #F4E0C5",
"v. c #F6E4CF",
"b. c #F8EDDF",
"n. c #DBD6E1",
"m. c #D9E8F2",
"M. c #CBE6E8",
"N. c #F4F2F3",
"B. c #FDFAF6",
"V. c #FFFEFE",
/* pixels */
"l u L %.[ j h s 0 l 9 p ..B B d d s i d k u 0 k ] l s B X.[ D F j D ..l B 7 7 u 2 s F k B l d p i d d i 0 B ..j d B Z r u k ] d ",
"l p S ` L p i u 7 0 s $.o.B l p d 0 7 l p e d  .p p ( ( ( ( ( ( ( ( ( ( ( ( ( ( ( ( ( ( l i l 9 e k i 9 B [ u s a l p e l  .p p ",
"r p d d H a u 9 1 4 S $.L 0 d 0 l , p S p r [ a 0 h $ $ $ $ $ $ $ $ $ $ $ $ $ $ $ $ $ $ l u d , s S r p [ p 9 a 0 p 2 0 [ a 0 a ",
"9 0 0 u L 7 4 9 0 Z S S p p 7 p 8 u S p j d J B 8 1 $ $ $ $ $ $ $ $ $ $ $ $ $ $ $ $ $ $ 4 i 5 p K p h H V d 7 4 9 4 , H G d e 1 ",
"S 4 0 p F e l D s B B G s s 8 u p B , d S O.a ( $ $ $ $ $ $ $ $ $ $ $ $ $ $ $ $ $ $ $ $ $ $ $ d 3 k ` [ d P 1 1 < 1 l  .s U 7 1 ",
"p 0 l p i s -.s d a F A P S d p B d B D &.B u ( $ $ $ $ $ $ $ $ $ $ $ $ $ $ $ $ $ $ $ $ $ $ $ l Z ' %.j d  .9 , < [ &.j 9  .0 0 ",
"' X.d l e ' O.` B s D  .[  .I j p } p %...t Z ( $ $ $ $ $ $ $ $ $ $ $ $ $ $ $ $ $ $ $ $ $ $ $ ] s $.] 0 S $.7 0 F %.D j S #.9 D ",
"=.X.F H B H [ O.L d  .X.g .. .q p B Z %.j.$ $ $ $ $ $ $ $ $ $ $ $ $ $ $ $ $ ! c.c.c.c.c.$ $ $ p Z =.H l  .s 0 &.` B a B #.B u &.",
"J ] [ o...j o. .j l ` h j $.j a  .} #.U j.$ $ $ $ $ $ $ $ $ $ $ $ $ $ $ $ $ ! c.c.c.c.c.$ $ $ O. ...[ L S L ' %.d l ..D Z P ` %.",
"B B } %.j F L G e s l L F H d  .*... .O.j.$ $ $ $ $ $ $ $ $ $ $ $ $ $ $ $ $ ! c.c.c.c.c.$ $ $ ] @.@.O.Z S Z L P d ` B p F Z L ..",
"Z d .. .L h s s h d ] K a B S  .#.d &.=.j.$ $ $ $ $ $ $ $ $ $ $ ) 0.0.= = = ; ^ ^ u.c.c.4.4.4.( ( ( n.p d y X.H f h p s d y ..D ",
"d l H @.] s u S  .j i 0 ` H S $.G k  .D j.$ $ $ $ $ $ $ $ $ $ $ 0.c.c.; ; ; ; ; ; e.c.c.d.d.d.$ $ $ j.i u l L r 0 Z j d u d D H ",
"' s p ..l l d &.H 7 7 [ } w ` F h B ..s j.$ $ $ $ $ $ $ $ $ $ $ 0.c.c.; ; ; ; ; ; e.c.c.d.d.d.$ $ $ j.a s D r , }  .< 4 h S f 7 ",
"S p l j H d ' K h 4 l  .s 9 B j d j l 0 j.$ $ $ $ $ $ $ $ ! c.c.c.c.c.c.c.c.c.c.c.c.c.c.d.d.d.l d f %.=.f r u S [  .p l j u p Z ",
"e S j f L B B j 1 4 B j 9 9 H ` p 0 7 Z j.$ $ $ $ $ $ $ $ ! c.c.c.c.c.c.c.c.c.c.c.c.c.c.d.d.d.u q ` &...u s j Z } [ d X.0 a s S ",
"0 B r u p Z ..s B p p p s Z j u 9 j.j.j.q.( ( : $ $ $ $ $ ! c.c.c.c.c.c.c.c.f.e.e.f.c.c.d.d.d.5 p &.L d s 0 u [ X.j B d h 0 0 h ",
"d H k u u  .@. .N p d 0 8 F r s 4 $ $ $ ( u i ( $ $ $ $ $ ! c.c.c.c.c.c.c.c.e.; Q e.c.c.d.d.d.7 F O.P f 0 1 d B j l e p p 9 s e ",
"p l k ..Z } G a 9 j B < 7 N L d   $ $ $ ( u e ( $ $ $ $ $ ! c.c.c.c.c.c.c.h.e.; ; e.c.c.d.d.d.p G } L 0 9 4 8 8 s 7 r p h < 4 7 ",
"r h k } s B r 7 7 s p 4 p  .%.q , $ $ $ ( 7 4 ( $ $ $ $ $ ! c.c.c.c.c.c.c.c.e.Q ; e.c.c.d.d.d.s ..D 0 9 7 1 s e 4 3 h r 9 1 l 0 ",
"9 s p K B r , 9 9 0 s D D %.J , k j.j.j.n.5 5 ( $ $ $ $ $ ! c.c.c.c.c.c.c.c.f.e.e.f.c.c.d.d.d.h H s < 5 7 .. .2 > p i 7 u { %.B ",
"4 f p P f r d ..7 u  .U ..A r B [ r f f 9 l l ( $ $ $ $ $ ! c.c.c.c.c.c.c.c.c.c.h.c.c.c.d.d.d.0 u p u j d &.d 7 4 u s B k %...d ",
"9 e ..j 1 [  .p 1 ..[ s S d B } F r 0 L s r S ( $ $ $ $ $ ! c.c.c.c.c.c.c.c.c.c.c.c.c.c.d.d.d.p f J i 9 D  .a 4 9 7 p 0 '  .Z p ",
"u p  .2 r G d r s %.Z u P D k S K F Z &.j.$ $ j.B 4 $ $ $ $ $ $ 0.c.c.c.c.c.c.c.c.g.d.d.l ` B F ..%.j s %.@.j 4 9 9 8 p =. .d 1 ",
" .#.H , g u B 7 S ..[ s d u 0 V  .@. ...j.$ $ j.0 9 $ $ $ $ $ $ 0.c.c.c.c.c.c.c.c.g.d.d.a D  . . .U u .. .J 4 0 } f 9 } } A 9 0 ",
"#.} 5 7 i 8 s u d ` ] h 7 d p } $.S S N n.( ( n.9 } ( ( ( ( ( ( y.h.h.h.h.h.h.h.h.c.v.v.p } $.B S j B B B a 9 [ %.B k Z K j u S ",
"} d i k p 8 u u s L j 9 d d s } L s s D ] p j e l S ` B d d [ &.v.d.d.d.d.d.d.d.d.B.B d B } B p s ..B s h p Z P ..h h k H 0 k D ",
"B h d S B 9 u 0 s j 2 9 B Z B B s s s  .o.i 8 H P X.F d H ` [ D v.d.d.d.d.d.d.d.d.B.B Z Z B p p d $.U u q B L P Z h j k a p S D ",
"u p B K 9 k B 1 0 7 7 Z l l Z d H p Z ..@.9 p J j u f H f p H B v.d.d.d.d.d.d.d.d.B.s d Z d Z p F ..X.7 s G j p p p l u d j j p ",
"q u L f 0 $.[ s q 7 s u a k D D u u j K o.u h a.8.8.8.8.8.8.8.8.3.<.<.T T T T T ,.x.p Z ] B k k a ] P u l s u e r r u r j h e r ",
"4 p r 0 [ O.F u < r B 9 9 Z X. .4 e s =.j e f 8._ _ _ _ _ _ _ _ _ _ _ z z z z z z l.0 D O.F S L 8 S y e i 9 2 7 7 4 5 e u 7 2 4 ",
"4 u u Z ` G p 9 9 d u s u ' %.d > S $.G 2 u 0 8._ _ _ _ _ _ _ _ _ _ _ z z z z z z l.p ' &.i k L u j 2 i 0 s d 7 4 2 7 9 u d d u ",
"4 r l d B 0 9 9 u s p B p  ...7 k ;.H 7 l.z z n _ _ _ _ _ _ _ _ b z z z z z v W W % + + P r } ] r 1 4 H 0 ' X.2 > k s B u '  .s ",
"9 p u 0 0 t s D s 9 B D B F g d $.H e ` l.z z n _ _ _ _ _ _ _ m b z z z z z v W W % + + t B %.h 7 D j 7 s } < , 7 Z 0 5 u } s 7 ",
"s u B d 7  .&.B 7 s Z 0 s B F ..o.s ' o.l.b b m _ _ _ _ _ m n n :.1.1.1.1.1.R W W % + + A F P d } o.s 0 S u B < p 0 f p S p ' 9 ",
"u p Z 9 V  .A 0 7 p N 1 B B [  .] O.d i z._ _ _ _ _ _ _ _ n z z k.} j t < p s.W W % + +  .O...[ a u p s a d ` 9 s p ' @.0 s { 9 ",
"u p p k { V 9 < < s 0 p d s %.J Z ..9 u z._ _ _ _ _ _ _ m n z z k.B a , < d s.W W % + + %.N D P u p 9 d 0 ' } s s k } j 7 Z } 9 ",
"l 7 k Z B p 7 1 0 p 0  .B } } 7 S 2.2.2.,._ _ _ _ _ b b b :.k.k.m. .p 1 7 S s.W W % + + [ 9 D  .9 7 s Z d  . .0 l S Z a s  . .4 ",
"B 9 p j s 6 9 Z s u Z ..Z ` r 9 $.z z z b _ _ _ _ _ z z z 1.j p p  .a  .[ s s.W W % + + t d %.d 4 k d 7 s %.Z 0 Z ' s 8 p %.Z 4 ",
"k i u k 7 a D B p s } p u B B A L z z z b _ _ _ _ _ z z z 1.j s G J V o.D 7 s.W W % + + V S F p ' d 9 4 S `  .0 B u 8 1 Z D } p ",
"p 9 ] r 1 B a 9 0 Z D 9 Z D F a S z z z b _ _ _ _ _ z z z 1.O.p O.s f j 7 8 s.W W % + + B s B F ` l 9 k s Z  .u s 4 1 0 d Z  .0 ",
"e d X., u u p 5 s &.V s B 0 7 s H _ _ _ _ _ _ _ _ _ z z z 1.X.7  .y w 9 q q s.W W % + + 9 B Z F D &.p B B S k u 9 , 7 B B Z B < ",
"k $.p 9 u 4 k 9 D X.D p 7 7 9 Z } _ _ _ _ _ _ _ _ _ z z z 1.a s &.t 7 7 7 7 s.W W % + + u S  . . .A s  .O. .1 k f p Z #.}  .9 9 ",
"O.] i 4 > G d 0 a D Z u 9 d M.l.l._ _ _ _ _ _ _ _ _ z z z 1.N.N.N.N.N.N.N.N.y.E E & o O p  . .Z Z B ' } L s 9 #...` } } V B u Z ",
"C l 7 p #.O.4 u s [ p 7 B d 2.z z _ _ _ _ _ _ _ _ _ z z z ,.c.c.c.c.c.c.c.c.9.o o o o o l } H s j A Z B N 7 u } S ..B B j 0 u ' ",
"d f l &.#...s 0 I j 1 0 ` l 2.z z _ _ _ _ _ _ _ _ _ z z z ,.c.c.c.c.c.c.c.c.9.o o o o o Z l s s t s d a p s ` j B B B f a p D B ",
"u j } S H $.e e s < 7  .o.d 2.z z _ _ _ _ _ _ _ _ _ z z z M ^ ^ r.g.g.^ ^ ^ ~ * * @ o o l u l 0 0 N p 7 s  .s a p l s e s } s p ",
"q u k u K X.q u 7 < k %...u 2.z z _ _ _ _ _ _ _ _ _ z z z x ; ; 7.d.d.; ; ; ; ; ; # o o l 0 d 3 u p 8 t [ l 9 j 0 s 1 0 [ j 9 j ",
"7 u i 0 P r 9 4 9 Z ' ` j p 2.z z _ _ _ _ _ _ _ _ _ z z z x ; ; 7.d.d.; ; ; ; ; ; # o o q p 0 1 7 s B V j 0 r 1 8 e   l V h r 6 ",
"l 4 8 s B 1 s ` B B B J a s 2.z z _ _ _ _ _ _ _ _ _ z z z x ; ; 7.d.d.; ; ; ; ; ; # o o 7 p 1 9 s  .B @.4 < p d < 1 p @.d P 4 < ",
"u 7 d h p 9 %.j d u F B D Z 2.z z _ _ _ _ _ _ _ _ _ z z z x ; ; ; ; ; ; ; ; ; ; ; & + + d 0 d } ` D $.J 4 k $.0 > S %.G u @.9 7 ",
"H ..j h u S @.B B s S  .} #.2.z z _ _ _ _ _ _ _ _ _ z z z x ; ; ; ; ; ; ; ; Q ; ; & + + Z p ' d 0  . .f B -.p 1 l &.o.N B %.7 S ",
"=. .k k k G [ o.Z B [  .N { 2.z z _ _ _ _ _ _ _ _ _ z z z c - - - - - - - - - - - # O O  .8 S u u %.I s $.d 0 %.' S h H #.B 9 #.",
"..L O.] ] d o.$.L d [ g p %.2.z z _ _ _ _ _ _ _ _ _ z z z X + + + + + + + + + + + o o o N , S D [  .L S ` Z S &.j s F D F F S %.",
"H L #.%.H L $.=.r d V B D ..2.z z _ _ _ _ _ _ _ _ _ z z z X + + + + + + + + + + + o o o p D -.S  .G S d Z L F U s .. ...Z S G [ ",
"F k O.O.S ' &.G 0 l O.A j s 2.z z b b b b b b b b b z z z Y p.p.0.4.4.9.5.9.5.4.4.t.j.p.} *.*.S X.j f 7 l f F F j L  .J s f B [ ",
"s d L O.L } k h l S s a D ' 2.z z z z z z z z z z z z z z 2. .D v.d.d.c.c.c.h.d.d.B.p [ %.@. .}  .f 7 p B B  .j i S [ s B N [ J ",
"l i B H K j 9 8 p a d D ` { 2.z z z z z z z z z z z z z z 2.F f v.d.d.c.c.c.h.d.d.B.S } ] L  . . .7 p D 0 } ..Z L S Z a 0 '  .7 ",
"k q p h 0 q 9 ..p u D I F Z w.2.2.2.2.2.2.2.2.2.2.2.2.2.2.w.a h v.d.d.c.c.c.h.d.d.B.B Z s D  .F S d d A B %.t s L d p p l $.s 1 ",
"p d r 4 f 0 Z a 9 s ..d B l [ F B G  .j r 0 { D 0 7 L p u F d s v.d.d.c.c.c.h.d.d.B.s B X.B G H  .a 9 s { D 7 0 L u 2 9 [ L 0 7 ",
"i ] , , q a h 7 r ` P u S S d s Z Z J ..7 0 B B u u h 2 s Z  .a v.d.d.c.c.c.h.d.d.B.D F d a B S L F 7 u B B 7 0 i 2 7 s Z Z 0 0 ",
"u O.h 4 9 u s h B %.u u j q 7 B B ....%.l B ` Z B 9 p 0 S %.P u v.d.d.c.c.c.h.g.g.b.B.B.4 N F D X.=.s Z D L p 4 p 0 u S ` L p 7 ",
"k O.l 4 1 7 d u [ Z 7 p 9 9 0 F %.@.} A s  .@.@.u 9 ] L [ @.f s v.d.d.c.c.c.c.c.c.g.d.d.9 F %. .} B d %.@.@.0 u [ k S #.@.@.9 9 ",
"} L 8 < , U p p Z d 0 u u Z s }  .B B B ' } G B u S } S S j a &.v.d.d.c.c.c.c.c.c.g.d.d.s  .} Z Z V } { G d p ` ..' } { G l p S ",
"l l 1 k &.o.2 d p G d 7 B B k [ B s s B B B j 0 p ` l K j F $.$.6.B.B.V.V.V.V.V.V.B.B.B.B [ d d a B k k d 9 s ` B S k l j 0 p ` "
};
