/* XPM */
static char *_776ed6912084572c366e38ccaebfecelV0wtjFztplGeobi[] = {
/* columns rows colors chars-per-pixel */
"64 64 166 2 ",
"   c #0F3E07",
".  c #103F06",
"X  c #1B3B1E",
"o  c #38220F",
"O  c #332B14",
"+  c #27381B",
"@  c #480000",
"#  c #500601",
"$  c #530901",
"%  c #5A140C",
"&  c #4C0D13",
"*  c #5A1B17",
"=  c #6D1F06",
"-  c #62190A",
";  c #4D2C15",
":  c #712407",
">  c #6C2916",
",  c #6D2D1D",
"<  c #62221A",
"1  c #5F2930",
"2  c #7D3C22",
"3  c #6C3C33",
"4  c #0F4206",
"5  c #134406",
"6  c #164906",
"7  c #1B4D06",
"8  c #1B4D08",
"9  c #144709",
"0  c #1E5105",
"q  c #1F5008",
"w  c #204F05",
"e  c #235505",
"r  c #265A04",
"t  c #2A5D06",
"y  c #245508",
"u  c #285708",
"i  c #265908",
"p  c #2B5B08",
"a  c #315F08",
"s  c #315F07",
"d  c #2D6105",
"f  c #2E6108",
"g  c #326506",
"h  c #366905",
"j  c #3A6C06",
"k  c #346408",
"l  c #39660A",
"z  c #366808",
"x  c #3B6B08",
"c  c #386707",
"v  c #3E7105",
"b  c #3F7008",
"n  c #144B26",
"m  c #01552C",
"M  c #0A552B",
"N  c #1D5528",
"B  c #025F30",
"V  c #2A4721",
"C  c #355222",
"Z  c #036331",
"A  c #067237",
"S  c #077638",
"D  c #077C3A",
"F  c #156730",
"G  c #5A4015",
"H  c #6B4F19",
"J  c #7B4E15",
"K  c #406F09",
"L  c #437506",
"P  c #467A06",
"I  c #467906",
"U  c #4A7D06",
"Y  c #4D7E07",
"T  c #4A7C06",
"R  c #447408",
"E  c #497709",
"W  c #477808",
"Q  c #4E7E09",
"!  c #4B7B08",
"~  c #487707",
"^  c #517F0A",
"/  c #4D5438",
"(  c #3F6F46",
")  c #207C4D",
"_  c #75464D",
"`  c #507D54",
"'  c #7A7C5A",
"]  c #647A6B",
"[  c #853509",
"{  c #A04D0E",
"}  c #804435",
"|  c #834C41",
" . c #824D48",
".. c #84524D",
"X. c #835357",
"o. c #895859",
"O. c #857455",
"+. c #A57257",
"@. c #89616A",
"#. c #89616A",
"$. c #976D6B",
"%. c #08813C",
"&. c #4E8105",
"*. c #4F8008",
"=. c #538406",
"-. c #568905",
";. c #5A8C06",
":. c #508108",
">. c #538408",
",. c #5B8B08",
"<. c #578808",
"1. c #5E9105",
"2. c #5E9106",
"3. c #639506",
"4. c #669905",
"5. c #6B9D06",
"6. c #639408",
"7. c #3B9253",
"8. c #549A5E",
"9. c #52905B",
"0. c #518857",
"q. c #559E69",
"w. c #518C75",
"e. c #57937A",
"r. c #58A572",
"t. c #B7896E",
"y. c #BA8C6E",
"u. c #B78D76",
"i. c #B18977",
"p. c #9DBD64",
"a. c #9FA57D",
"s. c #8AA865",
"d. c #5BB086",
"f. c #77BF9E",
"g. c #BC9582",
"h. c #BB9888",
"j. c #BC9D92",
"k. c #AD8D8B",
"l. c #89A689",
"z. c #A1B482",
"x. c #BBBA97",
"c. c #B39BA4",
"v. c #91BBB0",
"b. c #BAA6B0",
"n. c #BEA9B0",
"m. c #ACBABA",
"M. c #CCA88D",
"N. c #D9BAA0",
"B. c #95CEB7",
"V. c #A3C2BF",
"C. c #EDCDA5",
"Z. c #EFD3AF",
"A. c #E6CCB1",
"S. c #F1D8B9",
"D. c #F1D7B6",
"F. c #C6B8C1",
"G. c #AED0CB",
"H. c #B0DECF",
"J. c #DAD4DE",
"K. c #F3DEC2",
"L. c #F5E2CC",
"P. c #F3E6DA",
"I. c #F7ECDC",
"U. c #CBEAE6",
"Y. c #FCF8F2",
"T. c #FEFEFC",
/* pixels */
"v f ! 3.<.j k h t v r g :.L L j x h f h v k f j *.b x L <.=.U I x Y :.v L e e d 7 h Y L R j x g f h h g t L :.j j L I p g v *.x ",
"b g U Y ! k f d e t g 2.<.L v f z d y v g y J.#.#.#.#.#.#.#.#.#.#.#.#.#.#.#.#.#.h 3.:.L v f v r p L f e L -.g h z j g u v -.g g ",
"t d j j L c g r 7 0 U 2.! d j t v 4 f &.d f F.& & & & & & & & & & & & & & & & & -.;.R t j p h 5 h U t k <.t t g t g 8 t :.z t z ",
"t t t f ! e 7 r t I U Y s g e g i d &.f j v F.& & & & & & & & & & & & & & & & & Y ! a g q z e g P g l L L v e 7 r e . R L j p 7 ",
"U 0 t z P i v Y j L L E j h r t h v 9 #.& & & & & & & & & & & & & & & & & & & & & & & & & & F.j 9 v &.<.j ! 6 7 6 7 L ;.j ^ e 7 ",
"g t x z f h 5.h j g ! ~ ! U j g v j P #.& & & & & & & & & & & & & & & & & & & & & & & & & & F.j I :.3.x j <.t 5 6 <.3.c r ;.t t ",
"&.<.z v t U <.Y L h T 1.>.2.Y x z -.z #.& & & & & & & & & & & & & & & & & & & & & & & & & & F.^ h 2.*.s &.;.r t I 3.Y K U 1.r U ",
"3.<.P R L L <.<.! x -.<.l &.,.y h v v #.& & & & & ..K.K...& & ..L.S.h.& & & & & & & & & & & & & & 3.R j ;.j r 4.&.L k I ;.I d 4.",
"R Y <.<.:.j <.<.j j &.k x 3.x g <.<.2.#.& & & & & ..K.K...& & ..K.K.h.& & & & & & & & & & & & & & >.=.Y Y Y &.3.j v ^ Y ! Y &.3.",
"L L <.3.x ! ! L i h x Y ! R j 2.5.*.<.#.& & & & & ..K.K...& & _ K.K.h.& & & & & & & & & & & & & & -.<.L I L E Q j :.L z I I ~ :.",
"I j =.<.! z h h z j *.R h L U ,.J.#.#.1 & & * , , } +.+.u.h.h.i.....$.u.h.| , , , , , < & & & & & 2.E g x a <.L k z z h j a =.Y ",
"j v K -.Q j f U ;.x f d &.L U 2.F.& & & & & * 2 2 } 2 J M.K.K.h.& & ..L.K.+.2 2 2 2 2 , & & & & & ! v f f v U u t L j h f j Y L ",
"&.h k :.b R j 4.R e e =.-.p &.! F.& & & & & % } 2 } 2 2 M.K.K.g.& & ..K.K.+.J 2 2 2 2 , & & & & & x ^ z h U p 6 -.-.6 7 j U f r ",
"U g v x R h &.P j 7 v ;.z e L j F.& & & & & ..K.D.S.S.S.K.K.K.K.K.K.K.K.K.K.K.K.K.K.K.h.& & & & & s 3.6.k t f U =.1.g v l f g I ",
"e U x k I I R x 7 0 L j r r L :.N.& & & & & ..K.K.K.K.K.K.K.K.K.K.K.K.K.K.K.K.K.K.K.K.h.& & & & & Y 4.>.f h j ! -.<.j <.f g j ! ",
"d L p f g I ^ h L g g f j I F.F.c.#.#.1 & & ..K.K.A.M.M.A.K.K.K.K.K.K.K.K.N.M.M.K.K.K.h.& & _ #.#.F.F.F.J.t t &.<.j L j c t t g ",
"j R v d d ;.<.2.K s K t r ! & & #.0 ! #.& & ..K.K.M.2 2 M.K.K.K.K.K.K.K.K.+.2 2 K.K.K.h.& & F.e ! & & & #.7 j R x v y k k r h u ",
"g b v :.I -.R k r j L 6 r j & & #.t j #.& & ..K.K.M.2 2 M.S.K.K.K.K.K.K.K.+.2 2 K.K.K.h.& & F.g L & & & #.0 t r z e t k g 6 0 r ",
"p k v -.j L k e y j g 0 g -.& & #.j L #.& & ..K.K.M.2 2 M.K.K.K.K.K.K.K.K.+.2 2 K.K.K.h.& & F.j ^ & & & #.7 j e 8 6 z t r 7 v d ",
"t h g I L p 5 e r r h &.Y 3.F.F.J.j U #.& & ..K.K.A.M.M.A.L.K.K.K.K.K.K.K.N.M.M.K.K.K.h.& & F.k L F.F.F.J.:.,.8 5 f f e d &.3.L ",
"0 k f Y f p h :.e f -.Y &.! p L =.p g #.& & ..K.L.S.L.K.K.K.K.K.K.K.K.K.K.K.K.K.K.K.K.h.& & F.t g g g j j 4.j y 7 p h L v 3.:.j ",
"t y :.b 7 <.;.g 0 :.<.g ! j ~ -.! p t #.& & ..K.S.L.K.K.K.K.K.K.K.K.K.K.K.K.K.K.K.K.K.h.& & F.g k R t p Y -.c 0 r r g t &.1.L g ",
"d g ,.q u L j p h 3.L d Y Y L U F.& & F.L h F.& & | C.C.S.K.K.K.K.K.K.K.K.Z.C.C.& & & #.L Y #.& & 6.j h 6.;.x 0 r r r g 3.;.j 7 ",
";.;.K 5 x g L e U =.=.j j t r ~ F.& & F.g Y F.& & | C.C.S.K.K.K.K.K.K.K.K.Z.C.C.& & & #.g Y #.& & ^ t :.;.E 0 t -.g t =.-.T r t ",
"1.-.0 e f r h f j Y &.h r h g -.J.#.#.J.v I J.#.#.k.L.L.S.S.S.S.S.S.S.S.S.K.L.L.#.#.#.c.g -.c.#.#.x v I I g t *.3.L L I P l d &.",
"-.v f v f p t g g U x r h K h -.! h j U Q g x i L ! &.R L.C.C.C.C.C.C.C.C.Y.z f E r v v v -.L f j =.L g k f I Y =.l z v R p v U ",
"I k j U L r d t j x 8 r L I L L h h j -.<.d t b Q <.I v L.C.C.C.C.C.C.C.C.Y.r t L r L L I L z g j ;.:.f u L Y Y I z j v z g U Y ",
"d k L I t v v 7 t y e I j L I j R g L &.<.i g ! x f f R L.C.C.C.C.C.C.C.C.Y.t t &.L j j L v L g ! :.<.0 x R x k k d v f j j x g ",
"y f U k u 3.=.j 7 e h d h L Y Y d d h B.d.d.d.d.d.d.d.d.q.q.8.9.` ` 0.8.8.r.d.d.d.d.d.d.d.d.U.R h Y Q t v h f t t u d f x x e t ",
"0 g u t =.-.I d 6 t v t r I >.<.8 i j d.%.%.%.%.%.%.%.%.%.%.%.A m m Z %.%.%.%.%.%.%.%.%.%.%.H.! t Y k y f e 7 0 y 0 q u f e 8 e ",
"0 t f I &.R g t r j g g d &.3.j 4 &.2.d.%.%.%.%.%.%.%.%.%.%.%.A m m B D %.%.%.%.%.%.%.%.%.%.H.! d x 8 f d h j y 0 8 0 r f j j t ",
"0 t v v L t r r g g g L g -.<.e H.%.%.%.%.%.%.%.%.A m m m m m w.h K G.m m m m m %.%.%.%.%.%.%.%.%.7 0 R t &.<.8 4 v h L d &.2.g ",
"t g f t s s h Y g r L I I I z j H.%.%.%.%.%.%.%.%.A m m m m M w.e L V.m m M m m %.%.%.%.%.%.%.%.%.^ x y h -.6 4 0 I t y d -.h r ",
"g d L j w ;.4.L e h U t j K H.H.f.%.%.S A A A A A F C C V X X ] j -.m.X X V C C A A A A A A D %.%.H.H.H.U.f L 7 g f f g I g &.r ",
"d g I r ~ ;.~ t r g K 0 v I %.%.%.%.%.Z m m m m m C { { = # $ o.<.<.n.$ $ [ { { m m m m m m A %.%.%.%.%.d.v &.t h g &.;.d h =.e ",
"g f h v &.~ r 6 6 g t g K g %.%.%.%.%.Z m m m m m C { { = $ $ o.g R n.# $ [ { { m m m B m m A %.%.%.%.%.d.&.-.g g v -.b r U =.r ",
"v e v I I g e 7 t g d ;.I -.%.%.S Z Z + o o ; H H J { { = $ $ o.k <.n.# $ [ { { H H H G o o n Z Z %.%.%.d.2.;.t v I T c g ;.-.e ",
"v t g x h w r I j t L :.I &.%.%.A m m o $ $ = { { { { { = $ $ o.k ,.n.# $ [ { { { { { [ $ $ X m m %.%.%.d.3.I t L &.c r d 4.I 0 ",
"P d f v e g U L g g -.g d L %.%.A m m o $ $ = { { { { { = $ $ o.W W b.# $ [ { { { { { [ $ $ X m m %.%.%.d.Q ;.t L g r 7 I Y -.s ",
"z 0 *.t 7 L j r t I =.r I U %.%.A m m o $ $ = { { { { { = $ $ o.<.h N.$ $ [ { { { { { [ $ $ X m m %.%.%.d.P <.g h 0 7 t j L ;.d ",
"0 j <.9 d d g 0 j 4.~ h R s m m w.*.&.o.$ $ = { { { { { : $ $ o.,.f n.$ $ [ { { { { { [ $ $ N.E Y m m m e.U v g i 6 e I v I L 6 ",
"v 1.k r d 0 v r U >.Y g r e m m w.2.;.o.$ $ = { { { { { : $ $ o.4.f n.$ $ [ { { { { { [ $ $ b.:.;.m m m e.-.7 v g s I 1.-.;.r r ",
"<.*.k 0 5 L z d h Y ! t r j m m w.P U X.# # % [ [ : [ [ - # # 3 b.n.$.# @ : [ 2 [ [ [ : @ $ n.I I m m m e.j r ;.:.&.-.-.~ L g I ",
"P b 0 g ;.<.0 d h =.g e j j m m w.g z X.@ @ @ @ @ @ @ @ @ @ @ @ @ @ @ @ @ @ @ @ @ @ @ @ @ @ b.h j m m m e.e d <.U :.L L j t d U ",
"j k j 4.2.:.z p ! x 7 r &.j m m w.h g X.@ @ @ @ @ @ @ @ @ @ @ @ @ @ @ @ @ @ @ @ @ @ @ @ @ @ n.h g m m m e.h *.x K L I k k g Y L ",
"d x -.U L 6.r r j 7 v.e.e.e.A A q.P.P...@ @ $ > > > > > > > > > > , > > > > > > > > > > # # j.P.P.A A A ) e.e.U.z v h y h ;.j g ",
"y d L f I <.e f 0 6 e.m m m %.%.q.K.S.| @ @ % 2 2 2 2 2 2 2 2 2 2 2 2 2 2 2 2 2 2 2 2 > $ $ g.K.S.%.D %.A m m G.t h 0 p :.j e j ",
"e d p t Y p e e t L e.m m m %.D q.K.L.| @ @ % 2 2 2 2 2 2 2 2 2 2 2 2 2 2 2 2 2 2 2 2 > $ $ g.K.L.%.%.%.A m m G.r r . j ! x u w ",
"v 0 t z I 7 h U L L e.m m m %.%.q.K.K._ # # % 2 2 2 2 2 2 2 2 2 2 2 2 2 2 2 2 2 2 2 [ > $ $ u.L.S.%.%.%.A m m G.6 6 z -.j ^ e 6 ",
"f e x z d r 3.j j f e.m m m %.%.8.C.C.2 @ @ & 2 2 2 2 2 2 2 2 > @ @ % 2 2 2 2 2 2 2 2 > $ $ y.C.C.%.%.%.A m m G.4 Y 3.R t ,.r e ",
"v :.x g t &.<.L L h e.m m m %.%.8.C.C.3 @ @ % J 2 2 2 2 2 2 } > @ @ & 2 2 2 2 2 2 2 2 > $ $ y.C.C.%.%.%.A m m G.v 5.=.K L ;.e I ",
"4.,.v v L R <.>.! L e.m m m %.%.9.z.z.3 @ @ % > > > > > > > : ; O O ; > > > > > , , > < # $ O.z.z.%.%.%.A m m G.:.U k R 3.I r 3.",
":.Q <.*.>.x >.2.I j e.m m m %.%.%.%.%.O @ @ @ @ @ @ @ @ @ @ @ O %.%.N @ @ @ @ @ @ @ @ @ @ @ N %.%.%.%.%.S m m G.j j ! Y I Y U 3.",
"b Y 2.4.R P 1.6.t j e.m m m %.%.%.D %.O @ @ @ @ @ @ @ @ @ @ @ O %.%.N @ @ @ @ @ @ @ @ @ @ @ N %.%.%.%.%.S m m G.j =.-.:.I U R >.",
"P R -.=.U &.1.R t L e.m m m Z Z Z Z B n X X / t.t.u.g.g.u.t.t.' Z Z ( t.t.u.g.g.t.t.t.O.X X M Z Z Z Z Z B m m G.z ! -.~ j k I >.",
"z x Y *.Y -.R z v U e.m m m m m m m m m m m ` C.C.Z.K.K.Z.C.C.a.m m ` C.C.S.K.K.C.C.C.a.m m m m m m m m m m m G.t ! <.j j K -.L ",
"v p L L I j u r g k e.m m m m m m m m m m m ` C.C.Z.K.K.Z.C.C.z.m m ` C.C.S.K.K.C.C.C.a.m m m m m m m m m m m G.U U I h d &.;.e ",
"b y g z t y p :.g d v.e.e.e.e.e.e.e.e.e.e.e.l.C.C.Z.K.K.Z.C.C.x.e.e.l.C.C.S.K.K.C.C.C.x.e.e.e.e.e.e.e.e.e.e.w.U.! j g d v 2.x 7 ",
"k h p w s g L z t h :.j L j <.I L R -.j p d Y.C.C.Z.K.K.Z.C.C.L.U P Y.C.C.S.K.K.C.C.C.L.=.I R I ;.z p g <.T e p ! t q t =.Q r e ",
"d >.6 5 e g z e y =.Q d &.! j j I I ! :.y t Y.C.C.Z.K.K.Z.C.C.K.,.g Y.C.C.S.K.K.C.C.C.L.j g L ! ! U e t ~ L r t f 7 e g I R t t ",
"d <.z 0 r t h j L 3.g d x e 0 L E :.^ p.Y.Y.I.Z.Z.D.K.K.Z.C.C.P.2.a Y.C.C.S.K.K.Z.Z.Z.L.Y.Y.I ^ =.3.h I :.! g 0 g t d U &.! g e ",
"v <.b 0 7 y j f <.I 0 g r r t Y 1.,.-.L.C.C.Z.K.K.K.K.K.Z.C.C.K.4.t Y.C.C.S.K.K.K.K.K.S.C.C.Y.-.-.~ j 3.<.;.t d =.v U 1.<.,.r r ",
"<.P p 5 6 T z g L j t d d I h -.-.L K L.C.C.Z.K.K.K.K.K.Z.C.C.K.2.x Y.C.C.S.K.K.K.K.K.S.C.C.Y.I I I =.=.R j g &.=.&.-.=.R v d U ",
"j L 7 v 4.:.8 j g L j e L L v =.R j l s.Y.Y.Y.T.T.T.T.T.T.Y.Y.p.! ! ;.Y.Y.T.T.T.T.T.T.Y.Y.Y.K h z I v v x r h Y L U j R x t h &."
};
