/* XPM */
static char *_71dfbd4bf7b43c4c451cfee648f06498kziS84Ia69ThEQg[] = {
/* columns rows colors chars-per-pixel */
"64 64 152 2 ",
"   c #0F3E07",
".  c #103F06",
"X  c #4D0A09",
"o  c #602627",
"O  c #0E4106",
"+  c #134406",
"@  c #164906",
"#  c #1B4D06",
"$  c #144709",
"%  c #1B4D08",
"&  c #1E5105",
"*  c #1F5008",
"=  c #204F05",
"-  c #235505",
";  c #265A04",
":  c #2A5D06",
">  c #245508",
",  c #285708",
"<  c #265908",
"1  c #2B5B08",
"2  c #315F07",
"3  c #315E08",
"4  c #2D6105",
"5  c #2E6108",
"6  c #326506",
"7  c #386707",
"8  c #366905",
"9  c #3A6C06",
"0  c #346408",
"q  c #39660A",
"w  c #366808",
"e  c #3B6B08",
"r  c #3E7105",
"t  c #3F7008",
"y  c #025323",
"u  c #035D27",
"i  c #046128",
"p  c #07712E",
"a  c #087530",
"s  c #097F33",
"d  c #406F09",
"f  c #437506",
"g  c #487707",
"h  c #427805",
"j  c #447806",
"k  c #477907",
"l  c #467B06",
"z  c #477A05",
"x  c #477C06",
"c  c #467906",
"v  c #487D02",
"b  c #487A06",
"n  c #4B7B07",
"m  c #4A7807",
"M  c #497D04",
"N  c #4A7E05",
"B  c #497C06",
"V  c #4B7D07",
"C  c #4A7E05",
"Z  c #4D7F07",
"A  c #4E7F07",
"S  c #4C7D07",
"D  c #4A7C06",
"F  c #407108",
"G  c #437408",
"H  c #467509",
"J  c #467509",
"K  c #447408",
"L  c #497709",
"P  c #477808",
"I  c #487908",
"U  c #4B7B08",
"Y  c #4B790A",
"T  c #4D7D09",
"R  c #4F7F09",
"E  c #4B7B09",
"W  c #517F0A",
"Q  c #217B46",
"!  c #517C4D",
"~  c #517D51",
"^  c #824B3C",
"/  c #855249",
"(  c #896064",
")  c #896064",
"_  c #4A8001",
"`  c #4E8303",
"'  c #4E8106",
"]  c #4E8105",
"[  c #4F8008",
"{  c #508206",
"}  c #508007",
"|  c #538506",
" . c #538606",
".. c #548506",
"X. c #558606",
"o. c #538406",
"O. c #578B05",
"+. c #568906",
"@. c #598A07",
"#. c #5B8E06",
"$. c #5D8F06",
"%. c #5A8D06",
"&. c #508108",
"*. c #518208",
"=. c #558309",
"-. c #558509",
";. c #568609",
":. c #538308",
">. c #578808",
",. c #5A8908",
"<. c #5B8B08",
"1. c #5C8C08",
"2. c #5B8B08",
"3. c #5E9105",
"4. c #5F9206",
"5. c #5E9205",
"6. c #5E9106",
"7. c #639606",
"8. c #639605",
"9. c #649705",
"0. c #629506",
"q. c #659806",
"w. c #669A05",
"e. c #669905",
"r. c #6C9F06",
"t. c #6A9B07",
"y. c #639408",
"u. c #3D865E",
"i. c #528258",
"p. c #559858",
"a. c #558A68",
"s. c #569762",
"d. c #589175",
"f. c #8AA865",
"g. c #9FBE64",
"h. c #9D7D83",
"j. c #76AA92",
"k. c #A3B991",
"l. c #B39AA0",
"z. c #91BAAC",
"x. c #C6B7BE",
"c. c #EDCCA1",
"v. c #EFD2AB",
"b. c #F1D6B2",
"n. c #F1D8B6",
"m. c #AECFC8",
"M. c #DAD3DD",
"N. c #F3DDC0",
"B. c #F5E1C9",
"V. c #CAE4E3",
"C. c #FCF8F2",
"Z. c #FEFEFB",
/* pixels */
"r 5 U 8. .e w 8 : 9 ; 6 } f f r e 9 : 8 r 2 2 9 } 9 7 j >. .Z b 7 A } f f - - 4 # 8 U f f r w w 5 w 9 1 : h A 7 9 f h 1 6 r [ 9 ",
"t 6 M Z U 6 0 5 < : 6 3.=.f r 6 9 : < G 6 < ) ) ) ) ) ) ) ) ) ) ) ) ) ) ( ( ) ) 0 8.-.r r 1 r ; ; f 6 ; G @.6 8 8 r 6 , r ,.6 8 ",
"1 6 9 9 G 7 5 ; # & M 0.Y : 9 ; 9 $ 6 M 6 : X X X X X X X X X X X X X X X X X X #.3.J 5 r 1 8 O 7 j 1 6 ..: ; 8 : 0 # : } 6 : 6 ",
"; : : 5 b < # ; ; j M Z 6 6 > 6 : : b 6 7 r X X X X X X X X X X X X X X X X X X E M 1 6 * 6 , 8 U 8 w F g 9 < & ; >   G f G , % ",
"x & : w k < r Z e G f H 7 7 ; 5 8 9 $ ) X X X X X X X X X X X X X X X X X X X X X X X X X X 6 7 $ r Z ;.7 E # @ @ # F <.7 Z - # ",
"6 : e w 5 8 r.8 7 8 b b Z M 9 6 f 9 h ) X X X X X X X X X X X X X X X X X X X X X X X X X X F 9 j o.9.e 9 1.; + $ +.w.q : $.: : ",
"` ;.e r : M ,.Z j 8 n $.;.$.b e 8 +.8 ) X X X X X X X X X X X X X X X X X X X X X X X X X X 8 ] 8 3.E : _ 3.; : M 8.A d M 3.; M ",
"y.;.x G f G  .,.U 9 @. .q ] 1., 6 F h ) X X X X X X X X X X X X X X X X X X X X X X X X X X X X ) 8.J r 3.7 ; w.Z h 7 f #.h 4 w.",
"U [  .;.*.9 -.2.e r ] q w 8.e 8 #.+.$.) X X X X X X X X X X X X X X X X X X X X X X X X X X X X ) =. .n M U ] 9.7 G } Z b Z ] 9.",
"F f  .8.e b U j < 8 e U M J e $.r.*.@.) X X X X X X X X X X X X X X X X X X X X X X X X X X X X ) <.;.f k k U E 7 ] G 8 b b L *.",
"j 9 o.,.U w 7 7 0 r [ G 8 G M 1.M.( ( o X X X X X X X X X X X X X X X X X X X X X X X X X X X X ) $.f 8 e 0 +.G 6 8 q 8 9 3 } Z ",
"9 r d #.[ w 5 M #.w 0 : ] G M 3.x.X X X X X X X X X X X X X X X X X X X X X X X X X X X X X X X ) U G 5 1 r U , : j e 8 5 9 Z J ",
"] w 8 *.e G 9 q.J - - o.+., ] b x.X X X X X X X X X X X X X X X X X X X X X X X X X X X X X X X ) q A 8 7 M 1 $ +.+.@ & 8 M 0 < ",
"x 8 r e k 7 _ U w # r #.w < G e x.X X X X X X X X X X X X X X X X X X X X X X X X X X X X X X X ) 0 9.y.0 : 0 M o.$.6 G w 5 6 z ",
", M q 0 b f G w # & h 9 ; ; f } x.X X X X X X X X X X X X X X X X X X X X X X X X X X X X X X X ) A q.=.5 8 d j +. .9  .: 8 7 b ",
": j 1 : 8 j *.9 f 6 6 6 7 x.x.x.l.( ( o X X X X X X X X X X X X X X X X X X X X X X X X X X ) ) h.x.x.M.7 ; 4 ` ;.d G 9 7 1 : 8 ",
"e f r 5 4 #.@.$.d : d : - X X X ) & b ) X X X X X X X X X X X X X X X X X X X X X X X X X X & - x.X X ) : # 8 K e r , 6 0 ; 8 , ",
"0 F r *.j +.J 8 : e h # - X X X ) 5 7 ) X X X X X X X X X X X X X X X X X X X X X X X X X X O 6 x.X X ) ; & : ; 8 > 1 w 6 @ & - ",
"; q r  .9 f 3 - < 7 6 & 6 X X X ) 7 z ) X X X X X X X X X X X X X X X X X X X X X X X X X X # 7 x.X X ) - # 7 < # $ q ; ; # r 4 ",
": w 8 j f : . - ; ; 8 ] Z x.x.x.M.9 b ) X X X X X X X X X X X X X X X X X X X X X X X X X X z q k.x.x.M.- ] $.% + 6 5 - 4 ] 8.f ",
"& 0 0 E 6 1 9 } < : @.Z ] Z 1 f  .1 6 ) X X X X X X X X X X X X X X X X X X X X X X X X X X M ; 6 6 4 9 9 q.9 - & : 8 F r 0.} 9 ",
"; , *.t # =.$.6 & } +.6 b 7 g +.b 1 : ) X X X X X X X X X X X X X X X X X X X X X X X X X X f 6 2 L 5 < Z $.7 & ; ; 6 : ` $.G 6 ",
"4 8 1.% , G 9 ; 7 9.z 4 E ] r M x.X X x.G 8 X X X X X X X X X X X X X X X X X X X X ) ] G Z X X ) 9.e 8 0.<.w & ; ; - 6 0.<.9 # ",
"O.O.F + e 6 G > b o.o.8 9 5 : g x.X X x.6 ` X X X X X X X X X X X X X X X X X X X X ) 4 6 n X X ) W 1 o.@.L - : +.0 : +.O.b : : ",
"5.+.& , 5 ; 8 4 9 E *.w - 9 6 +.M.( ( M.h h ( ( ( ( ( ( / ^ ^ ^ ^ ^ ^ ^ ^ ( ( ( ) ) l.F 8 +.) ) l.d r f f 8 ; o.0.f f h U w 4 ] ",
"O.r : 9 0 : : 6 6 M w ; 8 F 8 O.M 7 9 E U 8 w , G E ] f B.c.c.c.c.c.c.c.c._ 8 5 b ; r F r +.f 6 7 } f 8 q 6 l [ o.q 8 r F : r Z ",
"h q 9 M f ; 4 : 7 e % ; F z f f 0 8 9 #.-.4 1 t [ o.U r B.c.c.c.c.c.c.c.c.: < : f ; f h h h 7 8 r $.*.5 > f U E h w 7 r q 6 M E ",
"4 0 f U ; r f # : < - b 9 G b 9 f 8 f ] ,.< 6 k e 5 0 F B.c.c.c.c.c.c.c.c.8 : : } f 9 9 h 9 F 6 j ] ;.- 7 K e 6 0 6 r 5 9 e e 8 ",
"> 5 M 0 , 0.o.8 - - 8 6 6 F A Z 4 4 e z.d.d.d.d.d.d.d.d.s.p.p.p.p.p.p.p.p.d.d.d.d.d.d.d.d.d.e r 7 ] E 5 r 8 5 1 , ; : 5 7 q ; < ",
"& 6 , : o.>.z 6 $ : h : ; h ..<.& < 9 d.y y y y y y y y p s s s s s s s s y y y y y y y y y x J : Z 0 , 5 < # & < > * ; 6 < % - ",
"& : 5 f ] G 6 ; ; 9 6 6 2 N 8.e O x 4.d.y y y y y y y y p s s s s s s s s y y y y y y y y y f U 6 e @ 5 1 8 7 ; & % & ; 5 9 9 5 ",
"& : r G f 5 ; - 4 8 4 h 6 O...- m.y y p s s s s s s s s s s s s s s s s s s s s s s s s s s y y d.& * F : ` >.% O r 8 G 4 ` #.6 ",
"; 4 5 : 2 2 8 n 6 : F M M m 6 d m.y y p s s s s s s s s s s s s s s s s s s s s s s s s s s y y d.] e ; 8 +.% + & h ; > 4  .7 ; ",
"8 5 f 9 = #.8.f - 8 n : 7 m.m.m.j.i i a s s s s s s s s s s s s s s s s s s s s s s s s s s i i u.m.m.V.b 6 G @ 8 : 6 6 j 8 N ; ",
"4 8 z ; g #.m : - 6 d # r y y y i s s s s s s s s s s s s s s s s s s s s s s s s s s s s s s s p y y d.8 9 { ; 8 6 b @.: 8 ..- ",
"6 5 8 r ` g ; @ + 8 : 8 9 y y y i s s s s s s s s s s s s s s s s s s s s s s s s s s s s s s s p y y d.: ` +.6 8 G +.d - M +.: ",
"9 - r j h 6 - # 4 8 : O.h y y y i s s s s s s s s s s s s s s s s s s s s s s s s s s s s s s s p y y d.7 5.#.: 9 M n 7 8 #.%.- ",
"f ; 8 e 8 = - M 8 4 h } h y y y i s s s s s s s s s s s s s s s s s s s s s s s s s s s s s s s p y y d.6 8.z ; f ` 7 ; 4 8.h # ",
"G 4 6 9 - 8 M G 6 7 O.6 4 y y y i s s s s s s s s s s s s s s s s s s s s s s s s s s s s s s s p y y d._ [ $.4 f 6 ; # g A %.2 ",
"8 - *.< = r 8 : : g N : M y y y i s s s s s s s s s s s s s s s s s s s s s s s s s s s s s s s p y y d.w j ,.5 w & # : 9 h #.: ",
"< 8 ;.$ ; 4 8 - 9 8.g 8 G y y y i s s s s s s s s s s s s s s s s s s s s s s s s s s s s s s s p y y d.G Z r 6 < $ - h F M d @ ",
"r 5.8 - 4 & r - n ..A 6 - y y y i s s s s s s s s s s s s s s s s s s s s s s s s s s s s s s s p y y d.>.O.# 9 6 6 z 3.O.%.: - ",
">.[ 0 & + f 8 5 8 A b : - y y y i s s s s s s s s s s s s s s s s s s s s s s s s s s s s s s s p y y d.g 9 ; #.} { O.+.g F 4 z ",
"l t & 6 #.;.& 6 8 ..8 - F y y y i s s s s s s s s s s s s s s s s s s s s s s s s s s s s s s s p y y d.e - 6 +.b } h G e : 4 ` ",
"9 8 9 9.$.*.8 ; b e # : ` y y y i s s s s s s s s s s s s s s s s s s s s s s s s s s s s s s s p y y d.8 8 E e G f j 0 8 6 N f ",
"5 w +.M f 0., , 7 # z.d.d.p p p a s s s s s s s s s s s s s s s s s s s s s s s s s s s s s s s a p p Q d.d.V.8 6 r 8 , 8 <.7 6 ",
"< 6 f 5 j ;.> 6 - + d.y y s s s s s s s s s s s s s s s s s s s s s s s s s s s s s s s s s s s s s s p y y m.7 : 8 % :  .9 ; 7 ",
"- : 5 5 E 1 - & : h d.y y s s s s s s s s s s s s s s s s s s s s s s s s s s s s s s s s s s s s s s p y y m.% ; < . e U 7 , - ",
"r # ; 8 f # 7 ] f f d.y y s s s s s s s s s s s s s s s s s s s s s s s s s s s s s s s s s s s s s s p y y m.9 @ % 6 1.9 E - # ",
"5 < e 8 6 ; q.7 9 5 d.y y s s s s s s s s s s s s s s s s s s s s s s s s s s s s s s s s s s s s s s p y y m.; O b 9.K : ,.; - ",
"G *.e 8 : M @.f f 8 d.y y s s s s s s s s s s s s s s s s s s s s s s s s s s s s s s s s s s s s s s p y y m.# r t.;.d h 0.& M ",
"8.<.r F f J  .;.x f d.y y s s s s s s s s s s s s s s s s s s s s s s s s s s s s s s s s s s s s s s p y y m.0.} M q F 3.j ; 5.",
"W E >.[ *.w =.1.j 9 d.y y s s s s s s s s s s s s s s s s s s s s s s s s s s s s s s s s s s s s s s p y y m.t.e 9 M Z b n N 0.",
"F M 3.8.J U 8.y.: 9 d.y y s s s s s s s s s s s s s s s s s s s s s s s s s s s s s s s s s s s s s s p y y m.} 9 o.,.} f Z K  .",
"j j >.;.M ] 8.K 5 r d.y y i i i i i i i i i i i i i i i i i i i i i i i i i i i i i i i i i i i i i i u y y m.j w k +.g 7 q G >.",
"7 9 U o.M +.F w r M d.y y y y y y y y y y y y y y y y y y y y y y y y y y y y y y y y y y y y y y y y y y y m.G 5 U +.7 r 9 >.g ",
"r 1 f d g e ; ; q 6 d.y y y y y y y y y y y y y y y y y y y y y y y y y y y y y y y y y y y y y y y y y y y m.h U M j 8 5 ` @.- ",
"r - 0 8 : > ; } 6 4 z.d.d.d.d.d.d.d.d.d.d.d.! ! ~ i.i.i.~ ! ! d.d.a.! ! ! i.i.i.~ ~ i.d.d.d.d.d.d.d.d.d.d.d.V.8 Y r 4 4 r 8.w # ",
"0 9 1 - 0 2 z 8 : 8 *.9 r r o.b f J #.w 1 4 c.c.v.N.N.N.v.c.c.8 n C.c.c.c.N.N.N.c.c.N.G ;.G K J O.8 : 8 { Z - ; k 5 % 4  .E ; - ",
"5 -.+ + > 8 7 - , ] E 6 [ b r 7 j j L *.> : c.c.b.n.N.N.v.c.c.8 @.C.c.c.c.N.N.N.c.c.B.U w 8 f M m n - : g G < : 5 % - 6 L j : : ",
"4 +.q & - 5 8 7 h 0.6 4 e > & f j *.} g.C.C.v.v.b.N.N.N.v.c.c.4 3.C.c.c.c.n.B.N.v.v.N.Z.C.C.b A ..y.7 z ] U 6 & 8 : 5 _ ] U 6 - ",
"r +.e & # - 9 4 ..f - 6 ; ; 5 U $.1.+.B.c.c.N.N.N.N.N.N.v.c.c.8 t.C.c.c.c.N.N.N.N.N.n.c.c.c.0.@.O.g 9 3.,.1.: 4 o.F M 3.,.$.< ; ",
" .U 1 $ $ S 6 6 g e : 4 4 z 8 O.#.f f B.c.c.N.N.N.N.N.N.v.c.c.8.1.C.c.c.c.N.N.N.n.N.b.c.c.c.O.h f f +.{ K 9 6 } } ] +.} J r 5 M ",
"r r & r w.=.% 9 8 d 8 - h h r o.f 8 7 f.C.C.Z.Z.Z.Z.Z.Z.C.C.C.0.Y M C.C.C.Z.Z.Z.Z.Z.Z.C.C.C.G 9 7 f h r e ; 8 ] f M r f 7 : 6 ] "
};
