/* XPM */
static char *result[] = {
/* columns rows colors chars-per-pixel */
"64 64 161 2 ",
"   c #103F06",
".  c #144506",
"X  c #164906",
"o  c #1B4D05",
"O  c #144709",
"+  c #1B4E09",
"@  c #1E5104",
"#  c #235505",
"$  c #265A04",
"%  c #2A5D05",
"&  c #245508",
"*  c #285708",
"=  c #275908",
"-  c #2B5B08",
";  c #315E08",
":  c #2D6105",
">  c #2F6108",
",  c #326506",
"<  c #386707",
"1  c #356905",
"2  c #3B6D06",
"3  c #346408",
"4  c #39660A",
"5  c #366A08",
"6  c #3B6B08",
"7  c #3E7205",
"8  c #356413",
"9  c #366811",
"0  c #406E09",
"q  c #427406",
"w  c #467905",
"e  c #4A7D06",
"r  c #447408",
"t  c #487709",
"y  c #477808",
"u  c #4B7B08",
"i  c #517F0A",
"p  c #416D1D",
"a  c #447115",
"s  c #4D7A15",
"d  c #456D2A",
"f  c #4E772A",
"g  c #4C782A",
"h  c #4C7139",
"j  c #577C3A",
"k  c #5B7F3A",
"l  c #466839",
"z  c #4C6C46",
"x  c #567746",
"c  c #577A43",
"v  c #727272",
"b  c #7B7974",
"n  c #7B7B7B",
"m  c #4E8105",
"M  c #4F8008",
"N  c #538406",
"B  c #568906",
"V  c #5B8D06",
"C  c #538308",
"Z  c #5B8B08",
"A  c #5E9105",
"S  c #538411",
"D  c #5F8E14",
"F  c #639506",
"G  c #669905",
"H  c #6D9F06",
"J  c #649509",
"K  c #639015",
"L  c #6B9914",
"P  c #5C833A",
"I  c #688F2E",
"U  c #679220",
"Y  c #729A2C",
"T  c #65893A",
"R  c #6A8E3A",
"E  c #71953B",
"W  c #73983A",
"Q  c #7FA539",
"!  c #648744",
"~  c #668A45",
"^  c #688A47",
"/  c #739645",
"(  c #6C8C52",
")  c #73905E",
"_  c #7B936A",
"`  c #86AA45",
"'  c #82A152",
"]  c #84A15E",
"[  c #849D6A",
"{  c #828078",
"}  c #89867B",
"|  c #879E76",
" . c #889D76",
".. c #93AB6A",
"X. c #8CA177",
"o. c #90A577",
"O. c #93A976",
"+. c #9CB276",
"@. c #838383",
"#. c #8D8D8D",
"$. c #92918E",
"%. c #99968B",
"&. c #9F9A88",
"*. c #939393",
"=. c #9B9A92",
"-. c #9B9B9B",
";. c #A59E86",
":. c #A19C88",
">. c #8EA182",
",. c #92A482",
"<. c #97A982",
"1. c #99AB82",
"2. c #98A78D",
"3. c #9FAF8D",
"4. c #9FB182",
"5. c #9EAA9A",
"6. c #AEA68A",
"7. c #A2B482",
"8. c #A2B28D",
"9. c #B9B08D",
"0. c #A1AE9A",
"q. c #AEAA9B",
"w. c #B2AC94",
"e. c #A6B39A",
"r. c #A8B59A",
"t. c #AEBA9A",
"y. c #A4A4A4",
"u. c #ADADAD",
"i. c #AAB4A5",
"p. c #AEB8A5",
"a. c #B0B9A5",
"s. c #B2B1AB",
"d. c #B4B4B4",
"f. c #B3B9B0",
"g. c #B9BFB0",
"h. c #BBBBBB",
"j. c #C4BA94",
"k. c #C3BDA5",
"l. c #C3BEAB",
"z. c #C2BFB6",
"x. c #BFC2BC",
"c. c #CBC198",
"v. c #D2C697",
"b. c #D5C99A",
"n. c #DACE9C",
"m. c #CDC4A0",
"M. c #CDC6AF",
"N. c #CFC8AC",
"B. c #D4CBA4",
"V. c #D0C8AA",
"C. c #C7C3B6",
"Z. c #CAC5B2",
"A. c #C3C1BC",
"S. c #C9C6BC",
"D. c #C1C1C1",
"F. c #CCCAC2",
"G. c #CCCCCB",
"H. c #D1CEC4",
"J. c #D0D0D0",
"K. c #DCDCDC",
"L. c #E1E1E1",
/* pixels */
"7 > u F B 6 5 1 % 2 = , e q r 2 5 1 > 2 7 3 > 2 m 2 < w N B e h.y.u.y.u.y.u.u.h.f.2 u q q 7 2 5 > 1 7 > % q N < 2 r w - > 7 M 2 ",
"7 3 e e e 3 > > # % 1 A B q 7 , 2 % # 7 , # 2 V 3 1 q q 2 6 a.#.v v v v v v n @.u.J C 7 2 > 2 = = 7 : # 7 V , 3 3 7 , = 7 V , , ",
"% , 2 2 r < > $ o @ e A u % 2 % 2 . , e 3 - N < % 5 - # # % i.#.v v v v v v n #.u.Z r - 2 - 2 O 1 w > 3 B % $ 3 % 1 o % B 3 % 3 ",
"$ % % > y # @ = % w e m ; , # , % : e , 5 7 r q * + c *.v v @.u.D.h.D.D.D.h.h.u.*.b v v v v n #.h., 5 q y 2 = @ % @   r r 2 % o ",
"e @ - 5 y = 7 e 2 q r r < 1 = > , 7 X 2 e N 5 e # X ^ *.v v n u.h.D.D.h.D.D.h.u.*.n v v v v n #.h.7 e B < e o X X o q Z < i # @ ",
", % 6 5 > 1 H 1 2 , e u e m 2 , q 2 q m F d.#.n v v @.y.D.D.D.D.D.D.D.D.D.h.D.D.D.h.D.h.D.D.h.u.#.v @.#.h.Z $ . X N G 6 $ V $ % ",
"m B 6 7 % m Z M r 1 e V B V y 2 < B 1 A C d.#.n v v n y.D.D.D.D.D.D.D.D.D.D.D.z.D.D.D.h.D.h.d.u.#.v @.*.D.V = % w G e 0 e A $ e ",
"F N y r 7 q N B e < V N 4 i A # , 7 w J r s.@.n v v n y.D.z.D.D.h.D.D.D.h.D.h.d.-.#.#.*.u.h.d.u.#.v @.#.h.6 % G e q < q A q : G ",
"u e B N C 2 C V 2 7 m 5 6 F 6 , V B A C N d.#.n v v n y.D.D.h.D.D.D.h.D.D.D.h.u.*.v n @.y.h.d.u.#.v n *.D.e m F 2 7 N m w m m G ",
"q r B F 6 y e r = < 6 e u r 2 V H M ..t.D.y.*.#.@.@.#.u.h.D.D.D.D.D.D.D.D.h.h.u.y.#.#.#.-.u.u.y.-.#.-.y.x.r u e < C r 3 y y r C ",
"r 2 N Z u 5 2 5 , 7 M r 1 q e V Z h.#.n b *.u.d.D.D.D.D.D.D.D.D.D.D.D.h.D.D.D.D.D.h.d.u.*.v @.#.h.V u , 2 - B r 3 3 1 1 2 ; N e ",
"2 7 6 Z e 6 > e V 6 > % N y ] t.D.u.*.#.@.y.d.h.D.D.D.h.D.D.h.D.h.D.D.D.D.D.h.D.D.D.h.d.-.@.#.*.d.D.r.) > q e = > q 2 1 3 2 e r ",
"m 1 , C 6 q 7 G r # # N B h.#.@.v #.u.h.D.h.D.D.D.D.h.D.D.h.D.D.D.D.h.D.D.D.h.D.D.D.D.D.D.D.d.u.#.v { *.D.e = O V B X @ 1 e 3 # ",
"e , 7 6 r ^ g.D.D.G.D.D.D.d.*.#.@.-.d.d.D.D.D.D.D.D.D.D.D.D.D.D.D.D.D.D.h.D.D.D.h.D.h.D.D.h.d.d.-.@.#.*.u.D.D.G.D.F.D.p.^ % , y ",
"= e 5 P d.*.n v v v v v v #.u.d.D.D.D.D.D.D.D.h.h.D.D.h.h.D.D.h.h.D.D.D.D.D.D.D.D.D.h.D.D.D.h.D.D.D.d.u.#.v v v v v v n -.d.a e ",
"% r - j d.*.n v v v v v v #.u.d.D.D.h.D.D.h.D.D.D.D.D.D.D.D.D.D.D.D.h.D.D.D.h.D.D.D.D.D.D.D.D.D.h.D.d.u.#.v v v v v v n -.d.9 , ",
"[ h.u.y.y.y.-.*.*.-.-.*.-.y.d.d.D.D.D.D.D.D.D.D.D.D.z.D.D.D.D.D.D.D.D.D.D.D.D.D.D.h.D.D.D.D.D.D.D.D.d.d.y.*.-.*.-.-.-.-.-.y.y.u.",
"d.-.n @.*.y.h.D.D.D.D.D.D.D.D.D.D.D.h.D.D.h.D.D.D.h.D.D.D.D.D.D.D.h.D.D.D.D.x.D.D.D.D.D.D.D.h.D.D.D.D.D.D.D.D.D.D.D.D.d.y.*.n @.",
"_ x.u.y.y.-.-.-.*.-.-.-.-.*.-.-.-.*.-.-.-.*.*.-.*.-.-.-.*.-.*.-.*.-.*.-.*.-.-.*.*.-.*.-.*.-.-.-.-.-.-.*.-.-.*.-.*.-.-.-.y.y.y.d.",
"% 6 5 R d.*.b v v v v v v v v v v v v v v v v v v v v v v v v v v v v v v v v v v v v v v v v v v v v v v v v v v v v n *.d.L q ",
"@ , , u D.d.-.-.-.-.-.y.y.y.-.-.-.*.$.*.#.#.#.*.#.*.$.&.;.;.;.6.;.;.;.;.6.;.;.:.%.*.#.#.$.#.$.#.*.*.-.-.y.y.y.-.-.-.*.y.d.D.C 6 ",
"% = C 6 + 4.D.D.D.G.J.J.G.G.D.D.h.h.d.u.u.u.u.u.u.u.s.m.n.n.n.n.n.n.n.n.n.n.b.v.k.u.u.u.u.u.s.d.h.D.D.D.D.J.J.J.G.G.D.F.O.Z r , ",
"% 1 Z + - 1.D.D.D.G.J.J.J.G.D.D.D.z.l.k.a.q.-.*.$.$.%.j.n.n.n.n.n.n.n.n.n.n.b.c.w.*.*.=.q.k.k.l.h.D.D.F.G.J.J.J.G.D.D.D.+.V 7 X ",
"V V r O 4 ,.D.D.D.G.J.J.G.G.G.D.z.Z.B.n.n.6.} b v v { 9.n.n.n.n.n.n.n.n.n.n.v.j.;.b b } 6.n.B.B.Z.D.D.D.G.J.J.J.G.G.D.D.+.y % % ",
"A B @ = > >.D.D.D.G.G.J.J.G.D.D.D.Z.B.n.b.6.} b v v { 9.n.n.n.n.n.n.n.n.n.n.v.j.:.b b } 6.n.n.B.C.D.D.D.G.J.J.J.G.D.D.D.O.4 : m ",
"B 2 > 2 > >.D.D.G.G.G.J.J.G.D.D.D.C.B.B.n.n.n.n.n.n.n.Z.D.x.D.h.D.A.D.x.D.h.A.C.N.n.n.n.n.n.B.B.Z.D.D.G.G.J.J.J.G.G.D.G.o.- 7 m ",
"q , 7 w r >.D.D.D.G.J.J.J.G.D.D.A.Z.B.n.n.n.n.n.n.n.B.Z.D.D.D.A.A.D.D.D.D.D.A.A.V.n.n.n.n.n.n.B.Z.D.D.D.G.G.J.G.D.D.D.D.X., e e ",
"> 3 w y > 4.D.D.D.G.J.J.J.G.D.D.D.M.B.B.n.B.M.C.C.C.Z.N.B.B.B.B.B.B.B.B.B.B.B.B.M.C.Z.Z.B.n.n.B.Z.D.D.D.G.J.J.J.G.G.D.D.X.6 6 5 ",
"& : y 3 % 7.D.D.D.G.J.J.J.G.G.D.D.Z.B.B.n.V.S.A.A.D.A.B.n.n.n.n.n.n.n.n.n.n.n.B.Z.A.A.C.V.n.B.B.Z.D.D.D.G.J.J.J.G.F.D.D.X.6 = % ",
"@ 1 - % N 4.D.D.D.G.J.J.G.G.D.D.A.D.F.F.H.H.H.G.G.G.G.S.C.C.C.A.C.C.C.A.C.C.C.C.F.G.G.G.H.H.H.F.D.A.D.G.G.J.J.G.G.G.D.D.| # + @ ",
"@ - > w m 1.D.D.D.G.G.J.J.G.D.D.D.G.G.J.J.J.J.J.J.J.G.D.D.D.D.D.A.D.D.D.D.D.D.D.F.G.J.J.J.J.J.G.D.x.D.D.G.G.J.J.G.D.D.D.| 7 6 > ",
"@ - 7 7 7 ,.D.D.D.G.G.J.J.G.D.D.D.D.G.G.J.J.J.J.J.J.G.G.D.D.D.F.D.D.G.D.D.D.D.G.G.J.J.J.J.J.G.G.G.D.D.G.G.J.J.G.G.G.D.D.| m A : ",
"$ > > % > ,.D.D.D.G.J.J.J.G.D.D.D.D.G.J.J.J.J.J.J.J.J.J.J.J.J.J.J.J.J.J.J.J.J.J.J.J.J.J.J.J.G.G.D.D.D.D.G.G.J.J.G.D.D.D.X.B 5 $ ",
"1 : w 2 o 7.D.D.D.G.J.J.J.G.G.G.G.G.G.G.G.G.J.J.J.J.J.J.J.J.J.J.J.J.J.J.J.J.J.J.J.J.J.J.G.G.G.G.G.G.G.G.G.J.J.J.G.G.D.D.O., e $ ",
": , w = w 7.A.D.D.G.J.J.J.J.L.L.K.J.G.D.D.G.J.J.J.J.J.J.J.J.J.J.J.J.J.J.J.J.J.J.J.J.J.G.G.D.D.G.K.L.K.K.K.J.J.J.G.G.D.D.| 1 N $ ",
", > 1 7 m R 2.i.5.G.G.G.J.J.K.K.L.J.h.d.u.d.D.G.G.G.G.G.J.J.J.J.J.J.J.J.J.J.J.J.G.G.G.D.h.u.d.h.G.L.L.K.J.G.G.G.G.2.t.<.d e N $ ",
"7 # 7 w q , # o $ ( A.D.D.G.K.K.L.d.#.n v *.d.d.D.h.D.G.J.J.J.J.J.J.J.J.J.J.J.G.G.D.d.u.*.v n #.h.L.K.K.G.h.D.D.O.e y < , V V @ ",
"7 % 1 6 , # $ e 1 ( D.D.D.G.K.K.L.h.#.n v *.u.h.D.D.D.G.J.J.J.J.J.J.J.J.J.J.J.G.G.D.h.u.*.v @.#.h.L.K.K.G.D.D.D.1.m < $ : G w @ ",
"7 : > 1 # , m q 1 1 U g g D.d.u.u.-.-.*.*.y.d.h.h.D.D.G.J.J.J.J.J.J.J.J.J.J.J.G.D.D.h.d.-.*.*.*.-.y.d.d.D.I Y p r , $ o e e V % ",
"5 = m - # 7 3 $ = y N $ y h.#.@.v #.-.y.d.d.h.h.D.D.D.G.J.J.J.J.J.J.J.J.J.J.J.G.G.D.h.h.d.d.u.-.#.v n *.h.r Z > 5 @ o : 1 q V : ",
"= 1 N . % : 1 @ < G y 1 q h.#.@.v #.y.y.u.d.d.d.h.d.h.D.D.G.G.D.F.D.G.D.G.D.G.D.D.h.d.d.d.u.y.-.@.v @.$.h.e 7 : = . @ w q y 0 o ",
"7 A 5 = : @ 7 = y B N , # h.#.n v @.-.y.u.u.u.u.u.u.d.h.D.D.D.D.D.D.D.D.D.D.h.h.d.d.u.u.u.u.u.-.#.v n *.x.V X 7 , > w A B V $ $ ",
"B M , @ . r 1 > 3 m y % # h.$.@.v @.-.u.u.u.u.u.u.u.d.d.d.d.d.y.-.*.y.d.h.d.d.d.d.u.u.u.u.u.u.-.@.v @.#.h.2 $ A N m V B y q : w ",
"w 7 & : V N @ > 1 C 1 @ 7 h.#.{ v #.y.y.u.u.u.d.u.u.u.u.u.u.-.@.v v @.y.u.u.u.u.u.u.u.u.u.u.y.-.@.v @.*.h.# : C e m q q 2 % : m ",
"2 , 2 G A C , % t D.u.u.u.-.*.*.*.-.y.u.u.u.u.u.u.u.u.u.u.u.-.n v v @.y.y.u.u.u.u.u.u.u.u.u.u.y.-.*.*.*.y.y.u.u.h.3.w 3 , , e r ",
"> 6 B e w F # = e.y.n v v #.-.y.u.u.u.u.u.u.u.u.u.u.u.u.d.u.y.@.v v @.y.u.u.d.u.u.u.u.u.u.u.u.u.u.u.y.-.@.v v b *.d.^ # 1 V < , ",
"& > q > u N # , 5.y.n v v @.-.u.u.u.u.u.u.u.u.u.u.u.u.u.u.u.y.@.v v @.y.u.u.u.u.u.u.u.u.u.d.u.u.u.u.y.-.@.v v b *.d.x - N < = 1 ",
"@ : > % e - & @ i.y.v v v @.-.y.u.u.u.u.u.u.d.u.u.u.y.@.v v n y.u.u.*.n v v b n *.u.u.u.u.u.u.u.u.d.y.-.@.v v b *.d.z 7 r 6 % # ",
"7 @ = 1 y o 5 e r.y.n v v @.-.y.u.u.u.u.u.u.u.u.u.u.y.@.v v n -.u.u.-.@.v v v @.*.y.u.u.u.u.u.d.u.u.y.-.@.v v n *.d.! Z 6 i # X ",
"> = 6 1 : $ G 5 r.y.v v v @.y.y.d.u.u.u.u.u.u.u.u.u.y.@.v v v n n @.n v v v n n *.u.u.u.u.u.u.u.u.u.y.-.@.v v n *.d.` r - Z $ # ",
"7 C 2 1 - m Z 7 r.y.n v v @.-.y.u.u.u.u.u.u.u.u.u.u.y.@.v v v v v v v v v v v @.*.y.u.u.u.u.u.u.u.u.y.y.@.v v b *.d./ 6 q A # w ",
"J Z 7 7 D.y.*.*.*.*.-.y.-.y.u.u.u.u.u.u.u.-.#.@.@.@.@.*.-.y.-.-.-.-.-.-.-.-.-.-.#.@.@.#.-.u.u.u.u.u.u.y.-.y.-.-.-.*.*.-.u.A.$ A ",
"C e B E d.*.n v n *.u.u.u.u.u.u.u.u.u.u.u.*.n n v v n *.u.u.u.u.d.u.u.u.u.u.u.-.#.v n @.*.u.u.u.u.u.u.u.u.u.u.u.-.#.b n *.h.S A ",
"q u A Q d.-.n v @.#.u.u.u.u.u.u.u.d.u.u.u.*.n v v v n -.u.u.u.u.u.u.u.u.u.u.u.-.#.v n n *.u.u.u.u.u.u.u.d.u.u.u.*.@.n n -.d.s N ",
"y r N W u.*.n b n #.y.u.d.u.u.u.u.u.u.u.y.*.n n v v n -.u.d.u.u.u.u.u.u.u.u.u.-.#.v v @.*.u.u.d.u.u.u.u.u.u.u.y.-.#.n n -.d.s N ",
"1 6 e W d.-.n v @.*.u.u.u.u.u.u.u.y.y.-.-.*.@.@.n @.@.-.u.u.u.u.u.u.u.d.u.u.u.y.*.@.@.@.*.-.-.-.u.u.u.u.u.u.u.u.*.#.n n -.d.D u ",
"7 - r T d.*.n b n #.y.u.u.u.u.u.u.*.@.n v #.y.u.u.u.d.u.u.u.u.d.u.u.u.u.u.u.u.u.u.d.y.-.@.v v @.*.u.u.u.u.u.u.y.-.#.n n -.h.D # ",
"7 = > P d.*.b v n #.-.-.y.y.y.u.u.*.n n v #.-.y.u.u.u.u.u.u.u.u.u.u.u.u.u.u.u.u.u.u.u.y.#.v n @.*.u.u.u.y.-.y.-.#.@.b n *.d.a O ",
"5 5 = h d.*.b v v v v v v #.y.y.u.-.@.v v #.-.u.u.u.u.u.u.u.u.u.u.u.u.d.u.u.u.u.u.u.y.-.#.v n n -.u.y.-.@.v v v v v v n -.h.8 # ",
", m O l d.-.n v v v v v v @.-.y.u.*.n n v #.y.y.u.u.u.u.u.u.u.u.u.u.u.u.u.d.u.u.u.u.y.y.@.v b @.-.u.y.-.@.v v v v v v n -.d.8 - ",
"> B 5 @ >.h.u.y.-.#.v v v n @.#.#.#.*.*.*.-.y.u.u.u.u.u.u.u.u.u.u.u.u.u.u.u.u.u.u.u.u.u.-.*.#.#.#.*.#.@.n v v v @.$.5.u.h.O., # ",
"7 N 6 @ + # 2 > t.y.b v v v v v v #.-.y.u.u.u.u.u.u.d.u.u.u.u.u.u.u.u.u.u.u.u.u.u.u.u.u.u.u.y.y.@.v v v v v v b *.d./ A N V = $ ",
"B u - O X e 5 > q D.u.u.y.u.y.y.u.-.*.*.*.#.#.#.*.#.#.#.#.#.*.#.*.#.#.#.*.#.*.#.#.#.#.*.#.#.$.*.y.u.u.y.y.u.u.u.h.8.B N r 7 : e ",
"2 q o 7 G C + 6 , q 1 # w q 7 N r d.#.n v v v v v v v v v v v v v v v v v v v v v v v v v v @.#.d.r 7 q 6 % 3 e q u 2 q 6 % 1 m "
};
