/* XPM */
static char *_0f6424500264447ce673633fa1fe301lNHCL01TXCgKP9sb[] = {
/* columns rows colors chars-per-pixel */
"64 64 79 1 ",
"  c #0F3E07",
". c #103F06",
"X c #0E4006",
"o c #134406",
"O c #164906",
"+ c #1B4D06",
"@ c #144709",
"# c #1B4E09",
"$ c #1D5104",
"% c #1F5008",
"& c #235505",
"* c #255A04",
"= c #2A5D05",
"- c #245508",
"; c #285708",
": c #265808",
"> c #2A5A08",
", c #315F07",
"< c #315E08",
"1 c #28531F",
"2 c #2D6105",
"3 c #2F6108",
"4 c #326506",
"5 c #366905",
"6 c #3A6C06",
"7 c #346408",
"8 c #39660A",
"9 c #376908",
"0 c #3B6B08",
"q c #3E7205",
"w c #3F6A1F",
"e c #335F21",
"r c #406F09",
"t c #427506",
"y c #467906",
"u c #4A7C06",
"i c #447409",
"p c #49770A",
"a c #477808",
"s c #4B7B09",
"d c #517F0A",
"f c #4A732A",
"g c #547D2D",
"h c #717171",
"j c #7D7D7D",
"k c #4E8105",
"l c #4F8008",
"z c #538406",
"x c #568905",
"c c #5B8D06",
"v c #538308",
"b c #5A8A08",
"n c #5E9106",
"m c #5E8D1C",
"M c #629406",
"N c #659905",
"B c #6A9D06",
"V c #639408",
"C c #5B832D",
"Z c #658F22",
"A c #638B2D",
"S c #AA9F7B",
"D c #828282",
"F c #898989",
"G c gray61",
"H c #A3A3A3",
"J c #AEAEAE",
"K c #B4B4B4",
"L c #BEBEBE",
"P c #CABA80",
"I c #D9C683",
"U c #CDC095",
"Y c #D3C79F",
"T c #DCCD9B",
"R c #CDC3A1",
"E c #D6CAA3",
"W c #C0C0C0",
"Q c #C9C9C9",
"! c #D0D0D0",
/* pixels */
"q3sMz099=q*2lty65530q3JJJHJJJJJHJJJJJHJ=$5aiiqq53963=td06ty=3ql6",
"q7uus732&=5nvtq452:q5-hhhhhhhhhhhhhhhhh35nzqq20&:q3*qc45464;qb44",
"=466i93*+$uns=6*6o2k3=hhhhhhhhhhhhhhhhh6xni20=6o9u=4v4*5=5+=v4=4",
"*==3y&$*=yuk44-4=2hhhhWWLWLLWWLWLLWWRLLhhhhh%4-4y30tt6;+*& ttr>#",
"u$>7y:ql0tti05*=2qhhhhWWWWWWWWWWWWWWWWWhhhhh2336Oqub0s++O+tb0d&+",
"4=q726B565uuuuhhhhLWWWWWWWWWWWWWWWWWWWWhhhhh95q0ylN06c*oOvN0*c==",
"kv0q>kblt5ucvMhhhhWWWWWWWWLWWLWWWWWWWWWhhhhhy56k9nl=uc*=yNz0un*u",
"Vxuiqtzba0cv8uhhhhWWWWhhhhhhhhhWWWWWWWWhhhhhv:q9yMt6c6*Nlt4tnt2N",
"auvvzrvc66l70MhhhhWWWWhhhhhhhhhWWWWWWWWhhhhh96cxcvvasuzM0qzuazkM",
"ttcM0aat*60uuiFFFFJJJKjDDjDDjDjWWWWWWWWhhhhh0nBzbcctatsu0lt4aapz",
"y6zca90576li9tucn0hhhhWWWWWWWWWWWWWWWWWhhhhhlnb9Nns464vy34456<zu",
"6trcu03uc07=ktuniqhhhhWWWWWWWWWWWWWWWWWjjjhjlcq0csr3=ta=2tt546ui",
"k94zrt5Na&&kx*hhhhhhhhWWWWWWLWWWWWWWWWWWWWWWhhhhhhhh5u*oxxO+9a4;",
"y4t0t0ka0+6c0&hhhhhhhjWWWWWWWWWWWWWWWWWWWWWWjhjhhhhh4=,uzc5t0=4y",
":u77ayt5+hhhhhhhhhWWWWWWWWWWWWWWWWWWWWWWWWWWLWWWhhhhhhhhhhhhh40a",
"=t=34yd5thhhhhhhhhWWWWWWWWWWWWWWWWWWWWWWWWWWWWWWhhhhhhhhhhhhh*25",
"6hhhhhhhhWWLWLLWLWWWWWWWWWWLWWWWWWWWWWWWWWWLWWWWLLLLWWWWWhhhhhhh",
"7hhhhhhhhWWWWWWLWWWWWWWWWLWWWWWLWWWLWWWWWWWLWWWLLLWWWWWWWhhhhhhh",
"*7qz0hhhhhjjhjhjhjhhhjjhhjjjhjhjjhhjjhjhjhhjhjhjhhhjhhjhh#7>*$q2",
"=05yyhhhhhhhhhhhhhhhhhhhhhhhhhhhhhhhhhhhhhhhhhhhhhhhhhhhh77%2kMt",
"$77u3=6z-KKKKKWQWWQWWWQWWWKKKLKKKKKHHHHHHHHJUUUUPPPPrN6&+=5tqMz6",
"=-z0#zc7#WWWWW!!!!!!!!!!!!WWWWWWWWLKJJJJJJJJTTTTIIIIsc9$*&4=kct5",
"24b#>i6:9WWWWW!!!!!!!!!!!!WWWWWEEEEYYYYjjjjjTTTTIIIIVb8$***5Mb6+",
"ccio07q&aWWWWW!!!!!!!!!!!!WWWWWTTTTTTTThhhhhTTTTIIIIcs-=x7*zbu**",
"nx$*=*026WWWWW!!!!!!!!!!!!WWWWWTTTTTTTThhhhhTTTTIIIIy7=kMytyy02u",
"x63q4==44WWWWW!!!!!!!!!!!!WWWWWTTTTTTTTWWWLWWWWWWWWW82ylv77qi*tu",
"t96yt&2=6WWWWW!!!!!!!!!!!!WWWWWETTTTTTTWWWWWWWWWWWLW;tuly90q44uu",
"27ty=qt$=WWWWW!!!!!!!!!!!!WWWWWWWWWWWWWWWWWWTTTTIIII0i0374q20609",
"-3s3=Mz5%WWWWW!!!!!!!!!!!!WWWWWWWWWWWWWWLWWWTTTTIIIIq92>>>=307*>",
"$5>=zva2OWWWWW!!!!!!!!!!!!WWWWWWWWW!!!!!!!!!WWWWWWWW2&%$:$%:4;#-",
"$>3ylt4**WLWWW!!!!!!!!!!!!WWWWWWWWW!!Q!!!!!!WWLLWLWW=96&$#$*260=",
"$=qqy=**2LRWWW!!!!!!!!!!!!WWWWWRRRRQQQQ!!!!!QQQQQQQQwmZe1q6q2kn4",
"*42==,6u3WRLWW!!!!!!!!!!!!WWWWWIIIIWWWW!!!!!!!!!!!!!WWWWWa=-2x0&",
"5=y5&cMy%gAfCCQQQQQQQQ!!!!WWWWWSSSSGGGGQQQQQ!!!!!!!!WWWWW337y4k*",
"=5u*ycp*:36$qqWWWWWWWW!!!!WWWWWhhhhhhhhWLLWL!!!!!!!!WWWWW4ub24z*",
"4456za*O@92469GHHHKLKLQQQQWWWWWFFFFFFFFHHHHGQQQQ!!!!WWWWWqxq&uz*",
"6&qit5&+292xtxhhhhJJJJWWRWWWWWWJJJJJJJJhhhhhWWWW!!!!WWWWWuu55nc$",
"t*905+&u52qkykhhhhJJJJWWWWWWWWWJJJJJJJJhhhhhWWWW!!!!WWWWWu5*2My$",
"y236&5kt49c22qhhhhJJJJJJJJKJJJJJJJJJJJJhhhhhJJJJWWWWWWWWW4&$uuc=",
"5&l=$q5*=yl2yyhhhhJJJJJJJJJJJJJJJJJJJJJhhhhhJJJJWWWWWWWWW%+=6tc2",
"%6bo*26$0hhhhhJJJJJJJJJJJJJJJJJJJJJhhhhJJJJJJJJJhhhhWWRLWo&tty6+",
"qn9$2$q&phhhhhJJJJJJJJJJJJJJJJJJJJJhhhhJJJJJJJJJhhhhWWWLW4uccc**",
"xl7$Xt537hhhhhJJJJJJJJJJJJJJJJJJJJJhhhhJJJJJJJJJhhhhp9*nzzczay2y",
"yq%5nb$27hhhhhJJJJJJJJJJJJJJJJJJJJJhhhhJJJJJJJJJhhhhw%2xuutt0=2u",
"64qNnhhhhJJJJJJJJJJJJJJJJJJJJJJhhhhJJJJJJJJJJJJJhhhh44lqtty444ut",
"20xuihhhhJJJJJJJJJJJJJJJJJJJJJJhhhhJJJJJJJJJJJJJhhhh6c944q4;5c04",
"&3q3thhhhJJJJJJJJJJJJJJJJJJJJJJhhhhJJJJJJJJJHJJHhhhhvq*0,9+=v0;4",
"&23=uhhhhJJJJJJJJJJJJJJJJJJJJJJhhhhJJJJJJJJJhhhhhhhh0=>#*&.ra0*&",
"q$*9ihhhhJJJJJJJJJJJJJJJJJJJJJJhhhhJJJJJJJJJhhhhhhhh&O56O+4c0s&O",
"3&694hhhhJJJJJJJJJJJJJJJJJhhhhhhhhhhhhhhhhhhJJJJhhhh$qn* uNi3b*&",
"qv04=hhhhJJJJJJJJJJJJJJJJJhhhhhhhhhhhhhhhhhhJJJJhhhhtB4+qBz0tM&y",
"VcqiqhhhhJJJJJJJJJJJJJJJJJhhhhhJJJJJJJJJJJJJJJJJhhhhM6=Mku7iny*n",
"ducvvhhhhJJJJJJJJJJJJJJJJJhhhhhJJJJJJJJJJJJJJJJJhhhhqquN06uuuakM",
"tFDDDHHHHJJJJJJJJJJJJJJJJJhhhhhJJJJJJJJJJJJJJJJJhhhhyyaz9zczyutv",
"thhhhJJJJJJJJJJJJJJJJJJJJJhhhhhJJJJJJJJJJJJJJJJJhhhhq4ua9axa08tv",
"9hhhhJJJJJJJJJJJJJJJJJjjjjGGGHGJJJJJJJJJJJJJJJJJhhhhqqcq3uz066ca",
"6hhhhJJJJJJJJJJJJJJJJJhhhhJJJJJJJJJJJJJJJJJJJJJJhhhh=zzyuuy43kc&",
"qhhhhJJJJJJJJJJJJJJJJJhhhhJJJJJJJJJJJJJJJJJJJJJJhhhhtM,6u652qn0#",
"2hhhhJJJJJJJJJJJJJJJJJhhhhJJJJJJJJJJJJJJJJJJJJJJhhhhzu&*s=#=vu*&",
"5hhhhJJJJJJJJJJJJJJJJJhhhhJJJJJJJJJJJJJJJJJJJJJJhhhhat&=2#&4at==",
"=x4$*hhhhhhhhhhhhhhhhhJJJJJJJJJJJJJJJJJJJJJJJJJJhhhhuu4&5*2uka4&",
"qz6&#hhhhhhhhhhhhhhhhhJHJJJJJHJJJJJJJJJJJHJJJJJJhhhhcb==ztuccc**",
"za=ood42t6222y5cbthhhhhhhhhhhhhhhhhhhhhhhhhhhhhhytkzt65lzuczt64a",
"tt%qNv+65t5&qtqzt5hhhhhhhhhhhhhhhhhhhhhhhhhhhhhh5yt60&5ztu6t0=5z"
};
