/* XPM */
static char *b8b588b7eb1c4ad1b054f557fa8c2931H0kSxOlxGz4RWLum[] = {
/* columns rows colors chars-per-pixel */
"64 64 159 2 ",
"   c #0F3E07",
".  c #103F06",
"X  c #144506",
"o  c #164906",
"O  c #1C4D05",
"+  c #144709",
"@  c #1B4E09",
"#  c #1E5104",
"$  c #1F5008",
"%  c #235505",
"&  c #255A04",
"*  c #2A5D05",
"=  c #245408",
"-  c #285708",
";  c #265908",
":  c #2B5B08",
">  c #315F07",
",  c #315E08",
"<  c #2D6105",
"1  c #2E6108",
"2  c #326506",
"3  c #386707",
"4  c #366905",
"5  c #3A6D06",
"6  c #346408",
"7  c #39660A",
"8  c #366908",
"9  c #3B6B08",
"0  c #3E7205",
"q  c #3F7008",
"w  c #406E09",
"e  c #437506",
"r  c #467906",
"t  c #4A7807",
"y  c #487A06",
"u  c #497D04",
"i  c #497E05",
"p  c #4A7E04",
"a  c #4B7E05",
"s  c #497C06",
"d  c #4B7D07",
"f  c #4C7D07",
"g  c #4D7E06",
"h  c #4E7F07",
"j  c #4A7C06",
"k  c #407108",
"l  c #427009",
"z  c #43710A",
"x  c #437408",
"c  c #457508",
"v  c #467509",
"b  c #477708",
"n  c #47750A",
"m  c #447409",
"M  c #497709",
"N  c #477808",
"B  c #487908",
"V  c #4B7B08",
"C  c #4B790A",
"Z  c #4D7D09",
"A  c #4F7E09",
"S  c #4B7B09",
"D  c #517F0A",
"F  c gray50",
"G  c gray50",
"H  c #4C8005",
"J  c #4F8006",
"K  c #4E8105",
"L  c #4F8008",
"P  c #508007",
"I  c #508206",
"U  c #538506",
"Y  c #528406",
"T  c #548605",
"R  c #548506",
"E  c #558607",
"W  c #538406",
"Q  c #568905",
"!  c #588907",
"~  c #598B07",
"^  c #5A8C06",
"/  c #508108",
"(  c #508008",
")  c #518208",
"_  c #558309",
"`  c #558508",
"'  c #568608",
"]  c #538308",
"[  c #578808",
"{  c #598809",
"}  c #5A8908",
"|  c #598A08",
" . c #5B8B08",
".. c #5C8C08",
"X. c #5B8B08",
"o. c #5D9005",
"O. c #5F9105",
"+. c #5F9206",
"@. c #5E9105",
"#. c #639705",
"$. c #639606",
"%. c #649705",
"&. c #629406",
"*. c #669A05",
"=. c #659904",
"-. c #6C9F06",
";. c #6A9C06",
":. c #649408",
">. c gray53",
",. c #8D8D8D",
"<. c #969696",
"1. c #9D9D9D",
"2. c #9D9D9D",
"3. c #A39B8A",
"4. c #A59E91",
"5. c #9CAF92",
"6. c #9CB091",
"7. c #A2B591",
"8. c #A6B993",
"9. c #A9BB93",
"0. c #A3A3A3",
"q. c #AFABA2",
"w. c #AAAAAA",
"e. c #AFAFAF",
"r. c #ABABAB",
"t. c #B8B2A5",
"y. c #B1BEAC",
"u. c #B2B2B2",
"i. c gray73",
"p. c #BABABA",
"a. c #C7B692",
"s. c #C3B7A0",
"d. c #AEC093",
"f. c #B6C3AD",
"g. c #B9C6AD",
"h. c #BECBAD",
"j. c #EBD19C",
"k. c #CDC1AA",
"l. c #C1CEAC",
"z. c #EDD5A4",
"x. c #E5D4B1",
"c. c #E1D4BA",
"v. c #E6D9BE",
"b. c #F0DDB5",
"n. c gray76",
"m. c #C6C6C6",
"M. c #C3C3C3",
"N. c #CBCBCB",
"B. c #DED6C5",
"V. c #DCD6CB",
"C. c gray83",
"Z. c #D4D4D4",
"A. c #DDD9D0",
"S. c #D8D8D8",
"D. c #D8D8D8",
"F. c #E8DBC1",
"G. c #E1DACC",
"H. c #E4E4E4",
"J. c #EAEAEA",
/* pixels */
"0 1 V #.' 5 8 4 * 5 & 2 P e e 5 5 8 1 5 0 6 1 5 K 9 9 e Q E p u 9 g ) 0 n & % * O 4 f e x 0 5 2 1 8 5 6 1 0 P 3 0 e e 2 1 0 L 5 ",
"q 2 u g V 2 1 1 & * 2 +.' x 0 2 5 * = 0 2 % 5 ^ 4 2 x k 3 x 5 3 6 +.{ u & # 0 < 4 #.) q 0 * 5 & - e 1 % 0 ~ 2 4 2 0 2 = 0 ~ 2 2 ",
": 2 5 5 x 3 1 & O # u +.V < 5 * 5 X 2 u 6 * E 3 - 4 f.w.w.w.w.w.w.w.w.w.w.w.w.w.w.m.n < 5 * 5 X 4 u 1 2 E > & 4 * 4 o * ] 4 * 4 ",
"& * * 1 y = # & * e f L 2 1 % 2 * 1 u 2 4 9 V q - O Z.G G G G G G G G G G G G G G w.: 2 $ 8 = 2 B 2 6 x b 5 = # & =   n e 5 - @ ",
"u # : 2 s ; 0 g 5 x e v 3 3 & : 2 e X 5 u ~ 4 C.C.C.M.1.1.1.1.1.2.2.2.2.2.2.2.2.1.e.C.C.C.> 2 3 + 0 g ' 3 A O o o O x ..3 h % O ",
"2 : q 2 1 4 -.4 3 4 u t g u 5 2 x 5 e a &.x < G G G 1.S.S.S.S.S.S.S.S.S.S.S.S.S.D.i.G G G C.w 9 B K *.9 5 | & X o T *.7 * ..* * ",
"K ' 5 q * H | L r 4 u .._ +.g 9 3 T 4 &.P > r G G G 1.S.S.S.S.S.S.S.S.S.S.S.S.S.D.m.1.1.1.M.Z.Z.Z.l.L : H o.& * r %.g w p o.& p ",
":.' s x 0 x ' [ f 8 ~ E 7 K ..= 2 e e *.e 5 ^ G G G 1.S.S.S.S.S.S.S.S.S.S.S.S.S.D.D.D.D.C.1.G G G w.k 0 o.3 & *.K e 3 e o.e < *.",
"n K ' ' ) 5 ` | 5 q L 6 5 +.q 2 ^ Q ^ ] ] t e G G G 1.S.S.S.S.S.S.M.5.2.2.2.2.2.2.e.S.S.S.2.G G G w.` g B f K #.9 0 P g y A K %.",
"x e E #.9 B f e ; 8 5 f f n 5 ^ -.] ~ { ~ y r G G G 1.S.S.S.S.S.S.i.G G G G G G G 2.S.S.S.2.G G G w.' e r B V A 9 K x 4 y y n ) ",
"e 5 Y | V 8 3 5 6 0 L c 4 e f ..O.5 %.O.v 1 5 G G G 1.S.S.S.S.S.S.M.2.2.2.2.2.2.2.w.p.p.i.e.w.w.w.m.V 2 5 , Y e 1 6 6 4 9 , P K ",
"5 0 q | f 9 1 u ^ 5 1 : K x u +.n 0 ~ C l 2 1 G G G 1.S.S.S.S.S.S.S.S.S.S.S.S.S.S.p.G G G Z.w w ^ y 5 < 1 x V : * r q 4 1 5 u n ",
"K 4 2 ` q 0 4 *.n % % Y Q - K C.C.C.C.C.C.C.C.1.1.1.e.D.S.S.S.S.S.S.S.S.S.S.S.S.S.i.G G G i.Z.Z.Z.g.A 4 4 y - + Q Q o # 4 u 6 % ",
"u 6 q 5 n 5 H V 8 # 0 ^ 8 = e G G G G G G G G S.S.S.D.D.S.S.S.S.S.S.S.S.S.S.S.S.S.i.G G G G G G G w.#.:.2 1 6 u Y ..4 0 9 1 2 r ",
"; u 8 6 y e x w.w.w.w.w.w.w.w.G G G <.p.p.p.p.S.S.S.D.S.S.S.S.S.S.S.S.S.S.S.S.S.S.N.p.p.i.<.G G G ,.w.w.w.g.5 y Q E 5 | 1 4 3 u ",
"* e : 1 2 r ) G G G G G G G G G G G 2.S.S.S.S.S.S.S.S.S.S.S.S.S.S.S.S.S.S.S.S.S.S.S.S.S.S.2.G G G G G G G C.< K { 9 0 3 4 * 1 6 ",
"5 B 0 < Z.Z.Z.G G G G >.5.2.2.2.2.2.e.S.S.S.S.S.D.D.D.D.D.D.S.S.S.S.S.S.S.S.S.D.D.D.D.D.D.e.1.1.1.1.1.1.2.M.Z.Z.Z.Z.C.C.C.& 4 - ",
"6 q 0 Z.G G G G G G G 2.S.S.S.S.S.S.S.S.S.S.S.S.D.D.D.D.S.D.S.S.S.S.S.S.S.S.S.C.D.D.D.D.D.D.D.D.D.D.D.D.C.2.G G G G G G G C.# % ",
"; 2 0 h.r.r.r.r.r.w.w.e.i.i.i.i.i.i.i.i.p.p.p.p.p.p.p.p.p.p.p.p.i.i.i.i.i.i.i.i.i.i.i.i.i.i.i.i.i.i.i.i.i.<.G G G w.w.r.w.y.0 1 ",
"& 9 4 B e : X % - - 4 Z.G G G G G G G G G G G G G G G G G G G G G G G G G G G G G G G G G G G G G G G G G G G G G 2 1 # 2 K #.x ",
"# 6 6 f < * 5 ` % < ~ h.w.w.w.3.3.3.4.4.4.4.4.<.<.<.<.<.<.<.2.1.1.1.1.1.2.2.0.0.0.0.0.0.0.0.0.0.0.0.2.2.2.0.w.w.w.* 4 e 0 &.P 5 ",
"& = L q O Y ^ 6 $ P Q 4 u 3 r j.j.j.z.b.b.b.b.M.M.M.M.M.M.M.N.C.S.S.S.S.S.S.H.J.J.J.J.J.J.J.J.J.J.H.S.S.D.| 9 # & & 2 * a ..e 2 ",
"< 4 ..@ - x 5 ; 3 %.r < A K 0 j.j.j.z.b.b.b.b.<.<.<.q.c.c.c.F.F.v.G.S.S.S.S.H.J.J.J.J.J.J.J.J.J.J.H.S.S.D...9 # & & % 2 &...5 O ",
"^ ^ w + 9 4 0 % u Y Y 4 9 * - j.j.j.z.b.b.b.b.G G G 4.b.b.b.b.b.b.F.S.S.S.S.H.J.J.J.J.J.J.J.J.J.J.H.S.S.D.v # * Q 6 & T ^ y * * ",
"@.Q # = * & 9 < 5 u L 8 % 5 2 x.x.x.x.F.F.F.F.1.1.1.t.b.b.b.b.b.b.F.S.S.S.S.H.J.J.J.J.J.J.J.J.J.J.H.S.S.D.4 * L #.n 0 B B 9 < K ",
"Q 0 * 0 6 * * < 4 f 9 & 4 e 4 A.S.S.S.S.S.S.S.S.S.S.A.b.b.b.b.b.b.F.S.S.S.S.H.J.J.J.J.J.J.J.J.J.J.H.S.S.D.< r f P 4 8 0 k * 0 u ",
"e 6 0 r x & < * 3 9 @ & e e e B.B.B.G.G.G.G.G.S.D.D.A.F.F.F.F.F.F.G.S.S.S.S.H.J.J.J.J.J.J.J.J.J.J.H.D.S.D.e V A e 4 5 0 7 2 u A ",
"1 6 e V & 0 e O * = % r 5 e e j.j.j.z.b.b.b.b.S.S.D.D.D.S.S.S.S.S.S.S.S.S.S.H.J.J.J.J.J.J.J.J.J.J.H.D.D.D.n 5 4 6 6 0 1 5 9 9 2 ",
"% < f 6 - &.Y 4 = # 4 2 4 e K G.B.B.G.G.G.G.G.H.H.H.H.H.H.H.H.S.S.S.S.S.S.S.H.J.J.J.J.J.J.J.J.J.J.H.D.D.D.8 < ; : - < : 3 9 & ; ",
"# 4 - * Y Q u < o 1 e & & e { D.S.C.S.S.S.S.S.J.J.J.J.J.J.J.D.C.S.S.S.S.S.S.H.J.J.J.J.J.J.J.J.J.J.H.D.D.D.% # $ % $ $ ; < ; @ = ",
"# * 1 r K n 2 & & 5 < 2 < a &.D.D.H.D.H.D.H.D.J.J.J.J.H.H.H.A.F.F.V.S.S.S.S.H.J.J.J.J.J.J.J.J.J.J.H.S.S.D.4 8 % # # % & < 0 5 1 ",
"# : 0 k e * & & < 4 2 e S.S.S.J.J.J.J.J.J.J.J.J.J.J.H.S.S.S.x.j.j.x.S.S.S.S.H.J.J.J.J.J.J.J.J.J.J.H.S.S.D.K [ @ X 0 4 e * K o.< ",
"& 2 1 * > > 4 a 2 - e p S.S.S.J.J.J.J.J.J.J.J.H.H.H.C.i.i.i.s.a.a.k.S.S.S.S.H.J.J.J.H.H.H.H.H.H.H.H.8.6.7.~ o X % e : # < E 3 & ",
"2 < e 5 # ^ %.e % 4 u * S.S.S.J.J.J.J.J.J.J.J.D.D.D.i.G G G G G G 2.S.S.S.S.H.J.J.J.D.D.D.D.D.C.D.d.4 & y 2 e o 2 1 6 2 r 4 K & ",
"< 4 u & t ^ t * & 2 w O S.S.S.J.J.J.J.H.H.H.H.i.i.i.e.<.<.<.<.<.<.e.S.S.S.S.H.H.H.D.Z.N.Z.n.i.i.i.Z.4 2 2 0 P & 4 2 u | 2 2 P & ",
"2 2 2 5 Y b * o o 2 * 2 S.S.S.J.J.J.H.D.D.D.D.G G G <.M.M.M.M.M.M.m.S.S.S.D.D.C.C.Z.M.M.M.<.G G G w.& 5 * K Q 4 4 0 Q k % u Y * ",
"5 % 0 B e 3 % o * 2 * ^ S.S.S.J.J.J.H.S.D.D.D.G G G <.M.M.M.M.M.M.m.S.S.S.S.S.S.D.Z.M.M.M.<.G G G w.2 V 4 ^ ^ & 5 u y 3 2 ^ ^ # ",
"e & 2 9 4 # % u 5 < e P S.S.S.S.S.S.Z.M.M.M.M.G G G <.M.M.M.M.M.M.M.M.M.M.M.M.M.M.M.M.M.M.<.G G G w.7 = 2 *.r * e K 3 & < =.r # ",
"0 < 1 0 % 4 p e 2 4 ^ < S.S.S.i.i.i.i.M.M.M.M.<.<.<.1.e.w.r.i.M.M.M.M.M.M.M.M.M.M.M.M.M.M.0.<.<.<.w.C.C.C.K ..< e 2 % # r h ^ * ",
"8 % Y ; O 0 4 * - u K * S.S.S.G G G <.M.M.M.M.M.M.M.w.G G G e.M.M.M.M.M.M.M.M.M.M.M.M.M.M.M.M.M.l.e.G G G C.^ < 4 % O < 5 e ..< ",
"% 5 [ o & < 4 = 5 %.b 4 9.7.6.G G G <.M.M.M.M.M.M.M.r.G G G w.M.M.M.M.M.M.M.M.M.M.M.M.M.M.M.M.M.M.e.G G G C.0 2 ; X # r 0 u w o ",
"0 +.8 % < # 0 % a ] h 2 % % & G G G <.M.M.M.M.M.M.M.e.G G G e.M.M.M.M.M.M.M.M.M.M.M.M.M.M.M.M.M.M.r.G G G C.o 0 2 1 r +.~ ^ * & ",
"| L 6 # X n 8 < 4 P y < % 5 2 G G G <.M.M.M.M.M.M.M.u.<.<.<.0.r.e.u.M.M.M.M.M.M.M.M.M.M.M.M.M.M.M.u.<.<.<.s.C.C.Z.P ~ Q y e < e ",
"r 0 $ < ^ [ # < 2 E 2 % e 5 4 G G G <.M.M.M.M.M.M.M.M.M.M.M.<.G G <.M.M.M.M.M.M.M.M.M.M.M.M.M.M.M.M.M.M.m.2.G G G K e e 9 * < K ",
"5 2 9 *.+.) 2 * A 3 # & L 5 x G G G <.M.M.M.M.M.M.M.M.M.M.M.<.G G <.M.M.M.M.M.M.M.M.M.M.M.M.M.M.M.M.M.M.M.<.G G G e r 2 2 2 g e ",
"1 9 Q u e &.; & 3 o # +.' 5 0 G G G G G G G G M.M.M.M.M.M.M.<.G G <.M.M.M.M.M.M.M.M.M.M.M.M.M.M.M.M.M.M.M.<.G G G 0 4 = 4 ..3 2 ",
"% 6 0 1 r ' = 1 % o e %.D 1 0 G G G >.<.<.<.<.r.r.e.w.e.w.r.,.G G ,.e.r.e.w.i.M.M.M.M.M.M.M.M.M.M.M.M.M.M.<.G G G 4 $ : E 9 & 4 ",
"# < 1 * A 1 % # & e K K 8 2 - G G G <.M.M.M.M.G G G G G G G G G G G G G G G e.M.M.M.M.M.M.M.M.M.M.M.M.M.M.<.G G G ;   5 y 5 - $ ",
"0 $ & 4 e O 4 u e e e b 3 2 % G G G <.M.M.M.M.<.<.<.<.<.<.<.<.<.<.,.G G G G e.M.M.M.M.M.M.M.M.M.M.M.M.M.M.<.G G G + 4 | 8 f $ o ",
"1 & 9 8 2 & %.9 5 1 y e Y u r G G G <.n.M.M.M.M.M.M.M.M.M.M.M.M.M.r.G G G G r.M.M.M.M.M.M.M.M.M.M.M.M.M.M.<.G G G C $.n < ..& % ",
"k ) 9 4 * H ~ e e 4 u ^ ~ o.P G G G <.M.M.M.M.M.M.M.M.M.M.M.M.M.M.e.G G G G r.M.M.M.M.M.M.M.M.M.M.M.M.M.M.<.G G G ;.` 9 r +.% u ",
"$.| 0 k 0 n E ` y e E ~ 9 K ..G G >.<.M.M.M.M.M.M.M.M.M.M.M.M.M.M.r.G G G G r.M.M.M.M.M.M.M.M.M.M.M.M.M.M.M.M.M.M.G G G G C.& @.",
"( A [ L ` 9 ` ..r 5 ` 9 3 &.y G G G <.M.M.M.M.M.M.M.M.M.M.M.M.M.M.u.<.<.<.<.0.e.e.u.M.M.M.M.M.M.M.M.M.M.M.M.M.M.M.G G G G C.H +.",
"k f o.#.k B #.:.- 5 n k g P , G G G <.M.M.M.M.M.M.M.M.M.M.M.M.M.M.M.M.M.M.M.<.G G <.M.M.M.M.M.M.M.M.M.M.M.M.M.M.M.G G G G C.x Y ",
"B x E ` u K #.k < 0 | V 5 4 T G G G <.M.M.M.M.M.M.M.M.M.M.M.M.M.M.M.M.M.M.M.<.G G <.M.M.M.M.M.M.M.M.M.M.M.M.M.M.M.G G G G C.e E ",
"4 5 f Y f E x 8 0 f 9 6 u K #.G G G <.M.M.M.M.M.M.M.M.M.M.M.M.M.M.M.M.M.M.M.<.G G <.M.M.M.M.M.M.M.M.M.M.M.M.M.M.M.G G G G C.Q n ",
"0 : e k r 9 - - 6 6 5 g K Q P G G G <.M.M.M.M.M.M.M.M.M.M.M.M.M.M.M.M.M.M.M.<.G G <.M.M.M.M.M.M.M.M.M.M.M.M.M.n.M.G G G G C.^ % ",
"0 = 6 4 * % * ) 2 < u V y r 9 G G G <.M.M.M.M.M.M.M.M.M.M.M.M.M.M.M.M.M.M.M.M.M.M.r.G G G G G G G G G G G G G G G 5 2 < 0 &.4 O ",
"2 5 - % 6 * r 4 * 8 Y 5 0 q E G G G <.M.M.M.M.M.M.M.M.M.M.M.n.M.M.M.M.M.M.M.M.M.l.e.G G G G G G G G G G G G G G G 1 $ & Y A * # ",
"1 ` + X = 4 3 = ; K A 1 L u 0 3 r r C.G G G G G G G G G G G G G G G G G G G G G G G G G G C.z C t g % * y e % * < O % 2 r e 1 * ",
"1 E 8 # & < 4 4 e #.2 < 9 = $ e y P h.w.w.w.w.w.w.w.w.w.w.w.w.w.w.w.w.w.r.w.w.w.w.w.w.w.w.g.u h E &.4 u K V 2 # 4 - < u K f 6 % ",
"0 [ q # O = 5 * E e % 2 & & 1 u ^ ~ Q g 4 ^ ~ ..2 & h y E ..2 4 ;.* o X X : r & 4 5 # & * y &.~ ^ b 5 +.| | * 1 Y x u +.' ..& & ",
"Q V - o X g 2 2 e 5 < < < r 4 Q ^ e e e T T z x 1 u { u y 9 3 =...9 5 r O 5 x e e * * 0 3 ^ ~ e r e T T z q 2 P P K Q Y z 0 < u ",
"q 0 O 0 *._ @ 5 4 z 4 % e e 0 Y e 5 3 e e x 5 * 2 P k e 5 b O.&.Z y +.2 r 3 1 2 & O 0 0 e Y 0 5 3 e e 5 5 & 4 K e u 0 k 9 * 4 K "
};
