/* XPM */
static char *result[] = {
/* columns rows colors chars-per-pixel */
"64 64 55 1 ",
"  c #0F3E07",
". c #103F06",
"X c #0E4006",
"o c #144506",
"O c #164906",
"+ c #1B4D05",
"@ c #1B4E09",
"# c #1E5205",
"$ c #235505",
"% c #265A04",
"& c #2A5C05",
"* c #245408",
"= c #285708",
"- c #275908",
"; c #2C5B08",
": c #315E08",
"> c #2D6105",
", c #2F6108",
"< c #326406",
"1 c #356906",
"2 c #3B6D06",
"3 c #346408",
"4 c #39660A",
"5 c #366A08",
"6 c #3B6B08",
"7 c #3E7205",
"8 c #3F7008",
"9 c #406F08",
"0 c #437506",
"q c #467905",
"w c #4B7D06",
"e c #447408",
"r c #487709",
"t c #477808",
"y c #4B7B09",
"u c #517F0A",
"i c #666964",
"p c #686B64",
"a c #6A6A6A",
"s c #4E8105",
"d c #4F8008",
"f c #538407",
"g c #568906",
"h c #5A8C06",
"j c #538308",
"k c #5B8B08",
"l c #5E9105",
"z c #639506",
"x c #659905",
"c c #6C9F06",
"v c #639409",
"b c gray65",
"n c #AAAAAA",
"m c gray",
"M c gray81",
/* pixels */
"7,yzf611&2%<f00711aaaaaaaammmmmmmmmaaaa&+1w00221:11:,es5200:,7s2",
"8<wwy3;<%&<lj07,2&aaaaaaaammmmmmmmmiaaa,1zf77&2$&e<$7k<112<=7k<<",
"&<22e1,&+#wlyaaaaammmmmmmmmmmmmmmmmmmmmaaaa&2&5o1q&<g&%<&<@&j1&1",
"%&&,y$#%&0wd<aaaaammmmmmmmmmmmmMmmmmmmmaaaa<*1*1q<6er2%+&$ 0e2=+",
"w#&5q-7w200e5aaaaammmmmmmmaaaaaaaaammmmaaaa<&&<5O8sj2u++O+0k5u$+",
"<&65,1c12<wrwaaaaammmmmmmmaaaaaaaaammmmaaaaq51e50jx62k%oOgx4&k&&",
"sj68-whd05wljaaaaammmmmmmmaaaaaaaaammmmaaaazw46s1ld&wh%&qxw9wl%w",
"zgwe00fgw5hj4fk*17aaaaaaaammMmmmmMmmmmmmmmmaaaaaqze2h2%xwe10l0>x",
"rwgju2jk29w45z21ggpaaaaaaammmmmmmmmmmmmmmmmiaaaahjjwywsz27uwwwsx",
"eegz9rwr=52wwaaaaammmmmmmmmmmmmmmmmmmmmmmmmmmmmmaaaaw0ww1fe1w0ej",
"02jkw11112fe3aaaaammmmmmmmmmmmmmmmmmmmmmmmmmmmmmaaaa5:ge33<12:jw",
"209kwaaaaaaaammmmmmmmmmmmmmmmmmmmmmmmmmmmmmmmmmmmmmmaaaaaaaaaeye",
"s11f9aaaaaaaammmmmmmmmmmmmmmmmmmmmmmmmmmmmmmmmmmmmmmaaaaaaaaaw<$",
"q<76eaaaaaaaammmmmmmmmmmmmmmmmmmmmmmmmmmmmmmmmmmmmmmaaaaaaaaa&<q",
"aaaaammmmmmmmmmmmmmmmmmmmmmmmmmmmmmmmmmmmmmmmmmmmmmmmmmmmmmmmaaa",
"aaaaammmmmmmmmmmmmmmmmmmmmmmmmmmmmmmmmmmmmmmmmmmmmmmmmmmmmmmmaaa",
"207,>aaaaaaaaaaaaaaaaaaaaaaaaaaaaaaaaaaaaaaaaaaaaaaaaaaaaaaaa=1=",
"397jqaaaaaaaaaaaaaaaaaaaaaaaaaaaaaaaaaaaaaaaaaaaaaaaaaaaaaaaaO+%",
"=37g1mmmmMMMMMMMMMMMMMMMMMMMMMMMMMMMMMMMMMMMMMMMMMMMMMMMmmmmm+0&",
"&11q0mmmmMMMMMMMMMMMMMMMMMMMMMMMMMMMMMMMMMMMMMMMMMMMMMMMmmmmmfz0",
"#<<y>mmmmMMMMMMMMMMMMMMMMMMMMMMMMMMMMMMMMMMMMMMMMMMMMMMMmmmmmzf1",
"-*j8+mmmmMMMMMMMMMMMMMMMMMMMMMMMMMMMMMMMMMMMMMMMMMMMMMMMmmmmmh01",
">1k@;mmmmMMMMMMMMMMMMMMMMMMMMMMMMMMMMMMMMMMMMMMMMMMMMMMMmmmmmk2O",
"hh9o6mmmmMMMMMMMMMMMMMMMMMMMMMMMMMMMMMMMMMMMMMMMMMMMMMMMmmmmmr&&",
"lg#$,mmmmMMMMMMMMMMMMMMMMMMMMMMMMMMMMMMMMMMMMMMMMMMMMMMMmmmmm6&f",
"g7&7<mmmmMMMMMMMMMMMMMMMMMMMMMMMMMMMMMMMMMMMMMMMMMMMMMMMmmmmm&7w",
"0<2w0mmmmMMMMMMMMMMMMMMMMMMMMMMMMMMMMMMMMMMMMMMMMMMMMMMMmmmmm<qu",
",30y-mmmmMMMMMMMMMMMMMMMMMMMMMMMMMMMMMMMMMMMMMMMMMMMMMMMmmmmm92<",
"$>y;&mmmmMMMMMMMMMMMMMMMMMMMMMMMMMMMMMMMMMMMMMMMMMMMMMMMmmmmm1$&",
"#<;&fmmmmMMMMMMMMMMMMMMMMMMMMMMMMMMMMMMMMMMMMMMMMMMMMMMMmmmmm%+*",
"#&,qsmmmmMMMMMMMMMMMMMMMMMMMMMMMMMMMMMMMMMMMMMMMMMMMMMMMmmmmm25:",
"#,770mmmmMMMMMMMMMMMMMMMMMMMMMMMMMMMMMMMMMMMMMMMMMMMMMMMmmmmmsh1",
"%1&&&mmmmMMMMMMMMMMMMMmmmmmmmmmmmmmmmmmmmmmMMMMMMMMMMMMMmmmmmg5%",
"1>02$mmmmMMMMMMMMMMMMMmmmmmmmmmmmmmmmmmmmmmMMMMMMMMMMMMMmmmmm<w%",
"&<w&qmmmmMMMMmmmmmmmmmnnnnnnnnnnbnnnnnnnnnnmmmmmmmmmMMMMmmmmm1f%",
"1<<9wmmmmMMMMmmmmmmmmmnnnnnnnnnnnnnnnnnnnnnmmmmmmmmmMMMMmmmmmqf&",
"2$7q0mmmmMMMMmmmmmmmmmnnnnnnnnnnnnnnnnnnnnnmmmmmmmmmMMMMmmmmmhh$",
"e%<6<mmmmmmmmaaaaannnnnnnnnnnnnnnnnnnnnnnnnnnnnnapaammmmmmmmmz0#",
"e>,2$mmmmmmmmaaaaannnnnnnnnnnnnnnnnnnnnnnnnnnnnnaaaammmmmmmmmuh&",
"5$s&+01;;qu&qaaaaannnnnnnnnnnnnnnnnnnnnnnnnnnnnnaaaa60k<1$+&20h>",
"$5jO&>1#2xr1eaapaannnnnnnnnnnnnnnnnnnnnnnnnnnnnnaaaaeq21%o$q7q9O",
"7l5$>#7$wfw<$aaaaannnnnnnnnnnnnnnnnnnnnnnnnnnnnnaaaakh+71&qhhh&%",
"gd<#oe5,1ur&=aaaaannnnnnnnnnnnnnnnnnnnnnnnnnnnnnaaaaw1$hjfggr0>q",
"w8#<hg#<1aaaannnnnnnnnnnnnnnnnnnnnnnnnnnnnnnnnnnnnnnaaaawu002&>s",
"1<7xlj<&waaaannnnnnnnnnnnnnnnnnnnnnnnnnnnnnnnnnnnnnnaaaa00033<w0",
",6gw0z=%1aaaannnnnnnnnnnnnnnnnnnnnnnnnnnnnnnnnnnnnnnaaaa371*1h11",
"*<7,wj@<#aaaannnnnnnnnnnnnnnnnnnnnnnnnnnnnnnnnnnnnnnaaaa&1+;j2$5",
"#>,>y;$$&aaaannnnnnnnnnnnnnnnnnnnnnnnnnnnnnnnnnnnnnnaaaa&%.9w5=*",
"7#-1q+1w0aaaannnnnnnnnnnnnnnnnnnnnnnnnnnnnnnnnnnnnnnaaaaOO<h2u$O",
",%63<-z62aaaannnnnnnnnnnnnnnnnnnnnnnnnnnnnnnnnnnnnnnaaaa.wze&k%%",
"7d61&aaaannnnnnnnnnnnnnnnnnnnnnnnnnnnnnnnnnnnnnnnnnnnnnnaaaaal#q",
"xk7e7aaaannnnnnnnnnnnnnnnnnnnnnnnnnnnnnnnnnnnnnnnnnnnnnnaaaaa0%z",
"jygjjaaaannnnnnnnnnnnnnnnnnnnnnnnnnnnnnnnnnnnnnnnnnnnnnnaaaaawwz",
"8ylxeaaaannnnnnnnnnnnnnnnnnnnnnnnnnnnnnnnnnnnnnnnnnnnnnnaaaaawef",
"q0gjwaaaannnnnnnnnnnnnnnnnnnnnnnnnnnnnnnnnnnnnnnnnnnnnnnaaaaa3eg",
"16yfqaaaannnnnnnnnnnnnnnnnnnnnnnnnnnnnnnnnnnnnnnnnnnnnnnaaaaa9ke",
"0&e9qaaaannnnnnnnnnnnnnnnnnnnnnnnnnnnnnnnnnnnnnnnnnnnnnnaaaaawh$",
"7$,1&aaaaaaaannnnnnnnnnnnnnnnnnnnnnnnnnnnnnnnnnnnnnnaaaaaaaaal6+",
"<5;*3aaaaaaaannnnnnnnnnnnnnnnnnnnnnnnnnnnnnnnnnnnnnnaaaaaaaaaw&#",
"<foO$piiiaaaabbbbbnnnnnnnnnnnnnnnnnnnnnnnnnnnnnnbbbbaaaaiiiipr&&",
">f5#%&110aaaaaaaaannnnnnnnnnnnnnnnnnnnnnnnnnnnnnaaaaaaaa<&>www3%",
"8g6#+$2,faaaaaaaaannnnnnnnnnnnnnnnnnnnnnnnnnnnnnaaaaaaaag0qlkh=%",
"gy;OOw1<q2>>>q1gh0aaaaaaaaaaaaaaaaaaaaaaaaaaaaaa00gfe21ffwgfe0<q",
"76$2zj+2<e1%707f01aaaaaaaaaaaaaaaaaaaaaaaaaaaaaa10095&<w0w292&1w"
};
