/* XPM */
static char *_b29fe997e9d4f1087ea21cac5bdc8ed5FLxopbOCOHN9Xtv[] = {
/* columns rows colors chars-per-pixel */
"64 64 159 2 ",
"   c #0D3F07",
".  c #093D0A",
"X  c #103F06",
"o  c #0E4105",
"O  c #134505",
"+  c #194706",
"@  c #164905",
"#  c #1B4D05",
"$  c #144609",
"%  c #1C4D08",
"&  c #1E5105",
"*  c #1F5109",
"=  c #204F05",
"-  c #204F08",
";  c #235505",
":  c #285706",
">  c #265A04",
",  c #2B5D05",
"<  c #245408",
"1  c #295709",
"2  c #265908",
"3  c #2B5B08",
"4  c #315F07",
"5  c #315E09",
"6  c #2E6105",
"7  c #2E6108",
"8  c #326506",
"9  c #386707",
"0  c #366905",
"q  c #3A6C06",
"w  c #346408",
"e  c #39660A",
"r  c #366808",
"t  c #3B6B08",
"y  c #3D7105",
"u  c #3F7105",
"i  c #3C7204",
"p  c #3D7305",
"a  c #3E7205",
"s  c #3F7205",
"d  c #3E7305",
"f  c #3C7006",
"g  c #3F7106",
"h  c #3E7007",
"j  c #3F7007",
"k  c #3F7306",
"l  c #3F7207",
"z  c #3F7404",
"x  c #3E7205",
"c  c #3F7008",
"v  c #406F09",
"b  c #407107",
"n  c #407206",
"m  c #407207",
"M  c #427307",
"N  c #407405",
"B  c #417505",
"V  c #427405",
"C  c #437505",
"Z  c #427604",
"A  c #417406",
"S  c #437506",
"D  c #437507",
"F  c #427606",
"G  c #447706",
"H  c #447607",
"J  c #447707",
"K  c #477706",
"L  c #437506",
"P  c #487707",
"I  c #427805",
"U  c #477B05",
"Y  c #447806",
"T  c #467907",
"R  c #477907",
"E  c #467B06",
"W  c #477B06",
"Q  c #477C06",
"!  c #467906",
"~  c #487A06",
"^  c #4B7B07",
"/  c #497D04",
"(  c #497E05",
")  c #4B7E05",
"_  c #4B7D06",
"`  c #4A7D07",
"'  c #4B7D07",
"]  c #4C7E06",
"[  c #4D7F06",
"{  c #4D7E07",
"}  c #4E7E07",
"|  c #4E7F07",
" . c #4A7C06",
".. c #437109",
"X. c #43710A",
"o. c #437408",
"O. c #457508",
"+. c #467508",
"@. c #467409",
"#. c #477708",
"$. c #47750A",
"%. c #447309",
"&. c #487709",
"*. c #467808",
"=. c #487908",
"-. c #4B7A08",
";. c #4A7B08",
":. c #4B790A",
">. c #4C7C08",
",. c #4D7D09",
"<. c #4F7E09",
"1. c #4C7B09",
"2. c #507E0A",
"3. c #4C8005",
"4. c #4F8106",
"5. c #4E8105",
"6. c #4E8008",
"7. c #508007",
"8. c #528406",
"9. c #538506",
"0. c #548506",
"q. c #558607",
"w. c #528406",
"e. c #578B05",
"r. c #558906",
"t. c #568905",
"y. c #588907",
"u. c #598B07",
"i. c #5D8F06",
"p. c #5A8C06",
"a. c #508008",
"s. c #508108",
"d. c #528108",
"f. c #518208",
"g. c #558309",
"h. c #558508",
"j. c #568608",
"k. c #538309",
"l. c #5A870B",
"z. c #578808",
"x. c #598809",
"c. c #598A08",
"v. c #5B8B08",
"b. c #5B8B08",
"n. c #5D9005",
"m. c #5F9105",
"M. c #5F9206",
"N. c #5E9105",
"B. c #5F9008",
"V. c #639605",
"C. c #639606",
"Z. c #629406",
"A. c #669905",
"S. c #6B9D06",
"D. c #639308",
"F. c #689708",
"G. c #689908",
"H. c #6EA105",
"J. c #71A307",
/* pixels */
"l 8 -.Z.q.t r 9 , l > 8 7.C C l 9 0 7 q l 7 7 i 4.q 9 A y.q.[ / 9 4.7.k C ; ; 6 # r ~ Z A q q 9 7 r q 5 , A 7.9 l A I , w l 4.q ",
"l 7 / [ ~ w 7 8 ; , 8 N.j.A l 7 q , ; k 9 ; q y.r 8 M %.9 M q 9 8 N.y.[ , & p 6 r C.g.l l 7 t > > A 8 ; z y.8 9 8 f 8 1 f y.8 8 ",
", 8 q q %.9 7 > @ & 3.N.~ 6 q , q $ 8 ) 7 , 7.9 > r , ; > , 7 , C t.t 6 ; z 5.q t.i.C , q , 9 O 9 Q , w q.4 > r , 8 % 3 7.8 , r ",
"> , , 7 ~ ; & > , I ) ) 8 7 < 8 , 7 ) 6 q l -.l , # ; 6 > ; ; w A %., 7 3 N > 6 ) >.5 8 ; r ; 8 Y 8 r M P q ; & > < o Y C l 1 # ",
"Q # , r Q 2 l [ q M C @.9 9 > 3 0 l $ q ) y.9 7.= # 9 0 9 > > r l 8 ; 4 > > 4 8 ~ v 9 8 > 7 6 9 @ l 4.j.9 <.# # @ # A v.9 2.; & ",
"r , t 8 7 0 S.9 9 r ~ ~ [ ) q 8 A f Z 5.Z.M 6 y.; , q [ 0.p.9 9 6 - ; } r > 8 q 0.~ ~ [ 0 9 o.f I k.A.t i y.> $ @ q.A.e > m.> > ",
"5.j.t l , ) c.[ Y 9 ) i.g.N.[ t 9 9.9 D.8.3 Z Z.> Z [ G.7.A.0 7.$ q t.q > > 8 V.[ D.8.D.Q t 9 4.9 M.6., / i.> > Y A.[ v / Z.> 5.",
"D.q.Q o.A M q.c.Q 0 y.q.e 4.v.< 8 Z Z G.C q i.&.> V.Z.} 8.y.8 7., Z.q.8 > > 0.D.y.a.r q.j.2 Z 8 ! Z.o.q p.q > A.7.A 9 C p.C 6 A.",
"&.6.j.j.a.t k.p.c c 7.r t Z.t 8 e.t.i.g.g.~ P [ 4.C.<.[ N.e 7 i.N.g.8 6 > Z ~ i.7.5 q C.9 f n.t.i.g.j.) <.Q 4.D.t l 7.4.Y [ 4.C.",
"M A t.Z.t -.Q I 2 0 t Q -.#.q i.H.8.t.c.c.~ ~ ~ ..v.~ [ &., / 8.[ q 0 ; 6 q q t.C <.~ &.9 i.S.8.x.c.j.C Y Y -.<.q 4.A r ) Y &.a.",
"Y q k.c.Q t 9 9 r q 6.#.r A ) v.i.q Z.D.&.7 q 5 8.Z.) ~ t ~ ~ 9 9 b ! 6 l 1 9 <.7.M w l ) D.y.l A.N.&.8 q w r.o.w r r 9 9 5 7.4.",
"q l v p.Q t 6 ) p.t 7 , 5.o.) N.#.f i.) v 7 7 q i.Y 4.D.7.<.w r , , q t.b 8 l w <.r C l 4.N...A y.~ b 7 , M Q 1 , A q 0 7 b Q #.",
"5.9 8 k.t l q A.#.; ; 4.t.1 4.Y r #.3.t <.q 8 4.t ; t.y.r 9 3 , # > 0.} b -.q ; t.z C , 7.P r Y 4.t [ r 9 ) > $ t.t.@ # 9 ) 7 ; ",
"Q 8 k t #.t 3.-.r & z i.9 > A t q t f 3 N.G.9 t ; 9 2.N.r 3 ; , , [ } F.8 } 9 8 [ l r > C q t q q 8 Z.D.8 7 7 ) 8.N.8 l t 7 8 / ",
"2 ) 9 8 ~ I M t % # A q , > C 7.w , 2 C S.a.c 7 r ) 9 i., , @ 7.e.x.p.2., 8.[ q 9 0 q l #.6., 7 ; 4.C.g.7 9 q ~ t.q.q x.7 8 9 ) ",
", I 3 7 8 Y a.q A 8 r 6 9 Y q 7 > 2 , A.a.3 t 2 ; 9 q a.8 # > D.A.0.m.e Z C.0 q ~ 9 C ) r 1 ; ; 8 Z.<.q 9 , 6 5.x.t l q r , 6 8 ",
"t C i 8 6 i.c.p.q 8 q , > -., 9 & & Y c.#.3 7 $ ; 7 9 9 > 8 z V.j.M t.q.D.a.8 O.v.3 > C 2 r & ; ~ c.<.8 , # 0 ..t l ; 8 r > r 1 ",
"w c A a.C t.#.r , t M @ ; ..) t o 7 t 4.-.7 ; $ O ; r > Z / [ q.t A V.S.C C A e > & , A 8.8 o 8 #.q.*., > & , , 9 & 3 r 8 @ & ; ",
", r f t.9 O.5 & ; 9 8 & w i.D.* O q Z [ r ; & . r , > > [ 8 Z 9 t 4.8.x.D.Z.r # # > I M.Z.% # 9 <.[ 3 > ; # 9 2 & @ r 2 > & k 6 ",
"> r 8 Y I 3 O ; > , 0 [ ) N.#.$ p q ~ t $ * * J A.~ > 0 r , M [ <.q M a.x.D.) & 8 8.8.M.X.& Y r ..r # & & 4.B.% o 8 7 < 6 4.Z.A ",
"& 8 8 Q 8 3 9 8.; 7 t.[ 4.>.3 A 8., w w , c l Z.q.8 # > l 6.6.Y l 9 q 6.i.y.v ; e.>.5.~ 5 8.) , 8 8 6 q q A.q ; ; , 0 N z V.7.q ",
"> 2 a.t # g.i.8 * 4.q.0 ~ t Y t.*.3 4 ~ 9 3 ~ N.9 & > & 8.k.i.t t.1 8 4.Y C , q.7.6 ~ 9 Y t.A 8 w C 7 > ) i.e & > ; 8 , [ p.A 8 ",
"6 8 v.* 1 #.q , 9 C.Z 6 <.4.A ) ~ -.Y A.l 9 N.v.N > > 8 8.t.v.q c.2 8 q i 4 q Z.8 6 4.7.c 6.*.) a.D.t 9 D.c.r & > > > 8 D.i.q # ",
"n.n...$ t 8 q < ) 8.8.0 t 6 > K i.v.p.k.8 4.i.:.> > V.m.4.p.$.A A.q , , 8 , 8.p.q l q 8 8 ) i.v.i.2.7 4.i.#.& , t.w > 0.p.} > > ",
"M.r.< ; 3 > 9 6 q 3.6.r > q 8 0.N.Q ) t k A ~ w ; t.N.4.Q -.3 t.D.A 9 Y ; 8 8.<.~ t , Z 8 0.N.C [ q A Y C r > k.Z.o.k Y Y t 6 [ ",
"r.q 7 q w , , 8 8 ) t > 9 M 0 t.) 9 0 <.<.8 t 1 A <.4.C q t 8.A.a.4.D.t 8 Y 9 , C , l q N e.Y 6 9 7.C 8 r 8 Q 6.7.r 9 f %., z [ ",
"A r q Q #.> 6 > 9 t % > O.C C A r 9 q i.a.8 , M 6.r.-.l #.) q.4.c [ t # Y , ; 7 C > Z Z Z M 9 9 q N.2.7 < C Q a.Y r t k r 8 ~ <.",
", r A ~ > A A & , 2 ; Y q M Y q A 8 I 3.c.2 8 *.t 7 8 t w 8 l C t c.r t 9 9 6 , 7.C q q Z M A 8 Y 7.j.; 9 @.t 8 8 8 k 7 9 t t 8 ",
"2 8 ~ w , D.8.0 * ; 0 8 r N [ [ 6 6 t Q k.7 t t , 3 > , # 8 ) t i.i.Q 0 c I 8 8 l , r C 6.J t k 9 6.6.3 k r 7 2 3 1 3 7 q t > 3 ",
"# 8 1 , 8.q.~ 6 @ , Z > > Z 0.y.* 2 0 D.t ; , ; > * & > > q ) t.8.[ 7 q > 8 0 r 6 > > 4.r.3.Q *., [ w 2 7 ; # & ; * & 2 7 ; % ; ",
"& , 8 Y 4.M 8 > > q 8 8 7 [ V.t o 3.M.#.% 8 7 q f 7 @ 6 8 l y.[ l 9 p , > p 0 7 > 6 8 8.C.7 Z ) 7 t @ 7 6 9 0 ; & * ; > 6 q q , ",
"& , q ..A 7 > > 6 0 6 Z 8 e.0.: p H...; , Q 3 Q i.> > 3.8 [ ) 9 9 M A 8 0 8 > & 0 A 9 p.<., 9.k.1 & & .., 4.r.* o f 0 A , 3.i.0 ",
"> 8 7 , 4 4 0 [ 8 > Z ~ ~ ~ r q N...; [ C # ; e.0 # > Y ; Y 8 9 ; ..Y C.[ > ; > [ ^ [ Z 4 O.N.9 > 4.t ; 0 q.# o ; Y , < 6 q.0 ; ",
"0 7 A q = n.V.C ; r >., 9 M ~ 7.8.9 8.a.r & / 6 7.O 8 r 8 Q ) ! q y.y.x.q ; 8 r Z / N b [ ~ <.q t.a.9 > ~ 8 M @ 8 , 7 8 Y r 5.> ",
"6 8 ! > Z m.-.> > 8 b & k A 8.i.4.r.q 8 3 7 8 6 p.O > q Z A.Y t.q.t.t 5 # 8 9 6 [ 0 z ! e.q.0.j.r 6 0 0 8 z 7.> 9 8 3.p., 0 8.> ",
"6 8 8 l 7.P > @ + 8 , 8 q 0 C.%.-.s.> 7 > 0 8 9./ > 8 Y 8.2.5.7.8 ..r O @ q Z 8 Z 0 r 6 V.v [ :.> 8 > q , 5.t.0 9 p t.c > / 0.> ",
"l ; l Y Z r ; @ > 8 6 e.C p.y.; Y i.> ; 0 4.0 5.D.8 0 t.>.%.4.w 8 y.8 = & / 0 q Z ~ # 3.q.> 4.y.6 ; 6 ) 0 n.i.> q / P 9 8 p.p.& ",
"A > 8 t 0 = > / q 6 Z 7.Y 4.3 , Z.A & q Z , 6 V.0.> Z 5.r C 9 r 8 y.r y.q.0 > ! y.M N 7.4 q Z.q & q q > 0 Z./ > C 5.9 > 8 V.Z & ",
"J 6 8 q : 8 [ C 8 r y.8 6 A M ) ) 9 5.~ , # ! 7.e.6 A q , [ 9 9 P ~ P g.:.; 8 9 8.- 8 M ! ~ >.w 9.9 > & 3.4.i., C 8 > # / } p.8 ",
"8 ; 6.3 # Z 9 > > / 7.> Y [ Y 9 Y Y 2.) & 6 q A q.6 9 & 9 Y y.w y.9 w t ; , , 5.Y > / ~ M 0 C [ 4.l > i 9 I y.6 r ; # , q Z p., ",
"2 0 q.O > 6 9 & 0 C.P 8 O., ; 9 #.[ 4.Z.l Z / Y M ; 7 > Y p.7.> i.3 : > ; ; M 7.: q M > > Z Y ~ 7.D.8 Z M [ z 6 2 O ; Z N ~ b @ ",
"k M.r ; 6 ; k ; [ 0.} r > > > / i.v.e.2.> t.i.p.> > / 8.t.m.t 0 C.8 ; ; ; 1 ~ > , q > 6 6 ) i.y.p.[ 0 p.x.p.@ z 8 7 Y N.y.p.> > ",
"r.6.8 & $ C r 7 9 } ~ 6 > q 8 0.N.Y ) ../ y.&.C > Y i.y.) %.3 m.D.9 0 Z # 9 Z Z Z 8 6 q 8 e.n.Q / N 8.t.-.9 > n.7.4.i.t.>.Z 6 ! ",
"E c * 8 p.r.& 6 0 q.8 ; q q 0 e.#.8 9 C / %.v , 6 4.t.) q q q.Z.a.Y i.r 0 q q 0 ; # N 8 l t.l 8 9 P Z O.q ; 6 t.) 7.z A q > 6 7.",
"q r q Z.N.a.9 , ~ t & > ) l I o.9 9 8 9 q r 8 8 ) <.q 0 Q r.4.) t 7.a.6 *.; & & O , ~ b C M r 9 8 0 z w 8 8 4.c M A C w w 6 [ C ",
"7 t t.) C D.2 > 9 # & i.g.q l 6 0 f t f 9 ; 8 y...r 7 A o.I k t 5 i.p.k.7 @ 6 ; 0 V.} 9 q 8 c 3 3 q 8 : 0 i.r 8 r l 9 2 9 i.t 8 ",
"; 8 A 7 *.j.< 6 ; @ A C.a.7 f 3 z J 1 0 , 3 8.l 8 8 t 3 * 7 8 3 C i.t 3 > 6 q.l t.m.[ 7 l , q @ 7 8 1 4 8.f > 9 , 9 % , 8.q > r ",
"; , 7 7 Q 3 ; ; > Z 4.6.r 8 2 , u.6 > 6 9 q ~ 9 1 ; # & 7 ; > 8 C C < 1 8 A 8 7 8.[ 8 8 < 8 , # ; 9 C C c , 3 * > ; o t -.q 1 - ",
"l & , 8 C # 9 4.A C A P 9 0 ; 0 N ; O 0 Z y.8 } # # q 8 r ; ; r l w # , > 6 8 0 Y %.9 3 ; 8 & > 9 t.I p.; @ 8 q @ % 8 i.t <.; @ ",
"7 ; t r 8 > A.r q 7 ! O.5./ / 8 > 8 q [ Z.>.0 x.; 8 q Z ) 7.9 8 9 - ; >.9 > 8 8 a.#.C ~ q > q y.4.3.Z.&.& q V.> o ~ C.%., c.> ; ",
"k 6.t 9 , 3.y.M A 0 ) i.y.Z.7.8 0 e.q e.q.w Z D.0 ! / A.7.A.t Q # & q.M > > 6 y.2.D.a.Z.Y 9 7.q , y.r.w p H.8 # l S.8.v Z D.& / ",
"C.c.k k A C q.k.~ A q.y.t [ v.3 , ! Z C.C 9 e.[ > p.D.0.[ v.8 7.& 4.m.> & ; 8.D.y.q.q 8.q., / , 8 C.:.r D.l > Z.7.Q r ..m.C > m.",
"a.<.r.a.a.t 8.N.*.r 8.t e V.~ o Z 0.p.x.7.[ ~ ~ ! A.g.<.i.t 8 i.7.t...0 ; q [ D.i.w 9 C.b O / [ 8.i.Q <.) ~ 5.A.t q ~ 4.~ ~ / D.",
"..Q N.Z.%.Q D.D.3 q #...~ 7.4 ! J.0.p.O.~ %.~ [ ~ 7.q q.c...Y N.Z.N.7.> & Y [ y.#.M [ [ 8 [ H.[ y.%.) q Y -.~ 2.t 8.c.7.Y 4.O.q.",
"Y o.t.j.) 4.Z.%.6 l c.-.q q 8.S.S.7.i.8 r 1 q 9 C q.) -.8.v.y.A./ t.q & , A ) a.<.~ 9 9 y.S.S.) y.t r ; l w ~ ~ r -.t.Y 9 e C q.",
"0 q <.8.-.t.o.r l Q t 8 ) 4.Z.c.i.y.e.9 & 8 A q y.[ q [ q.<.n.) 9 M ! ! , M k.t #.I 8 8.C.x.p.t.t.8 ; 8 M M i.t 7 ) t.9 l t t.#.",
"k 3 A ..I t 2 , 8 8 q [ 4.t.8.-.q.i.i., 6 [ , / v.q Q Q ~ #./ w 8 p.v.<., ~ t < p.p./ t.4.~ t.i.i.; 6 ) , t.0.Z *.) Y 9 7 5.i.; ",
"l ; w r , < > 7.8 8 ) -.Y Y t ~ i.~ Y l l &.l D.t 8 s.t w C 9 r 9 t.C y.i.r # A y.-.! Y t [ i.-.~ q l >.M Z.5 0 Q q 8 6 l m.9 @ ",
"8 r , & w 7 I r > 9 8.q A q q.Y #.M i.t 1 6 7.<., < Q 8 4 ~ q 9 ) Y M 2.%.; 8 9 q./ 9 M q.A C o.y.r , 8 8.[ ; , -.7 % > 8.<., & ",
"8 k.+ O < 8 9 ; 2 7.<.7 6.) c 9 Y Y &.a.; 6 C Y 6 8 8 # 9 -.e.8 y.8 w r 1 ; , q.C 6 4.C 9 9 *.) &.[ ; , ~ M > > 7 % ; 0 Y A 6 6 ",
"6 r.r & > 3 9 9 C D.8 6 t < ; A *.a.7.C.l A 4.*.l > 8 , ~ D.<.6 i.5 ; ; < # C <.# 8 q : ; q ~ [ q.D.9 ! 4.*.8 & 8 , 6 / 4.Q 8 ; ",
"f r.t * # ; f 6 q.C ; 8 > > , Q i.c.t.-.0 i.c.i.7 > 4.) q.i.w 0 A., O O @ , C > 0 q ; > , ) D.y.e.P 0 m.c.y., 6 8.Z Q m.j.v., > ",
"t.-., @ + [ r 8 Y q > 8 6 ! 9 i.i.C C C 5.8.#.l 6 ) j.) ~ q r V.B.t l Y & q M C Z > > z 9 i.y.! C ~ 9.9...l 8 4.7.7.0.8.%.l 7 ) ",
"l ..& q A.a.% q 8 %.0 ; Z p z 8.A q 9 C Z A 9 7 6 4...A q P Z.D.:.~ B.8 A 9 8 8 > # N q z 8.l q 9 C p Z t , 8 4.A [ i M t , 8 4."
};
