/* XPM */
static char *b6b4fdc841df42ddae630e9a8575955fv7NzAXgBcSZcjMei[] = {
/* columns rows colors chars-per-pixel */
"64 64 203 2 ",
"   c #0C3E08",
".  c #103F06",
"X  c #0E4105",
"o  c #134505",
"O  c #164906",
"+  c #1B4D05",
"@  c #1B4D08",
"#  c #154608",
"$  c #1E5105",
"%  c #1F5109",
"&  c #204F05",
"*  c #235505",
"=  c #265A04",
"-  c #2B5D05",
";  c #245408",
":  c #295709",
">  c #265908",
",  c #2B5B08",
"<  c #315E09",
"1  c #315F07",
"2  c #2E6105",
"3  c #2E6108",
"4  c #326506",
"5  c #386707",
"6  c #366905",
"7  c #3A6C06",
"8  c #346408",
"9  c #39660A",
"0  c #366808",
"q  c #3B6B08",
"w  c #3E7106",
"e  c #3E7205",
"r  c #3F7108",
"t  c #406F09",
"y  c #417207",
"u  c #427505",
"i  c #437506",
"p  c #467A06",
"a  c #467906",
"s  c #4A7D06",
"d  c #4A7C06",
"f  c #467509",
"g  c #447409",
"h  c #487709",
"j  c #467808",
"k  c #4C7B09",
"l  c #487707",
"z  c #507F0A",
"x  c #547D24",
"c  c #BA7D12",
"v  c #4E8105",
"b  c #4E8008",
"n  c #528406",
"m  c #568905",
"M  c #5A8C06",
"N  c #518108",
"B  c #538309",
"V  c #578808",
"C  c #5B8B08",
"Z  c #5A870B",
"A  c #5E9105",
"S  c #5D8B16",
"D  c #629406",
"F  c #669905",
"G  c #6B9D06",
"H  c #639308",
"J  c #689808",
"K  c #6EA105",
"L  c #71A307",
"P  c #5B8130",
"I  c #70923F",
"U  c #60863B",
"Y  c #6C8F40",
"T  c #799A4A",
"R  c #779458",
"E  c #BE8212",
"W  c #C78E0F",
"Q  c #C78B0F",
"!  c #DA9D0E",
"~  c #D19B0C",
"^  c #C28612",
"/  c #C68913",
"(  c #CC8D19",
")  c #C98B14",
"_  c #CF911A",
"`  c #D59812",
"'  c #D7981E",
"]  c #DA9A1B",
"[  c #D19218",
"{  c #CE970D",
"}  c #D6A20B",
"|  c #DAA60A",
" . c #DFA018",
".. c #EAAD0D",
"X. c #E6B607",
"o. c #EEB20F",
"O. c #E8B60A",
"+. c #F2B40D",
"@. c #F8BA0B",
"#. c #E3A416",
"$. c #E6A912",
"%. c #EBAC12",
"&. c #E9AF1D",
"*. c #ECB312",
"=. c #EEB91C",
"-. c #F1B817",
";. c #D99B24",
":. c #D99C28",
">. c #DBA335",
",. c #E5A720",
"<. c #E6A923",
"1. c #EBAE24",
"2. c #E5AA28",
"3. c #EEB225",
"4. c #F5BA2A",
"5. c #F9BF2D",
"6. c #F5BA28",
"7. c #E6AE34",
"8. c #E9B43C",
"9. c #EFC106",
"0. c #F5C906",
"q. c #F2C309",
"w. c #FCCE0D",
"e. c #F4C708",
"r. c #FCD20C",
"t. c #FBD004",
"y. c #FCCC14",
"u. c #FBC71D",
"i. c #FBC91B",
"p. c #FDD513",
"a. c #FCD61A",
"s. c #FDD81B",
"d. c #FDD817",
"f. c #FAC423",
"g. c #F9C12A",
"h. c #FCD923",
"j. c #FDDA2B",
"k. c #FAD423",
"l. c #F9C133",
"z. c #FAC839",
"x. c #FCDC34",
"c. c #FCDD3D",
"v. c #FAD439",
"b. c #8AAB4B",
"n. c #8FA56C",
"m. c #DFB055",
"M. c #E7B648",
"N. c #F0BE49",
"B. c #EABE5B",
"V. c #E5B656",
"C. c #E1B661",
"Z. c #E4BD73",
"A. c #B2C27F",
"S. c #FAC841",
"D. c #F9CC4C",
"F. c #FCDD43",
"G. c #FCDE4B",
"H. c #F9CB53",
"J. c #F7CA59",
"K. c #FCDE54",
"L. c #FAD45A",
"P. c #FCE155",
"I. c #FCE05D",
"U. c #EBC36B",
"Y. c #F8CE62",
"T. c #F4C962",
"R. c #FBD769",
"E. c #ECC778",
"W. c #F8D57B",
"Q. c #F9D777",
"!. c #FBE26B",
"~. c #FAE265",
"^. c #FDE374",
"/. c #FDE47E",
"(. c #A8BA86",
"). c #BCC794",
"_. c #E8C885",
"`. c #F4D58A",
"'. c #E9CD96",
"]. c #ECD198",
"[. c #FAE783",
"{. c #FAE88A",
"}. c #F9E995",
"|. c #DDDCBE",
" X c #C8D0A6",
".X c #EFDEBD",
"XX c #F2DFB5",
"oX c #F8E7A4",
"OX c #F7E5B4",
"+X c #F8EDB3",
"@X c #F8ECBC",
"#X c #F2E1BC",
"$X c #EFE0C2",
"%X c #ECE6C9",
"&X c #F5E7C0",
"*X c #F7EAC6",
"=X c #F6ECCD",
"-X c #F3E7C9",
";X c #F3EAD3",
":X c #F4EBD6",
">X c #F7F2D5",
",X c #F7F3D9",
"<X c #F8F1CD",
/* pixels */
"w 3 k D n q 0 6 - 7 = 4 N u a 7 q 6 , 7 w 8 - 7 N 7 6 a V n s p q z N u a * * - + 6 d u a 7 q 6 - 6 7 8 - u v 6 q a u 8 3 w B 7 ",
"r 4 s s k 4 3 4 * - 6 A B u w 4 7 - * u 4 ; 7 M 0 4 t g 6 u 7 q 4 M V s * * e 2 0 F B w 7 - 7 = : u 4 * e M 4 6 0 7 4 ; w m 4 4 ",
"- 4 7 7 g 5 3 - + $ s A d 2 7 - w o 4 s 4 - n 0 - 0 - * * - 4 , l m q 4 = e v 7 m M l - 7 - 7 o 7 p , 4 B 1 = 6 - 6 O - N 0 - 4 ",
"- - - 3 d * + = - a s k 1 3 ; 4 - - s 4 6 q k g : + * 2 - * * 4 a u - - - u = 2 k d 1 4 ; 0 ; 4 a 4 8 g a t * + = ; . f a w : + ",
"p $ - 0 p > w s q y a l 6 6 - , 4 t o 7 s M 0 N $ O 5 6 5 - * 5 w 4 ; 1 * = 4 5 d t 6 4 = 1 4 6 # w v V 6 k + + + + y M 5 z ; + ",
"4 - q 8 3 6 K 6 6 4 d l s s 7 4 a 6 a s D y - M * 2 7 s n M 6 6 2 & * N 0 * 4 7 N d d p q 6 y 7 u n F q 7 C = o o m F 9 = M - - ",
"v V q w - s C k a 6 k A B A k q 6 n 0 D N 1 a D - a s F s F 6 z o 7 M 6 = * 6 D k D n D d 8 6 N 6 D b - v M = - a D s t s A = s ",
"D V p g u u n C k 6 M n 9 N M ; 4 u a D a 7 M h = D D z n M 4 z - D n 4 - * m A M z 9 m Z * a 6 a D g 7 M 6 - F v u 0 u A u 2 F ",
"k k n B B q B C q w b 8 7 D q 0 m m A B B d a k s H z s A 9 2 M D B 4 2 = u p A B 1 t F q 7 M n M z N d s k v D q w N s d k v D ",
"t a m D q a k a > 6 7 d d f 7 M K N m C M a a d f M k s h - v N s q 6 * 2 7 7 V f p l f 7 M G n C C V a d a k k 7 N u 0 d a h B ",
"a 7 N M k 0 6 6 8 7 b f 0 u s M H 7 D D h 4 7 < n D d d 7 d s 9 7 t a 2 u = q k z y 1 e v D M 7 F D k 4 q < n u 8 8 6 6 7 8 N s ",
"7 w g M k 6 3 s M q 8 - v g s D f w M s t , 3 7 M a v H B k 8 6 - - 7 m t 8 7 5 s 6 a y s A t u M d y 3 - w k > - u q 7 - 7 s f ",
"v 6 8 n q g 6 F f * * n n : v d 9 p v q z q 4 n q * M V 0 q , - O - B d y l q * M e a , n l 9 d s 6 z 0 8 s - # m V O $ q s 8 ; ",
"p 6 w q p 7 v k q + u M 6 = y q 7 6 7 < D J 6 q ; 6 z A 8 1 & - - s z F 8 s 6 4 z e 4 = y q 7 7 6 8 D H 8 4 8 d n M 6 y q - 4 a ",
"; d 0 8 a u g q + $ u 6 = = a z 4 3 * a F B y - 6 k 6 M - = o n M M M z - n s 7 6 6 7 u a s , - * N F B - 6 7 a m n 7 V 3 4 7 s ",
"- a - 3 4 a z 6 u 4 4 4 q a 6 3 : * - D B , q : * 5 6 B 4 & = D F z D 9 a F 6 7 p 6 l p 5 - * ; 0 D k 7 6 , 2 n n t y 6 0 - 2 4 ",
"7 f w 2 2 M C M y 1 t - * d : 6 ; $ d C h , 8 # $ 3 6 q - 4 u D V 7 M m M z 0 y M - = a - 6 $ ; d V z 4 - + 6 t q w ; 4 8 = 6 > ",
"4 r w b a m k 8 = q u O * y d q X 3 6 N k - ; o o = 0 * a p s m q a A G a a u 9 = + 3 u v 2 X 4 a n l - = $ - - 6 ; , 0 6 O $ ; ",
": 8 w m 6 f , * * 6 4 ; 4 M D ; o 6 a s 8 ; %   4 - * - d 4 a q q z N V D D 0 + + * u A H % + 7 z s 1 * * + 6 ; + O 0 - = + e - ",
"= 7 6 a a - o * , = 6 s s D h o e 7 s 6 # $ % g F a - 6 6 - 7 s p y y N Z H d * 4 m b A g $ a 0 y 0 O ; * v A + o 2 3 ; 2 n D u ",
"$ 8 8 k 3 , 7 N * 2 M s s d , a n , 3 8 - r w A n 4 + - w b k p y 5 6 N M M t $ m d v a < n s : 4 4 2 7 7 D 7 ; ; - 6 u e D N 7 ",
"= ; n q + n M 8 + N n 6 k 5 a m d , - k 6 3 p A 6 $ = $ n V C 7 V , 4 v a a - m N 2 k 6 p m u 4 4 l 8 = s M 0 $ = * 4 = v M a 4 ",
"2 6 M @ - g 7 - 6 D a 2 s z u p a k f F g 0 A M u = - 3 n m A 0 V - 4 7 e 1 7 A 4 2 s B g s a k z F q 6 D C 9 $ = * * 6 D M 7 + ",
"M M g o 9 4 y ; d n N 7 7 2 = l M M M B 6 v M k = = A A v A f w F 7 3 = 4 : n M 7 u q 4 4 s M M M z - N M k ; - m 4 = m M k = - ",
"A m $ ; , - 6 2 7 s z 0 * 7 4 m A s s t u u p 8 * m A N d j , m D a 6 a ; 3 n s p 7 = u 4 m A a s 7 w u a 8 - n D a g u d 9 2 v ",
"m w 3 w 8 - - 3 6 s q = 7 7 6 M k 6 6 s d 4 q : g k s a w 7 n F z d D Y >X>XR 1 a - w y e m u 4 6 N l 6 8 4 u b n 8 0 w g - e s ",
"u 0 7 p u = 2 - 6 q + = u a a a 0 6 6 M B 4 , w k m k w j b m v >X}.!.F.x.x.c.~.*X= u u a u 0 4 7 A b 3 ; a d b p 6 6 w 5 4 s s ",
"2 8 u s = u u + - * ; a t 7 a 7 u 4 a B C = 4 k q 3 8 q 8 3 w @XK.j.d.9.X.X.q.p.K.OX7 7 a 7 y 4 d N n ; q g q 2 8 8 w 3 7 q q 4 ",
"; 3 d 8 = D n 6 ; ; 6 4 0 e z s 2 3 6 k n 3 6 q 3 - > 3 @ {.F.0.X.{ E c E c c W 0.i.H.%Xb a 7 y 0 s z - w 0 2 - , : - 3 q q = : ",
"$ 4 : - n V p 4 O - u = = a n M @ = 7 A q ; 3 ; = % $  X[.d.0.} c c c c c c c c X.w.f.W.A.b p f - d 8 ; 2 ; @ % = $ % > 3 * + ; ",
"$ - 3 a v g 4 = = w 2 4 2 s D q X s D f @ 8 2 6 7 3 +Xh.e.{ E c c c c c c c c c } w.z.l.J.3 e d 4 q @ 3 2 6 7 $ % + $ - - w 7 3 ",
"$ - w y u - = * 2 4 4 u 4 M n * e L g ; - d - a M oXG.9.} E E c c c E c E c c c } p.G.S.l.OXm B > + $ g - v V % X w 6 w 2 v A 4 ",
"= 4 3 - - 1 7 s 6 = a p d d 8 7 A g ; v j + $ V }.s.q.Q c Q ! ` ) ( _ [ [ _ ( ^ | d.K.R.z.Y.*X9 = s q * 4 m + o $ a - % 2 m 6 * ",
"4 2 u 7 * M F y * 5 p - 6 y k v n 6 v n 8 $ v }.w.| ^ E Q ..+.*.] ' >.Z.'.;Xn.:Xv.j.!.[.Q.5.W.t m B 0 - s 4 u O 4 - 8 4 p 6 s - ",
"2 6 a = l M l - * 1 y + w y n M b V r 3 3 2 oXs.| E c ! +.+.#.] >._..X3 O 4 q P h.G.^././.z.Y.S 0 2 6 4 0 7 v = 6 4 s C - 6 n = ",
"4 3 4 e n l = O O 6 - 6 7 6 F g a B = 2 $ @XG.9.^ c / ..+.$.] :.'.).8 o O r u *Xd.K./././.S.H.:X- 4 = 7 - v m 4 6 u m q * p m = ",
"w ; w a u 6 * + - 6 - M a m m ; p M = = >Xh.@.Q ) $.+.%.] :.m.$X0 V 4 + $ s T P.x.^.[.[.[.H.H.=X= = 4 d 6 A M - y s k 5 6 M M $ ",
"u = 6 6 6 & * p 7 - u N a v , - D u * 6 [.e.| { #.+.+.#.] C..X8 4 M 6 V m 6 @Xh.P././././.L.H.>X$ 7 7 * 4 D a - a s 6 = 4 D a $ ",
"w 3 8 7 ; 6 s a 4 6 m 4 2 y f d k 6 v [.r.} ! +.+.#. .;.C.k q 6 f d a B k +XF.p.R.!.K.^./.L.T.n.m 6 - * v v M 2 u 4 = + l s M - ",
"0 = b - & e 5 = = l n = a d a 6 a p b F.e.` $.@.o.] ] V..Xa n 4 n 0 8 q ; !.d.u.S.v.j.K.^.L.R.s s w * e 6 u M 2 6 + + - 7 a M 2 ",
"; 6 n o 2 2 6 $ 7 F l 6 f 1 * 6 a s @Xt.$. .$.+.%.] :..Xp A n = M 1 ; = +Xp.y.g.g.i.p.F.^.R.`.d s D 6 u y p e 2 = o $ a u p t O ",
"e A 0 * 2 $ w ; d B s 8 * * = p M <XP.9. . .*.$.' >.'.n m A q 4 J 1 * {.d.y.u.f.u.y.y.D./.W.=XM M k 6 M M M + e 8 1 a A m M = = ",
"V b 8 $ X f 6 2 6 s d 2 * 7 4 m A }.h.%.] +.o.%.' _.).C v g , A H q +Xd.y.f.i.f.y.r.i.D.R.OXA a d y n m k 6 = A n N M m l u 2 a ",
"p r $ 6 A V $ 2 6 N 6 * e 7 7 m f ~.p.] ' +.+.%.>..Xm d 6 q m D z +XG.r.u.f.y.f.y.i.f.D.R.b.g 6 7 l y u t ; 2 n d v u y q - 2 n ",
"7 8 7 F A B 4 - d q + - v 7 a y x F.0.] #.o.$.%.Z.k q 6 s m N s [.s.w.g.g.i.r.y.y.g.5.Q.&Xg 8 6 1 5 7 8 4 6 v g t a a 8 4 4 s a ",
"2 q m s f D ; = 6 + $ M B 7 7 0 ,Xc.q. .*.o.%.%.].8 3 f y a u +Xd.y.f.5.5.u.r.w.i.g.5.}.7 8 r - - u 6 * 7 M 0 4 0 7 6 * 6 M 0 4 ",
"; 2 u 3 a V ; 3 ; o u D B 8 q - ,Xc.q.] #.#.] ] %X8 q : % +X~.r.i.g.5.u.y.i.y.f.5.z.Q.3 r - 7 O - 6 = 1 n 7 = q - 6 @ , n q = 0 ",
"; 2 3 , d , = $ - u v N 6 3 , , b.F.0.] ] ] ' ] ;X; + (.+Xc.p.y.g.g.g.y.w.y.w.f.l.Y.@X8 ; 4 , + * 4 f l q - , @ = = . y k 6 : & ",
"e $ - 6 a O 6 s a a y a 5 6 * 7 u ~.r.$.' ' ' ' %XR OXG.d.y.i.g.5.y.y.y.i.y.y.5.H.&X5 - * 6 + * 6 M u M $ O 6 7 O + 4 C 7 k ; O ",
"3 ; 7 0 4 = D q 7 - d l s p a 6 = *XL.t.q.O.*.O.k.r.t.y.f.5.5.f.y.w.y.u.5.i.u.H.;Xf f a 7 = 7 m s N D h + w A - X p F f 3 C = * ",
"r B 7 8 - v M y g 6 d M M D z 4 6 V @X-.q.0.r.w.y.u.f.g.5.5.g.y.y.u.f.5.5.5.J.&Xz A B D a 6 n y - M V 1 u K 4 + w G n q u A $ s ",
"D M w w w f n V a u n M q s M , - a y B.1.-.-.f.g.5.l.g.5.5.f.y.y.f.5.5.5.T.oXH M n q n V : p 4 4 D k 6 A 7 - D n a 8 f D a = A ",
"B k V b n q B M d 7 N 9 5 D d . u n M  X_.<.,.,.1.3.4.4.g.i.y.u.5.4.4.N.`.7 s M M 8 6 D t o s s n M s s s d s F 7 7 k s d d s D ",
"g d A D g k D H - 7 l y k N - a K m M l b.B.2.,.<.<.<.1.=.-.-.3.1.1.8.XX+ l z M h f s z 4 s K s M g s 7 a s k B 6 N M N a s y B ",
"p g V V p v D g - y Z d 7 6 n G K n M 8 1 * .XU.7.#.,.#.#.,.2.7.U.XXx O = a s z s l q 6 M G G p Z q 4 * 7 8 d a q k M a 6 8 a B ",
"6 7 d b s m g 6 7 d q 0 s v F V M V M 6 + 6 a ;X_.T.V.M.M.B.U.].|.t a d - y B t l u 6 N D M M V m 8 ; 4 f y M t - d n 5 y t V a ",
"w - u t a 9 - : 0 4 6 s N m N l n M M , 4 s - s M 7 A.;X;XI d 4 4 M M s - s 9 * M M p M s l M M M * 4 k - m m l k s a 6 3 v M * ",
"w ; 4 0 - ; = N 4 4 s k d a q s M d s w y h 7 D 6 2 k 7 8 f 5 0 8 M h M C 9 + u M l a p q z M l p 7 7 k u D 1 6 k 7 2 2 w D 0 + ",
"4 7 , * 8 3 a 0 - 6 B 7 u 7 B d a t M 6 : 2 n s - ; h 4 1 d 7 6 d a t z g ; 4 q m a 6 u m y a f M 0 = 6 n k * = k - @ 2 n k - $ ",
"4 N # # * 4 6 * ; v k 4 v d 7 6 a d l z * 2 u a 3 4 0 + 6 a V 6 M 8 < 6 * : - n a 4 s d 6 5 a d k s * - d y * = 3 @ * 4 a a - - ",
"2 m 8 $ = - 6 6 u D 4 2 t ; ; u l N n H 7 u z d u - 2 - d D k 4 M 4 & * * + d k + 4 q * & y p k n H 6 p s k 6 * 4 = 2 s s k 8 * ",
"w V r $ + * 7 3 n a * 4 * = - s M M m d 6 M M M - = N s n M 8 6 F - o # o - a = 6 7 * * - d D V M l 6 D Z M = 2 n u s A C M = = ",
"m k : O o z 8 4 a q 2 2 2 a 6 m M u u a n n g y 4 s n s d q 5 D H 9 7 d + 7 y a u = - e 6 M M a a a m n g t 4 N n N m N g w 4 d ",
"7 y + w F B @ 6 6 g 6 * u u e n f 6 0 y a u q - 4 s y a 7 l D D k d M 0 a 6 - 4 * + u 7 u n t 6 5 a u 7 6 = 6 s a s w y q - 4 v "
};
