/* XPM */
static char *_8d799230bb74eb69ef3f200d3d9565fOB2DeWzrSxgwPamc[] = {
/* columns rows colors chars-per-pixel */
"64 64 235 2 ",
"   c #0F0C0E",
".  c #19140E",
"X  c #000014",
"o  c #0D0813",
"O  c #150C14",
"+  c #121110",
"@  c #261415",
"#  c #2C1B13",
"$  c #103F07",
"%  c #2C230D",
"&  c #38270E",
"*  c #3B201A",
"=  c #55390D",
"-  c #4B2719",
";  c #572E1D",
":  c #503611",
">  c #6E3B1E",
",  c #6A391B",
"<  c #733C1F",
"1  c #6B3E0F",
"2  c #6D3D23",
"3  c #663B26",
"4  c #733C20",
"5  c #144505",
"6  c #164A06",
"7  c #1B4D05",
"8  c #1B4E08",
"9  c #1E5204",
"0  c #1E5108",
"q  c #13450B",
"w  c #235505",
"e  c #265A04",
"r  c #2B5D06",
"t  c #245408",
"y  c #2B5B08",
"u  c #285808",
"i  c #305F08",
"p  c #2E6105",
"a  c #2F6108",
"s  c #326506",
"d  c #366905",
"f  c #3A6D06",
"g  c #336408",
"h  c #376908",
"j  c #3C6B08",
"k  c #386708",
"l  c #3E7105",
"z  c #3F7008",
"x  c #3D6B32",
"c  c #75411B",
"v  c #7C421C",
"b  c #734010",
"n  c #72500A",
"m  c #406F09",
"M  c #427506",
"N  c #467905",
"B  c #4A7D06",
"V  c #447409",
"C  c #4B7B08",
"Z  c #487709",
"A  c #517F0A",
"S  c #6F432B",
"D  c #734B36",
"F  c #70452E",
"G  c #55400B",
"H  c #7A5645",
"J  c #8B4A19",
"K  c #85481A",
"L  c #9B5516",
"P  c #945516",
"I  c #8F5114",
"U  c #A75C15",
"Y  c #946C0A",
"T  c #8F630F",
"R  c #AD6113",
"E  c #AA6918",
"W  c #B66614",
"Q  c #B97914",
"!  c #AA600D",
"~  c #9F5C25",
"^  c #9F5D29",
"/  c #A35B24",
"(  c #9E6637",
")  c #9B6731",
"_  c #AC6225",
"`  c #A66023",
"'  c #B76A27",
"]  c #A36C37",
"[  c #D97B0D",
"{  c #C16C12",
"}  c #CC7311",
"|  c #D57710",
" . c #C8700E",
".. c #C7752C",
"X. c #D37C2D",
"o. c #E17D0D",
"O. c #86685C",
"+. c #907D5F",
"@. c #A8754B",
"#. c #8A7368",
"$. c #4E8105",
"%. c #4F8008",
"&. c #538506",
"*. c #568905",
"=. c #5A8C06",
"-. c #538308",
";. c #5B8B08",
":. c #5A870B",
">. c #5E9105",
",. c #629506",
"<. c #669905",
"1. c #6B9D06",
"2. c #639408",
"3. c #689908",
"4. c #58872A",
"5. c #6D9C21",
"6. c #759D59",
"7. c #AE8009",
"8. c #B68608",
"9. c #CB9408",
"0. c #D89B09",
"q. c #CC8814",
"w. c #E3810D",
"e. c #EA840B",
"r. c #F28A0A",
"t. c #F98D09",
"y. c #FB8E07",
"u. c #FB9109",
"i. c #FB9107",
"p. c #F49F1F",
"a. c #E29410",
"s. c #E9A708",
"d. c #F6AE0C",
"f. c #FBB606",
"g. c #FFBD01",
"h. c #FEBC02",
"j. c #FDB40C",
"k. c #FBBE0B",
"l. c #F3B206",
"z. c #FAAC13",
"x. c #F8A51B",
"c. c #F9A818",
"v. c #F5A31C",
"b. c #F9BF12",
"n. c #F5BD19",
"m. c #DD842F",
"M. c #DA8636",
"N. c #ED922E",
"B. c #E99520",
"V. c #F39C23",
"C. c #F0942C",
"Z. c #F39A26",
"A. c #ED8E33",
"S. c #E38934",
"D. c #F08E33",
"F. c #ED9131",
"G. c #EB943B",
"H. c #E99839",
"J. c #E1882C",
"K. c #F3AE2A",
"L. c #DEA407",
"P. c #F9C21B",
"I. c #F9C426",
"U. c #F5C52A",
"Y. c #F5C837",
"T. c #A8815E",
"R. c #B39478",
"E. c #AA8969",
"W. c #88AE64",
"Q. c #E99847",
"!. c #E39C53",
"~. c #EDA34C",
"^. c #F1AA53",
"/. c #F0AE58",
"(. c #F3B45E",
"). c #EBA552",
"_. c #E3A969",
"`. c #F5B964",
"'. c #E6B37A",
"]. c #F0BF73",
"[. c #F3CD47",
"{. c #F6D155",
"}. c #FBCD4F",
"|. c #EDD46C",
" X c #F1D562",
".X c #F6D769",
"XX c #FAC977",
"oX c #F6D975",
"OX c #F2CA6F",
"+X c #AB9A8E",
"@X c #95B692",
"#X c #87A882",
"$X c #B7A99C",
"%X c #B5B1B0",
"&X c #9B8880",
"*X c #CDB291",
"=X c #E7BA88",
"-X c #E6BE93",
";X c #C1B5A4",
":X c #D6BFA5",
">X c #ACCAA4",
",X c #BED8BD",
"<X c #FDD483",
"1X c #FDDD8C",
"2X c #F7DD84",
"3X c #FBDD91",
"4X c #F0D094",
"5X c #F0D287",
"6X c #F0E495",
"7X c #F0E28D",
"8X c #EAD0AB",
"9X c #F0E9A7",
"0X c #EDEDB4",
"qX c #F0EDB6",
"wX c #EDE9A7",
"eX c #CBC6BC",
"rX c #C0BFC1",
"tX c #BFD7CB",
"yX c #C6C7C8",
"uX c #CCD5DA",
"iX c #D6D9D7",
"pX c #CACFCC",
"aX c #E9DECA",
"sX c #CCE5CB",
"dX c #D7E8D9",
"fX c #F0F2CB",
"gX c #E9E5D9",
"hX c #EDF6D7",
"jX c #EDEECA",
"kX c #D2DCE2",
"lX c #DCE6EA",
"zX c #DDEAF2",
"xX c #E9EDE7",
"cX c #ECFAE8",
"vX c #EAF7F1",
/* pixels */
"l a C ,.&.j h d r z e s $.M M f h d a h l g r l %.j h M &.&.B B h A -.l M w w r 7 d C M M l f d a d d g r M &.h f M M s a l %.f ",
"z s B B C g a p e r s >.*.M l a d r w M s w f =.d s M V f M f h s >.;.B e w l s s <.-.l f p d p t l p r l =.s s d l a u l *.s s ",
"r s f f M h p r 7 9 $.>.C a f r l 5 s B g r &.k r d r t w a a e N &.m r r sXhXwXoX X{.{.6XjXdX5 d C a a -.i e d r s 7 r &.s r d ",
"e r r a Z w 7 e r M B C s p t s r a C p h l Z M u 7 w r r w w s M M cX7X{.P.P.g.g.P.P.P.P.h.P.|.jXa f l N f u 7 e t $ Z V m u 7 ",
"B 9 r s C t l %.j M M V h h e a d l 5 f B *.h -.w 5 h d d r w d qX XP.P.h.g.g.g.h.h.h.P.g.P.h.h.n.OXxX&.f %.6 7 6 7 M ;.h A w 7 ",
"s r z s a d 1.h j s B Z B B f s M f M &.<.M p =.w p z -.&.=.wXY.P.g.P.P.h.l.8.n = & % & n 7.f.k.f.k.C.-Xd ;.e 5 6 &.<.j e =.r r ",
"$.*.j z r $.;.%.M h B >.-.=.B h d &.d >.%.r N >.r M B 5.0XY.k.g.g.h.L.Y :   X X X X X X X X % 9.h.g.f.C._.xXw r N <.B m N >.r B ",
",.*.Z V l M &.*.B h =.*.k &.;.u s l N 3.Z j =.M e ,.hX.Xk.g.g.f.0.n . X X X X X X X X X X X X # 9.P.g.c.G._.gX1.B M k M >.N p ,.",
"Z %.&.-.-.j -.*.f f $.k h ,.j s *.*.>.-.-.B Z %.sX2XP.g.g.g.8.G   X X X X X X X X X X X X X X X : f.h.j.D.A.Q.aXh M %.%.Z %.$.,.",
"M M *.,.j N C Z e f f B C Z f =.1.&.=.*.=.Z Z hX[.P.g.g.s.n . X X X X X X X X X X X X X X X X X + L.h.h.C.A.D.Q.aX&.V g C Z M -.",
"M f &.;.C d d h k f -.Z d M B =.>.f <.,.Z a qXb.P.g.g.7.+ X X X X X X X X X X X X X X X X X X X X 7.h.h.Z.A.A.A.!.xXk h f a -.%.",
"f l V =.C h p B ;.h a r $.M B ,.Z l *.B ,XoXP.g.f.0.= X X X X X X X X X X X X X X X X X X X X X X Y h.f.}.~.D.D.A.!.W.h a l C M ",
"$.d h -.j l f <.Z w w &.*.y $.B d M $.vX{.k.g.g.7.% X X X X X X X X X X X X X X X X X X X X X X X T f.h..XoX^.D.A.A.4X7 h B a w ",
"B g l f Z f $.C h 7 l =.k w M h f f hX[.h.g.f.n   X X X X X X X X X X X o o O O O O O X X X X X X Y h.h..X3X<XQ.A.A.S.gXh a s N ",
"u B h g N M M k 7 9 M h e e Z B s fXP.P.h.s.n X X X X X : L 1 O X @ * ; 3 , 4 > 2 4 3 ; - # X X X 8.g.h.oX3X3XXXQ.A.A.'.a d f B ",
"r Z r r g N -.f M s d s h N h s hXb.g.P.s.% X X X X X 1 t.t.o.1 2 < < < > > 4 4 4 4 4 2 4 3 3 @   0.h.k.<X3X3X3X(.A.F.G.aXe a s ",
"f M l p p =.;.=.l a j r e Z y jXU.h.g.0.. X X X X X   [ i.I P } v < 4 4 < < < < S O.$XpXkXlXkX%XT.l.P.P.1X3X3X3X<XG.A.S.'.w d e ",
"g z l %.N *.Z h r f M 6 e z fXI.g.g.8.% X X X X @ = K y.r.w.e.o.v 4 4 4 < S #.%XzX6 e M $.a 5 s 0Xl.P.P.3X3X3X3X1X`.A.A.!.#X9 w ",
"u g l *.h M r w 9 h p 9 g hXI.g.g.9.+ X X X X & o.y.t.o.I |  .J 4 4 4 2 #.kXd 7 6 9 M >.>.7 7 f {.P.P.Y.3X3X3X3X3X<XG.A.G.gXM r ",
"r d s B N r q w r r d $.hX[.g.g.9.+ X X X X @ w.y.{ r.{ , < < < 4 4 O.pX:.2.C 9 p *.-.>.V 9 N cXI.P.P..X3X3X3X3X3X3X~.A.A.8X<.M ",
"9 g g C s y h &.9 p ;.%.{.h.g.0.& X X X X # U t.r.e.t.U 4 4 2 F D +X@XC =.=.z w *.B $.N a $.$.wXP.P.U.1X1X3X3X3X3X3X`.D.A.-XA k ",
"e u -.j 7 -.=.s 9 $.&.oXf.h.l.% X X X O ; K o.W L | R < 4 4 4 H zXu g %.N Z r &.&.p B d Z *.M Y.g.g..X3X3X3X3X3X3X3X<XD.A.'.M s ",
"p s ;.8 u Z f e d <.7XP.h.s.= X X o * I } [ y.I 4 < 4 4 2 F +X6.*.y s f l i f >.p s %.$.l $.jXk.g.P.2X3X3X3X3X3X3X3X3XG.G._.6.6 ",
"=.=.V 5 k s M t $.fXI.P.l.T X X X - U t.e.r.t.< 4 4 4 4 F $XZ M 3.d p r s e &.>.l l j p p B {.g.g.}.1X3X3X3X3X3X3X3X3XQ.D._.6.e ",
">.*.9 w a r d p >XY.P.g.Y o # @ ; J t.t.U [ [ < < < < H pXZ y *.2.M d N t s &.C B h e M s 0Xk.g.P.1X3X3X3X3X3X3X3X3X3X^.D._.6.N ",
"*.l a l a u r p 7Xk.g.s.. & [ J 4 { r.o.r.t.R < < < D yXf j -.<.-.B 2.j s N h r N u l M sX[.g.k.}.3X3X3X3X3X3X3X3X3X3X/.A.'.l B ",
"M d f B M e p hXh.P.f.G o ! e.J L o.} v W U v < 4 D uXM Z $.&.$.j $.h 7 B r w a M e Z M 2Xk.h.U.2X1X3X3X3X3X7X3X3X3X3X/.D.=XN B ",
"p g M Z r l l {.h.f.Y o 1 t. .e.e.y.W < < < 4 4 H uXa V i s M M j ;.h j d d r r $.M f fXP.h.f.K.`.<X1X1X}.I..X1X3X3X3X/.A.8Xh d ",
"t a C a r 2.qXk.h.0.% - U u.r.e.L y.U 4 4 4 4 F yXy e r 7 s B f =.>.B s j M s d f r @X[.g.g.z.N.A.H.`..Xg.U..XY.1X3X1X^.G.aXt y ",
"9 s y r &.&.U.g.h.n ; < W u.i. .L i.I < 4 4 S %Xe 0 9 e e f B =.&.B p l e k d d a r 7Xh.g.f.C.A.A.A.D.c.P.}.}.P.oX1X1X~.Q.vX8 t ",
"9 r a N $.wXk.g.0., < < W u.e.r.r.o.v < < 2 &Xd f r 6 p s l =.B l f l r e M p s w wXb.h.h.V.A.A.A.D.N.z.g.P.P.U.1X1X1XQ._.f f a ",
"9 r l l 4.U.g.f.T < < < W u.P U { K 4 4 < O.@XN ;.p e $.a $.B h h V M s s p r 9 cXP.g.h.c.N.D.A.A.D.D.p.g.j.K.<X3X3XoXS.8X$.>.p ",
"p s p p 0Xh.g.L.< < < < U r.J 4 < < < < F uXw *.f 7 e M w N s d w j M <.C w w >XY.g.g.j.N.N.Z.A.D.C.c.c.g.V.G.XX3X3X`.!.xX*.h w ",
"p p l f {.g.g.E < > K | t.t.U 4 < < < S $X9 B p &.5 p d s B B M f ;.=.*.j w sX Xg.g.f.N.N.z.j.N.C.z.h.z.h.V.A.`.3X3X~.=XC d $.e ",
"p s N fXI.h.j.v < < R u.U e. .4 < > S O.y a s p =.5 r f M <.M =.&.&.j i 7 p {.k.h.f.Z.A.x.h.p.A.v.g.p.x.h.N.A.^.3X<XQ.gXs d &.w ",
"s p p oXP.h.8.< < < } t.L e.o.4 < < D yX0 f s *.B w a N &.A $.-.h V k 5 x |.k.f.h.V.A.C.j.z.F.F.z.g.j.j.z.N.A.^.3XXX=Xj w B &.e ",
"l 0 l [.g.g.P < < < [ i.r.t.r.K < < #.r s $.d $.,.s d *.B V &.s s *.p 9 2Xh.h.h.c.A.A.Z.f.p.A.N.z.h.j.z.C.A.F.(.1X).xXk d =.=.w ",
"l p vXP.g.d.c < < < | e.U U t.L < 2 uXd M p p <.&.w M $.g V h s s =.d |.P.h.h.v.N.A.A.x.f.V.x.N.z.z.N.A.A.A.D.XXXX-Xj e p ,.N 9 ",
"N p hXP.h.0.< < < < W y.4 K r.R < #.$.C r 7 M &.=.p N d i B h h Z sX Xh.g.h.v.N.A.A.A.c.f.k.j.Z.z.j.N.A.A.A.Q.1X'.4.e 7 N A *.r ",
"s 9 wXP.h.8.< 4 K W  .i.K K r.R 2 rX%.C 7 p f M &.p d 9 d Z ;.g cX Xh.g.h.v.N.A.A.A.A.c.g.h.v.C.j.z.F.A.A.A.^.XXaX0 7 r f N =.r ",
"e d 6Xg.g.E 4 < } e.W u.L R t.I F B $.,.l M N N M 9 p w B =.*.fXY.g.g.h.v.A.A.A.D.A.A.x.h.h.Z.c.h.V.A.A.D.Q.XX8Xu q w M M B f 6 ",
"l >.oXg.g.T 4 v w.| U i.U e.} v O.>.=.C r *.;.=.p 9 B *.*.>.9XU.g.g.h.V.F.A.A.A.A.A.D.p.h.h.f.f.z.F.A.A.D.(.4XW.k r N >.*.=.e e ",
"=.$.oXg.h.T < < W t.t.e.< K < 2 +XZ B V B =.C M e M >.=.4. XP.g.g.j.Z.A.A.A.A.A.V.c.Z.V.h.c.x.V.F.A.A.A.G.5XxX=.&.$.=.&.N M s N ",
"N l 7XP.h.U < 4 4 J P < 4 4 4 2 %Xs d M B Z j r p $.*.wXU.P.g.g.z.C.A.A.A.A.A.V.h.z.Z.V.h.c.A.D.A.A.D.D.].gXs &.B $.M M j r p $.",
"d g wXh.g.Q < < 4 < < < < < < 2 yXd a d d d s s C vX2XP.g.g.f.x.N.A.A.A.A.A.F.j.g.V.C.z.g.z.A.A.A.A.A.~.jXd B m m M M s s s B M ",
"p h fXk.g.s.< < < < < < < < < S yXf f l d w s W.6XI.P.g.g.k.Z.F.A.A.A.C.V.V.v.h.h.f.f.h.h.z.A.A.A.A.G.8Xf =.k d d M h w d ;.k d ",
"t g >XI.P.g.P c < < < < < < > 3 %XZ r s r sX6XY.k.g.h.h.c.C.A.A.A.A.C.z.h.c.z.j.Z.c.c.p.f.c.D.A.D.G.4Xg &.f e h r d 7 y -.j e d ",
"9 p r  Xg.P.l.K < < < < < < 2 3 $Xa w cX2XP.g.P.g.g.z.C.A.A.A.A.A.A.c.g.z.N.f.z.F.A.A.Z.k.p.D.A.A.=XZ Z m r y 8 e e $ m B h y 0 ",
"l 0 r dXn.P.h.l.Q b c < < < < < ] 2XY.P.g.g.g.g.j.V.N.A.A.A.A.A.C.C.h.h.j.p.f.c.F.F.C.j.j.C.A.S.'.=.M ;.w 6 s f 6 8 s ;.f C w 6 ",
"p e j h *Xl.h.h.P.l.a.9.9.0.L.l.g.g.l.P.g.h.z.V.F.A.A.A.A.A.F.x.j.z.f.c.j.f.j.Z.D.D.p.k.V.D.S.=XW.B ,.Z 9 l >.e 5 B 2.V a =.e w ",
"M C j d pX] s.h.P.h.h.h.g.h.h.h.g.g.g.j.c.Z.N.A.A.A.A.A.F.D.p.f.z.x.h.C.C.Z.D.N.A.A.C.C.D.G.'.h e =.;.s l 1.s 7 f <.*.j M ,.w N ",
"<.;.l V m pX^ Q 0.l.f.h.g.h.f.f.z.v.V.N.N.A.A.A.A.A.A.A.D.C.z.h.Z.v.h.N.D.A.A.A.A.A.D.S.M.-XB s s 2.C d ,.f r ,.$.B k V ,.M e >.",
"A C *.%.-.h R./ ` _ W Q B.V.Z.C.A.A.A.A.A.A.A.A.A.A.A.A.A.N.f.h.z.f.j.N.A.A.A.A.A.A.A.M.:X0 A B &.=.B B B B B <.j h B B B B B ,.",
"z C >.<.V C ,.T./ / / ~ ~ _ X.A.A.A.A.A.A.A.A.A.A.A.A.A.A.Z.h.z.j.z.C.A.A.A.A.A.A.S.@.iXi B 1.$.;.V B h N C B A h &.=.&.N B M -.",
"B l *.-.B $.,.lX@.^ / / / / / _ ..J.A.A.A.A.A.A.A.A.A.C.V.j.j.Z.N.A.A.A.A.A.J.m...R.xXj =.1.1.B :.h d w m g B B h B =.M h g M &.",
"s l C -.B *.M h iX@./ / / / / / / / ' X.J.S.A.S.F.C.p.z.h.j.V.F.A.A.A.A.J.X...] $X4.g -.,.*.=.;.*.s w d M M ;.f s B &.k M m *.Z ",
"l r M j N h u u s lXT./ / / / / / / / / / _ ' ..m.a.s.s.B.J.m.m.X....._ _ ` E.iX=.=.B =.B N =.=.=.w s B r *.-.N C C N d r $.=.w ",
"z e g k r t e -.s p zXR./ / / / / / / / / / / / U / / _ _ _ _ / / / / / ( ;X#XM *.B N N j A ;.B B f f B M ,.i d C f s p l ,.d 8 ",
"g d y w g i N d e d &.f ;X( / / / / / / / / / / / / / / / / / / / / ( +XkXt a d &.B f M &.M V M =.d y d &.B w e Z r 8 p &.C e t ",
"g -.5 5 w d h w w &.C a C ,X$X@./ / / / / / / / / / / / / / / ( @.;XpXd r u r &.N p B B h d N B Z B w r N M w r p 8 w s B M r r ",
"a *.h 9 e p d d M ,.s p j u 0 zX;XT.] / ~ / / / / ~ ~ ~ ) @.R.eXW.i 0 w 9 6 N C 7 r j w w m B C -.2.d N A B s 9 s r p B B B s w ",
"l &.z 0 7 w f r &.N 9 s w e r B =.=.zXiX$X+XE.@.E.R.$XeXxX=.i h <.r 5 5 6 p N e f f w w r B >.*.=.N f ,.;.=.r p &.M B >.;.;.e e ",
"&.C r q 5 A d i N f p p p N d =.=.N M M *.&.M M s B *.B N j d ,.=.f f B 7 f l N M e r f d =.=.N N M &.&.M f s &.&.$.*.&.V l s B ",
"l M 7 l <.A 8 j d V d w M M l &.M f h M M M f r s B m N m B >.>.B B >.s N h a s e 7 M f M &.j f d N M m h r s B M B f V h r d B "
};
