/* XPM */
static char *_bef0a8808514025d52f910903722df7WXrBOhPeeu3SI3Xe[] = {
/* columns rows colors chars-per-pixel */
"64 64 192 2 ",
"   c #050505",
".  c #060905",
"X  c #0C0C0C",
"o  c #090D05",
"O  c #0B1305",
"+  c #111D05",
"@  c #121312",
"#  c #1D1D1D",
"$  c #0F2105",
"%  c #162005",
"&  c #162B06",
"*  c #1B3205",
"=  c #123F05",
"-  c #1B3B06",
";  c #173206",
":  c #203C04",
">  c #283C06",
",  c #26331D",
"<  c #2C361F",
"1  c #303A1F",
"2  c #262626",
"3  c #262A24",
"4  c #2B2B2B",
"5  c #282A25",
"6  c #293120",
"7  c #303820",
"8  c #353535",
"9  c #3B3B3B",
"0  c #144406",
"q  c #1D4304",
"w  c #164906",
"e  c #1B4D05",
"r  c #1B4D08",
"t  c #144709",
"y  c #1E5105",
"u  c #264B04",
"i  c #294B07",
"p  c #204206",
"a  c #304A07",
"s  c #235505",
"d  c #265A04",
"f  c #2A5C06",
"g  c #245408",
"h  c #285708",
"j  c #265808",
"k  c #2C5C08",
"l  c #2D5204",
"z  c #345C06",
"x  c #315E09",
"c  c #385A07",
"v  c #264611",
"b  c #334C17",
"n  c #2F5D16",
"m  c #385812",
"M  c #325814",
"N  c #2D6106",
"B  c #2F6108",
"V  c #326406",
"C  c #386507",
"Z  c #356906",
"A  c #3A6D06",
"S  c #346409",
"D  c #39660A",
"F  c #366908",
"G  c #3B6B08",
"H  c #3E7205",
"J  c #3F7008",
"K  c #336213",
"L  c #3D6D15",
"P  c #306019",
"I  c #38691B",
"U  c #374523",
"Y  c #3E6B22",
"T  c #486E07",
"R  c #406F08",
"E  c #416706",
"W  c #437506",
"Q  c #467906",
"!  c #4B7C06",
"~  c #467509",
"^  c #437308",
"/  c #497609",
"(  c #477808",
")  c #4A7A09",
"_  c #4D7D09",
"`  c #4C7C09",
"'  c #4C7405",
"]  c #517F0A",
"[  c #436C1E",
"{  c #406E12",
"}  c #4C771A",
"|  c #456F28",
" . c #517D28",
".. c #4D6439",
"X. c #637B3B",
"o. c #434343",
"O. c #4C4C4C",
"+. c #555555",
"@. c #5B5B5B",
"#. c #5B6D47",
"$. c #5F7D4E",
"%. c #5E6A53",
"&. c #616A5B",
"*. c #636363",
"=. c #6C6C6C",
"-. c #6C6C6C",
";. c #686D62",
":. c #747474",
">. c #7B7B7B",
",. c #4D8105",
"<. c #4F8008",
"1. c #538406",
"2. c #568906",
"3. c #5B8D06",
"4. c #508108",
"5. c #548408",
"6. c #5B8B08",
"7. c #588306",
"8. c #5E9105",
"9. c #54841C",
"0. c #598811",
"q. c #629506",
"w. c #669905",
"e. c #6A9D05",
"r. c #639309",
"t. c #5E8136",
"y. c #628D23",
"u. c #639021",
"i. c #698C3B",
"p. c #669030",
"a. c #749639",
"s. c #5B8042",
"d. c #6A8C48",
"f. c #6B914C",
"g. c #7D9F50",
"h. c #779554",
"j. c #678955",
"k. c #779761",
"l. c #7F9B71",
"z. c #8AAD56",
"x. c #93B35C",
"c. c #869F6A",
"v. c #8C9A7A",
"b. c #8FAB6A",
"n. c #95B562",
"m. c #84A074",
"M. c #9BB677",
"N. c #A0BA7F",
"B. c #838383",
"V. c #8D8D8D",
"C. c #979F8F",
"Z. c #929292",
"A. c #9C9C9C",
"S. c #98B080",
"D. c #9CB38F",
"F. c #9EA398",
"G. c #A4BC88",
"H. c #A0A599",
"J. c #AABE96",
"K. c #A4A4A4",
"L. c #A8A8A8",
"P. c #ABBCA1",
"I. c #B3B3B3",
"U. c #BABABA",
"Y. c #AEC29D",
"T. c #B3C69E",
"R. c #B7C8A9",
"E. c #BCCBB0",
"W. c #C0D2A8",
"Q. c #C7D4B7",
"!. c #C7D5B8",
"~. c #C4C4C4",
"^. c #CBCBCB",
"/. c #CAD5C3",
"(. c #D1DDC2",
"). c #D3DECB",
"_. c #D3D3D3",
"`. c #DCDCDB",
"'. c #D8E2CC",
"]. c #DCE4D5",
"[. c #E8EEDF",
"{. c #E1E8D6",
"}. c #E4E4E4",
"|. c gray93",
" X c #E7EDE2",
".X c #EFF2EC",
"XX c #ECF0E6",
"oX c #F1F4EB",
"OX c #F3F3F3",
"+X c #F8FAF7",
"@X c #FCFCFC",
"#X c #F6F8F2",
/* pixels */
"H B ) q.2.G F Z f G d V ,.W W A F Z B A H V f H 4.G F W 2.1.! ( F 4.4.H ~ s y N e Z ! W W G F Z V V A z N W ] A A W Q f B H <.G ",
"J V ! ,.( S V B d f Z 8.5.W H V G f g H V s L X.%.&.#.} F W A A S 8.3.,.d s H N Z q.4.W H B H d j W B d H 2.V Z V A V g H 3.V Z ",
"f V A A W F B d e y ! 8.( f G f H 0 V ) V ..;.-.=.=.=.&.M k V k ( 1.G N d H ,.A 3.3.( f A f A 0 A Q f V 2.N f V f Z e k 1.V f V ",
"f d f B ( g y d f W ! ,.S V s V f f ! V #.-.-.-.=.=.=.=.;.$.n z W W f N k W d N ! ( z V y V g V ( V F ^ ~ A g e d s = W ~ W g e ",
"Q y f F Q j H ,.G W W ~ A A d f V W 0 [ *.=.=.=.=.=.=.=.>.`./.S.9.z s f d d f Z Q R F V d N V Z t H ,.2.F ` e e w e W 6.Z ] s e ",
"Z f J F f Z e.Z A V ! ' ! ! F V ~ G R U @.=.=.=.=.=.=.=.>._.+X@X.XP.I ] V d V A 5.! ! ! F A G A Q ,.w.G A 6.d 0 w 1.w.C d 3.f f ",
",.2.G J f ! 6.<.W Z ! 8.1.3.! A F _ 6 4 *.-.=.=.=.=.=.=.B.L.I.`.@X@X+XJ.I d V q.` r.1.q.( F F 1.Z 8.<.f ,.3.d f Q w.4.R ! 8.d ! ",
"r.1.Q ^ W ^ 1.2.Q G 3.2.C ] 3.h S 6 2 2 O.-.=.=.=.=.=.=.B.L.L.L._.@X@X@X).s.6.8.3.4.C 7.2.d Q V Q q.~ G 3.F f w.,.W V W 8.W N w.",
"/ ,.2.1.5.G 1.2.J J ,.D F q.J x 7 2 2 2 4 *.=.=.-.-.-.-.>.L.L.L.L.~.@X@X@X@X{.z.2.x R w.F A 3.2.3.4.1.! ! ` ,.r.G H 4.,.Q ,.,.w.",
"W ~ 1.q.G ( ! ~ j Z G ! ! ~ G 6 2 2 2 2 2 o.*.-.-.-.-.-.>.L.L.L.L.L.^.+X@X@X@X+Xb.9.( W A r.e.1.6.6.2.~ ( Q ) ` G ,.W Z ( ( ~ 4.",
"~ A 4.3.( F F A V J <.^ V ^ b 2 2 2 2 2 2 4 +.-.-.-.-.-.:.L.L.L.L.L.L._.+X@X@X@X@XT.[ W ,.6.2.H w.r.~ V G V 2.^ V V D Z A x 4.! ",
"A H R 3.,.G N ! 3.F B N 4.m 4 2 2 2 2 2 2 2 9 -.-.-.-.-.:.K.L.L.L.L.L.L.~.@X@X@X@X@X!.} ,.3.^ W 6.( W B f W ! h k Q G Z f W ! ~ ",
",.Z V 5.G W A w.~ s s 1.5., 2 2 2 2 2 2 2 2 2 @.-.-.-.-.=.A.L.L.L.L.L.L.L.~.OX@X@X@X@XE.u.( D ! ,.F ] Z V ! d t 3.2.w e F ! V s ",
"Q Z H G ~ A ,.( F y H 3.M 3 2 2 2 2 2 2 2 2 2 8 -.-.-.-.-.Z.L.L.L.L.L.L.L.L.I._.+X@X@X@X(.} A G Z V r.w.V V V ! 1.3.V W F V V Q ",
"d ! Z S ( W W V e y W A v 3 2 2 2 2 2 2 2 2 2 2 *.-.-.-.-.V.L.L.L.L.L.L.L.L.L.L.U._.}.|.#XW.K B s ! w.4.f Z W ( 2.1.A 1.B V F ! ",
"f ~ f B V Q 5.A W V V N b 3 2 2 2 2 2 2 2 2 2 2 O.-.-.-.-.B.L.L.L.L.L.L.L.L.L.L.L.L.L.L.I.OXP.P V w.! A F f f ,.1.R W A F k N V ",
"G W H N N 6.6.8.R z H f , 2 2 2 2 2 2 2 2 2 2 2 o.=.=.=.=.>.H.L.L.L.L.L.L.L.L.L.L.L.L.L.L.U.OXD.] 6.` V f e Z ~ G H s V V d Z h ",
"V J H <.Q 2.( V d A W = @ 2 2 2 2 2 2 2 2 2 2 2 o.-.=.=.=.=.Z.L.L.L.L.L.L.L.L.L.L.L.L.L.L.L._..Xg.6.) h d y f d Z s k F F w y s ",
"h D H 1.F W B y s F u O   # 2 2 2 2 2 2 2 2 2 2 o.-.=.=.=.=.>.L.L.L.L.L.K.L.L.L.L.L.L.L.L.L.L.}.[.y.k d s e F j e w D f d e H N ",
"f Z Z Q W k 0 d d g +     @ 2 2 2 2 2 2 2 2 2 2 o.=.=.=.=.=.=.A.L.L.L.L.L.L.L.L.L.L.L.L.L.L.L.~.+XR.e y s 4.3.e 0 B B y N ,.q.W ",
"y V V ` V k A ,.g p .     @ 2 2 2 2 2 2 2 2 2 2 o.=.=.=.=.=.*.@.K.L.L.L.L.L.L.L.L.L.L.L.L.L.L.L.}.@Xd.A A q.A s e f A W W q.4.A ",
"d j 4.J e 5.3.V r +       @ 2 2 2 2 2 2 2 2 2 2 9 =.=.=.=.@.9 9 >.L.L.L.L.L.L.L.L.L.L.L.L.L.L.L.U.@X].Y ,.6.Z e d s V f ,.3.W V ",
"N Z 6.r h ~ G d z .       @ 2 2 2 2 2 2 2 2 2 2 9 =.=.=.=.O.8 8 o.V.L.L.L.L.L.L.L.L.L.L.L.L.L.L.L.}.@XR.q.6.Z y d d d V r.3.A e ",
"3.6.^ 0 F V W s c         # 2 2 2 2 2 2 2 2 2 2 9 =.=.=.O.8 8 8 8 o.K.L.L.L.L.L.L.L.L.L.L.L.L.L.L.U.@X@Xx.~ s N 2.V d 2.2.! d f ",
"8.2.y g B d F B i         # 2 2 2 2 2 2 2 2 2 2 9 =.*.O.8 8 8 8 8 8 :.L.L.L.L.L.L.L.L.K.L.L.L.L.L.L.}.@X'.G f 1.q.W W ~ Q D N ,.",
"2.H B A V d f V :       @ 2 2 2 2 2 5 2 2 2 2 2 8 o.8 8 8 8 8 8 8 8 9 Z.L.L.L.L.L.L.L.L.L.L.L.L.L.L.I..X@XJ.Q ! 4.F Z H ^ f H ! ",
"Q V A Q ^ g N d *       # 2 2 2 2 2 2 2 2 2 2 2 4 8 8 8 8 8 8 8 8 8 8 *.L.L.L.L.L.L.L.L.L.L.L.L.L.L.L.^.@XOXM.9.Q F F H S V ! ! ",
"B V W ! d W W q O   . . 2 2 2 2 2 2 2 2 2 2 2 2 8 8 8 8 8 8 8 8 8 8 8 o.V.L.L.L.L.L.L.L.L.L.L.L.L.L.L.L.}.@X@XT.L V W B A W F Z ",
"s B ` V h r.4.u     . @ 2 2 2 2 2 2 2 2 2 2 4 8 8 8 8 8 8 8 8 8 8 8 8 8 *.L.L.L.L.L.L.L.L.L.L.L.L.L.L.L.U.@X@X@X/.| k B F C d f ",
"y V d f 1.3.( ;     . 2 2 2 2 2 2 2 2 2 2 2 4 8 8 8 8 8 8 8 8 8 8 8 8 8 o.L.L.L.L.L.L.L.L.L.L.L.L.L.L.L.L.`.@X@X@Xl.y d V g r g ",
"y f V Q ,.~ f O     @ 2 2 2 2 2 2 2 2 2 2 4 8 8 8 8 8 8 8 8 8 8 8 8 8 8 8 Z.L.L.L.L.L.L.L.L.L.L.L.L.L.L.L.I..X@X@X/.n d N A A f ",
"y f H G W f q o     # 2 2 2 2 2 2 2 2 2 2 8 8 8 8 8 8 8 8 8 8 8 8 8 8 8 8 >.L.L.L.L.L.L.L.L.L.L.L.L.L.L.L.L.^.@X@XXXh.W N ,.8.V ",
"f V B f f z +       # 2 2 2 2 2 2 2 2 2 4 8 8 8 8 8 8 8 8 8 8 8 8 8 8 8 8 *.L.L.L.L.L.L.L.L.L.L.L.L.K.L.L.L.L.|.@X@XR.s N 2.F s ",
"V B W A y '         # 2 2 2 2 2 2 2 2 4 8 8 8 8 8 8 8 8 8 8 8 8 8 8 8 8 8 +.A.L.L.L.L.L.L.L.L.L.L.L.L.L.L.L.L._.@X@X|.L Q V ! f ",
"N V Q d W >         @ 2 2 2 2 2 2 2 4 8 8 8 8 8 8 8 8 8 8 8 8 8 8 8 8 8 8 +.A.L.L.L.L.L.L.L.L.L.L.L.L.L.L.L.L.U.@X@X@Xn.f Z 1.d ",
"V N V W E o         @ 2 2 2 2 2 2 2 8 8 8 8 8 8 8 8 8 8 8 8 8 8 8 8 8 8 8 o.Z.L.L.L.L.L.L.L.L.L.L.L.L.L.L.L.L.L.@X@X@X!.k Q 2.d ",
"H s H Q S O         X 2 2 2 2 2 2 8 8 8 8 8 8 8 8 8 8 8 8 8 8 8 8 8 8 8 8 9 V.L.L.L.L.L.L.L.L.L.L.L.L.L.L.L.L.L. X@X@X[. .3.3.y ",
"H d Z G V +         X 2 2 2 2 2 4 8 8 8 8 9 8 8 8 8 8 8 8 8 8 8 8 8 9 8 8 8 B.L.L.L.L.L.L.L.L.L.L.L.L.L.L.L.L.L._.@X@X@Xf.q.Q y ",
"H N B H g :         @ 2 2 2 2 4 8 8 8 8 8 8 8 8 8 8 8 8 8 8 8 8 8 8 8 8 8 8 :.L.L.L.L.L.L.L.L.L.L.L.L.L.L.L.L.L.~.@X@X@XN.] 2.V ",
"A s <.j e i         @ 2 2 2 4 8 8 8 8 8 8 8 8 8 8 8 8 8 8 8 8 8 8 8 8 8 8 8 *.L.L.L.L.L.L.L.L.L.L.L.L.L.L.L.L.L.U.@X@X@XQ.W 3.f ",
"j Z 2.t f p         @ 2 2 2 8 8 8 8 8 8 8 8 8 8 8 8 8 8 8 8 8 8 8 8 8 8 8 8 +.L.L.L.L.L.L.L.L.L.L.L.L.L.L.L.L.L.U.OX@X@X{.p.R e ",
"H 8.F y N =         @ 2 4 4 8 8 8 8 8 8 8 8 8 8 8 8 8 8 8 8 8 8 8 8 8 8 8 8 O.A.L.L.L.L.L.L.L.L.L.L.L.L.L.L.L.L.I.OX@X@XoXn.d d ",
"2.<.V y 0 c         X 4 4 8 8 8 8 8 8 8 8 8 8 8 8 8 8 8 8 8 8 8 8 8 8 8 8 8 9 V.L.L.L.L.L.L.L.L.L.L.L.L.L.L.L.L.L.}.@X@X@XG.N Q ",
"Q J y F 3.T       X # 8 8 8 8 8 8 8 8 8 8 8 8 8 8 9 8 8 8 8 8 8 8 8 8 8 8 8 9 B.L.L.L.L.L.L.L.L.L.L.L.L.L.L.L.L.L.L.^.@X@XR.N ,.",
"A V H q.3.'       X 4 8 8 8 8 8 8 8 8 8 8 8 8 8 8 8 8 8 8 8 8 8 8 8 8 8 8 8 8 :.L.L.L.L.L.L.L.L.L.L.L.L.L.L.L.L.L.L.L.+X@X].,.~ ",
"B F 2.! Q 3.      X 8 8 8 8 8 8 8 8 8 8 8 8 8 8 8 8 8 8 8 8 8 8 8 8 8 8 8 8 8 -.L.L.L.L.L.L.L.L.L.L.L.L.L.L.L.L.L.L.L.}.@X#XF V ",
"s V W B ~ 5..     @ 8 8 8 8 8 8 8 8 8 8 8 8 8 8 8 8 8 8 8 8 8 8 8 8 8 8 8 8 9 @.A.L.L.L.L.L.L.L.L.L.L.L.L.L.L.L.L.L.L.^.@X@XY Z ",
"s N B f ! k O     X 8 8 8 8 8 8 8 8 8 8 8 8 8 8 8 8 8 8 8 8 8 8 8 8 8 8 8 8 o.*.-.V.L.L.L.L.L.L.L.L.L.L.L.L.L.L.L.L.L.U.+X+X$.s ",
"H y d Z ~ e &     . 2 8 8 8 8 8 8 8 8 8 8 8 8 8 9 8 8 8 8 8 8 8 8 8 8 8 8 9 @.*.*.-.B.L.L.L.L.L.L.L.L.L.L.L.L.L.L.L.L.I..X@Xj.e ",
"B s G Z V d %     . X # 8 8 8 8 8 8 8 8 8 8 8 8 8 8 8 8 8 8 8 8 8 8 8 8 8 O.@.*.*.*.*.V.K.L.L.L.L.L.L.L.L.L.L.L.L.L.L.I.|.@Xk.s ",
"W 4.G Z f c           . 4 8 8 8 8 8 8 8 8 8 8 8 8 8 8 8 8 8 8 8 8 8 8 8 9 @.*.*.*.*.*.*.B.L.L.L.L.L.L.L.L.L.L.L.L.L.L.U.+X@Xc.( ",
"r.3.H J c +             @ 4 8 8 8 8 8 8 8 8 8 8 8 8 8 8 8 8 8 8 8 8 8 9 O.*.*.*.*.*.*.*.*.V.L.L.L.L.L.L.L.L.L.L.L.L.L.~.@X@Xm.8.",
"] ! 2.4.a .               # 8 8 8 8 8 8 8 8 8 8 8 8 8 8 8 8 8 8 8 8 8 9 @.*.*.*.*.*.*.*.*.*.A.L.L.L.L.L.L.L.L.L.L.L.L.U..X@Xz.8.",
"^ ! 8.7.O                 X 2 8 8 8 8 8 8 8 8 8 8 8 8 8 8 8 8 8 8 8 8 +.*.*.*.*.*.*.*.*.*.*.B.L.L.L.L.L.L.L.L.L.L.L.L.L.L._.i.5.",
"Q W 1.E O                   @ 8 8 8 8 8 8 8 8 8 8 8 8 8 8 8 8 8 8 8 o.*.*.*.*.*.*.*.*.*.*.*.:.A.L.L.L.L.L.L.L.L.L.L.L.L.K.K.~ 5.",
"Z G ! <.+ .                   4 8 8 8 8 8 8 8 8 8 8 8 8 8 8 8 8 8 8 *.*.*.*.*.*.*.*.*.*.*.*.*.V.L.L.L.L.L.L.L.L.L.A.Z.K.L.F.2.( ",
"H k W R *                     @ 8 8 8 8 8 8 8 8 8 8 8 8 8 8 8 8 9 +.*.*.*.*.*.*.*.*.*.*.*.*.*.>.L.L.L.L.L.L.L.Z.B.:.=.A.L.v.6.s ",
"H s V D -                   . @ 4 9 8 8 8 8 8 8 8 8 8 8 8 8 8 8 O.*.*.*.*.*.*.*.*.*.*.*.*.*.*.=.A.L.L.L.A.B.:.=.=.=.:.L.L.v.D r ",
"V A d s i o               X X # # # # # # # # 4 4 9 8 8 8 8 8 o.@.*.*.*.*.*.*.*.*.*.*.*.*.*.*.=.Z.V.B.:.=.=.=.=.=.=.Z.L.K.h.d s ",
"V 4.t t u +         @ @ @ @ @ # # # # # # # # # # 2 4 8 8 8 9 *.*.*.*.*.*.*.*.*.*.*.*.-.=.=.=.=.-.-.=.=.=.=.=.=.=.l.L.L.H.d.f k ",
"N 5.F y s &       @ # # # # # # # # # # # # # # # # # # 2 # # 9 *.*.*.*.*.*.*.*.*.-.-.-.-.-.-.-.-.-.-.-.=.=.=.=.-.Z.L.L.H.i.C s ",
"J 2.J y r ;     X # # # # # # # # # # # # # # # # # # # # # # # 8 O.*.*.*.*.*.-.-.-.-.-.-.-.-.-.-.-.-.-.=.=.=.=.:.K.L.L.H.a.h d ",
"2.) h w t c X X @ # # # # # # # # # # # # # # # # # # # # # # # # # 8 +.-.=.=.=.-.-.-.-.-.-.-.-.-.-.-.-.=.=.=.=.B.L.L.L.F.t.V ( ",
"H J y H w.c   @ # # # # # # # # # # # # # # # # # # # # # # # # # # # 4 *.=.=.=.-.-.-.-.-.-.-.-.-.-.-.-.=.=.=.=.K.L.L.L.v.S V 1."
};
