/* XPM */
static char *e84cbd78ad7e468d95a9ec59764981030q7oTlnRnmMAQ0rQ[] = {
/* columns rows colors chars-per-pixel */
"80 80 66 1 ",
"  c #0C3D05",
". c #0C3F08",
"X c #0E4104",
"o c #0E410B",
"O c #134505",
"+ c #184607",
"@ c #164905",
"# c #1B4D05",
"$ c #124409",
"% c #174909",
"& c #1B4D08",
"* c #1E5204",
"= c #1E5108",
"- c #204F06",
"; c #214F08",
": c #235505",
"> c #295707",
", c #255A04",
"< c #2A5D05",
"1 c #245409",
"2 c #295609",
"3 c #265909",
"4 c #2C5B08",
"5 c #305F07",
"6 c #315E09",
"7 c #2D6204",
"8 c #2E6108",
"9 c #336506",
"0 c #386707",
"q c #356A05",
"w c #3A6C06",
"e c #346309",
"r c #396609",
"t c #366908",
"y c #3C6B09",
"u c #3D7205",
"i c #3E7108",
"p c #416E0A",
"a c #427506",
"s c #457905",
"d c #4A7D06",
"f c #447309",
"g c #49760A",
"h c #467808",
"j c #4C7B09",
"k c #517F09",
"l c #4E8105",
"z c #4F8008",
"x c #528506",
"c c #568905",
"v c #5A8D06",
"b c #548309",
"n c #58870A",
"m c #578808",
"M c #5B8B09",
"N c #5E9105",
"B c #5F9008",
"V c #608F09",
"C c #629406",
"Z c #669905",
"A c #6A9C05",
"S c #639308",
"D c #68970A",
"F c #6A9A08",
"G c #6EA104",
"H c #71A305",
/* pixels */
"fw4vCcd4ie8wt*7casaaew89wut<99xs00uvdcadwaS9wx,::9#,fdaaawyq<y7i499ddyiasu595dda",
"wq9Nzdf8t8:<99vbwdw8wu:9ww><wVa80ajgdsaf5gCnc9*<9:*lCpswt5s:<tu8>9xn99t9s8>9dv99",
"yeqsfze<87**3dZns9s:w3#<l9:wbd:qwy6:t:w,rCca9,#ucusZMb7a9<t+1su:9sc><i8tt&<dm5<w",
":<qt9fyq<,#*wMcf,qe>dO:dwy2ss775,,::9884dsg78<ac99cvj<7p&s>@ist89b9,94>q:+9c9<9,",
",73<7d8X,*<szsd9q8#q<#cu<s4bwj::@,<9#,&wwsr,85<aXifxe99:>a.sl*z3c0x23@:3$Ob0x4,@",
"l:=7tz83acyd9xpwt7=t>z,XsyZyaj*#:uq0,:,wuy>3,*:97wwc9p<,<,9fX8slM<V1*%*+:dC<V2:#",
"s#tt8y<lA9<a7vem,v*qa9<uzvD1sn:Os<lwvpeeq,+1xa,,w<Nrc4sw<aw:tdzGy9N9#@ 9cZy-Vy:,",
"qifyt<7Nv0s9agvnlD<uwzxacNs*sN7<swFxZdwa3#waj:<<8cnaFaAwtiyNibNx<qNd*#*ZZc6,Nd*d",
"NSd9s3ddvbdtszCdcvjr4v<aZk09Zv*dsCSpHhwc 9Zk7,<:cFfCbxvbi4as:Axp<xZ,<alvcygcZq<m",
"BmjzfajfSdm8zvdrwCd;<x<ZMd9kca*vGmbsA4sk>Cnd77*uCMvcp9vM,7x<sZbwavd&aAxwp6smb,sA",
"gzxcjMednvfedzrecZ3tlccCbbcpsksCVgdCb&anCvf97,qdgCcp6gZf,zczZkbcjsbsvZ0upvdskscZ",
"yaznAyszjd49hryddj9BZCcbbvadsxamdsxcy:ccbs9<,,s0sMg0sdx<xZAxVgCadsxaxbesvapsxskM",
"zqzvMjedwi=9wdMfuycnHslCZnd9s0fCvdsy4sxys9xa*7y>sksvseasvAvuZVMctiarvfwfa,<aarcf",
"d8xsvx7y8yaudje<luxvS9cZMp3ty1vCkabfxkw9w5k7ss<<fgbp1aplbApuZCje7u1sxy<<9piw2fcj",
"uwfwMn9a<cSt9<8cdwnNgelcsia:eavssvZcgp5t,6<dcs4py5sd9c9xvbrscxyd389xe4<dua789cas",
"sd4acyawuAf8O9dZ4wxdruzzrbe8wcg&wVmeww>7#&ubag9m>1mdwf4dxywdlwgg<tdh&$sG3@*qsa>:",
"v78iaws<Ndf9+lvj+iaeeyai4cDd8s3@cgCw<6:,-<CyGrum19M9d>9sw<yis4hCMr99:avxd#qwq9>a",
"t9c9rdydgy,+,cht*wwxs4u3tGDxt6<sggZ43>OgadcvV,wn9wd9a:wwgc8qq:NFS4<taxfCn9Ce3tax",
"1as1qhssy0#:qw9,,wza,,7&NSdfwetswwM9<#*ZmCbCf<sZwa99ysssje+7&sAxs9qttsvS<zg<tr9a",
"<uy38eqvgqx9q79wss,9><#sSn3y61+q9ak7,OaCAkcVesZn,udards9><>*9CMyww<,tcbyswwp,,79",
"wasq83lNnCf<9i<3wf:a&*8xnn=y:+*9<fp*a:xZvpxmkZnf<sZy:1k#u:>:ddZp99+,ifts9:te:w93",
"eiqsfwZddy<9gt*+jese@@fwnj7e#O@3<y:9dubvgylCHawxwfq::9gqzOO9fsC977+7eetq1,9a##:,",
"3wtlvidf0,<4d<#*dfA1 <wqxd<<*.$:><,xpsds6gvCMcxx<2@*#dsAio@wdxn97,*>:=8@-i47#*,,",
">t<dd9he:#:<q7,9vAdX#9sdj4@3oodp,:7d,wfeaddsnSCv::OqqcZC3@8wkaw+3#@td=+$t43<*wc:",
",9wtdse;.<,8>ldccv6$z9syy+&:,cFju:wt,uavxtapcbCns*<vzbvg%usefy>@&:aGa$%*s#,9sAcs",
"*899zq1<8v>,iMsdxf2av4e99&awsCnf**<wldxiyw9abMCb0OvddxkeuC9<8w,tatvv41*39wawvCjq",
":<<ni#tFNe+7Ncqzy4axv;w1sqy<cCa:*,,sCfv8vy,indzp<dZ9ss6tlN8q2yq92wZae@*<<w5aCdp9",
"7:uB3+ddw<<dZ<qsaclzd99aVt8tCmf:<*#lvvS<Z41yaua<wCg*dwdcaN9s6Ar93cSj9#7*<><bSda*",
"q7vhX4fth&wvVw9xdi<xaCtZvkqxZxs*,wacdCgwVp:a5u54cM9<dbs9djxkcZbeuZnx*,<<<,aZmb,#",
"ZNc4$p7a9&xaVaqp:79dcZxNj5sNxf<#lGvkvxysAd7<:q1acvuua79<zdAbvne7vcjrOqNa&wcvjy-9",
"NNs$2w+a<qiuMat#w7ucNnszpwdahr#dZccgxy,vAaw<s:&svkda<,s7zvSasg9dada<7vZxwdadp97v",
"vl4,r9+w:w<sx09>l:sccyuwaM5ar1tdslfay4xAnxdZj:as09sw:dwqxva8ayvtww67ssvpywwse7as",
"zwtutj3<:9waw*,tzqdli8ueCd8t2tgdcdawhCZvgscj$fse>7s<,x0sdd4q9dC9u,9dsxze9<sf>qsz",
"a9itca39t:9w1:<aasiu9u8dxCu10abbdwidydyspab%<d,:,<d8qgaaaqi7icvz31ajgjiuwswt8hjj",
"7<ydf<<M<*35$wsatdfistqddS<<wgy,9ef4<wdapsM,d49a>4cas9wswai7dfSy#thy9788ut4wwye8",
"31sse*xCs9::*w<wqlsz7:atdnt<fy<7426%8wx9nCns9aas:wa>90szdwwuyavf8fy98<818<9ri8,<",
"*,i<3aZkx7@@s0<<qxdv*7eqNj,ew-<,:*7:,xwvCcf7uw#l:u8,77vfC8vp<sz83y<=113&3:<t8=*<",
"#84:icxpq,,:s<7:dsAhX>eNn4&<#<,#***7<xxvwse9w#7a7w,73udvM3Br<ft$<337@*,=+%<:>8@*",
"::twdsaq7,,qy,s<dcV4XlAbt=twwass*#uwqnvwseaa;<a97<#u<acZy*vs8y:=w7ysd1*@<37easzq",
"*1wiws9,,*7u,aw7ccg:uHn4>:dy:lZ<,7c>scwyw6c<a7q,7&7c,dvd7wZs>,O8a3qGt%X7dqd4qAd7",
"*7t<3q1w,vq7:lsddg4iNn4>ds4X7Sq<Xql#sa<t:wpdZx4:,,lkddd6tcDe*wz9:,CeXOXz951*Na7*",
"9w3uq&wZNd*7ad7ww0adcy3vSt:#v4d> u8*z<bi*kdCvb&<,9dwca0wdad4sAg8,ss<wX7i:9#sgqx:",
"78wv<>Zvn,,<sy:qaxccdnsc8q3ui#Z<@uq7CbxdvVNfp<#a8uad9wxcvfvscy7w,l:xy*7q:xss,xp#",
",wtu:dcgw*<#s1*ag9ZnsVy<94*a&sv*OwuuCvtAfdpe*#,g9,xu9dqxFiSh6,w,w9<Ci79f9Cd7:va,",
"987qsdsp@#@,s#ay<vAeany*8:qwwva9,waczavs9wg>@X9sw7s7s49Zj9vh797,u<svl79asv9:avs:",
"u37sasw9##*w<9valCj>iCa*77lswxAs,accyxdetfC@##wb7s9c,#cve<vc<,,udwdZx,iilfeysAx#",
"s:9wyu2>#aw7>dbddx4*vZ<,7qa<9Zv:7sviyde93Ch,vwd,7avx9scf<sZa*,9w9,vZ<,azd99,xA<*",
"st<5w<:<sx7qaxwqsw:sxa,usa>*lcCq9lu<fa9w<vpxvZt:wixw<aa<ucx:qsa<@uvcl7asq<OqMxs:",
"it,fq+wsl7q9aM:9usvasrdvt,+qdsS59u9>v4x,cgsykf#995C1:uacsapwNy::7daCk:a9:::davb,",
"t:qv#*wu3749A97sdd09xixgx&:uesM99q+<xaS:Cy4r9>:54vd#asgw,xycfx<<u09vs7t*&*7w9vk,",
"<=chX,95t#9NN9qd97&ayxyNvswc0ss,<7&djAp:Vw1<3*31xb,7dy<<qgakaGs9asqmq97+O:ss9v<#",
"8zN1:7:qw#ldCut5*:>xsAzZbq7AdZ<#3davvv<qCf#7:,-wk,:qw*<:xaZsNMs<CkvkOa>#wuNccz#:",
"zNd17,$s39gwVe9&<<wlNvzxp<Nvbx,9sBvdcf2lGy<,:*&s77aa<,q,kvCxcg9xCkv<#vsaavCkMe7w",
"zli,@OpV@w4anw9:d<acNauasxcgpy,acvnsh4yAVg9cx+tilsu<,a09cvdwspclkpf#uCxxvxxys<qd",
"is4#aZZ<*q9xa,:qd,dxseuedas0a>,sczstydZNkscv=wawq9:#,x:axzewwasuay<#axazauaw9*wx",
"uteaAvcw8<da9#,laasa9t99yqwe9<sxdawaxcsdpaVy:z,:#<O*qdassw9w,w9a6w<uxuadas90>wxs",
"96svxaNb>:i9O<xc9ay9yutwwu4,9vdwe>ixzduhepZdvy**:O<dS9uiq9s<<tu819dMw99ta918sM09",
"76sdwiDr@t<: aAmd8a<quf<u<19zn998ff189u89CMgw8X7lwsCMb8u9<w+<yq1<ave,wqtw:<aNt*w",
"=,tw>ane38#*7Vvj<7y:ld387t1gz<7e9,==9<q>dlj13<9csqcNbt<f1a<@7q88emt7q5>q3+9vt<95",
"*7<9<dy+<#,uxddeqe&7Ne*<7s>xwa>,##*q&<*tyse%7tes%tdxret1*s$>*:zixt<<;#><+Odyj<>#",
"a3*8qd,*adax0lfww7@as,*Oatvfqz##<w9w*::wii>:4::q7aqc6a&=79@*<czuC:-#w9#&@uZ<N>,O",
"s+999y#9Ay7f,v6x<c,a,,18zlF>lz:Od7u0dt99u<#=au,7u3cps9aw<<qdzzsAh*#tA4.,sZg:Vw*#",
"4<fw99<vv,sewjdCdZw97acscCd7lvq7dqAzCz9i7+:wc><74aMwAtAi<tvxizvvt,lH9O@vZMt3Ns#a",
"cVd8w7amkbawsdZkvMhe9cwwCdy8vN7dsNDaAdwn+$xM9,3>sAfCnxCdi9c3*zNg7sHt,9aDcfgsZ9:v",
"SvduhudiCszadvbpyNb>*x7Nvk9sVg#xAMbwHeax+sZk,*#qZvvvfecM<7c,9cF0pvz#sZvug4jvM1uZ",
"bzbnfMesmvb8lly6xZ9 qclCblxadduZSjdvn;dnxcjwq,,ljCBh6hZkO,vadCkdddkucAwwwxsakacV",
"psbNAfhdCFe9swesck;qZNvngxsgjcsvjfcvk1vcvZdz<#wjdCd6pxv6:cAdvbgcpsxdbcescnxaxzjM",
"hsxNnhdcHg:<zzvfaysAHvlM5a0wsw0vysbdVdnZvNVw@&wcdngcxwatAAGtCyuw7as6xhtxkvaas6sx",
"d9xdnzsZkpwwvkw9yiGSGnvk99*9w6dmxdszMcvZasg<,<wsdkdw9q9ZDASdNww::w9ichefsCtqewcx",
"qtfzxsvsytyspe9xxNMnvnNx9#7ajwcn9sdvjzNpwygsx<9xkrhxtwvZnMnvvw3,waadMt<axx9ifaM0",
"s8wsysue,1<a>saxdNjkxvvv>,da<sZplakdpcae9sZxs,ab6:xZdsvdddvvCt@ud9wAjddgxww9eZk:",
"s38tyw4:1ct<9vkjlswsNcsgqufp<Zk+Nyiyrset,Cjjvdd21wZbddxwacCab<uyk,cZ+szta9t>xA1#",
"i:8871<*lj:tsjpaarsddascutwdvny&hfw4gyw9exfdnS9*9adnwutpxdjpcaetjvxd#9dw9&<Nxd:3",
"8iw*+9yuh*9,sbwawbvwdyvk93*qdd<#ws,2N<v2Mhayk9#99eNasudvwafsvy4>,ddyO<d8&:<dgi#:",
"3xe +=:w4,1aZ49zda5wdajgv:<wdg7q98%9dzM,Ct>r9,3><Ch:adst>xwxyC9:qgx47<9&:,qsx99<",
":nh<*:78wewCc:qg3<&xtNrZnd7vuas7,91sxArqVp2::1#>cs:#he::7hdjdAlqddwh,:8,,9dlws<,",
"<cne*3#w9tvjh+w,@:7zdZxCkquZxCe*<canvb59Af+#+#@ad:<w9#,#saAkNca7ZxCh#:zaawZbvd@:",
"lxh,@$$x*9sk,3q:u7uzZnsdwwZbkx<9xbadxy<xAw,&<O:a5wsw>,q7xvNzxfwvCgcw9svalNVjvw7i",
"xsr*@:zb#aws9q<,c7svcpswdcxpww7acdcap9cAMd0Cd:wwsaw,#awqcvjuapvlsyp<wxdxcdd0p,wd",
"ts4*xGZ13p8wf<:udqdla9u5gwsyw<7dfwfwsvCvjavk:dwq:9,#,x9addewepwapy<,alwzwuaw9,ax"
};
